<?xml version="1.0" standalone="no"?> <!DOCTYPE svg PUBLIC "-//W3C//DTD SVG 1.0//EN" "http://www.w3.org/TR/2001/REC-SVG-20010904/DTD/svg10.dtd" > <svg xmlns="http://www.w3.org/2000/svg" width="100%" height="100%">
<defs >
<font id="Austin" horiz-adv-x="542" ><font-face
    font-family="Austin News Text Web"
    units-per-em="1000"
    panose-1="0 0 0 0 0 0 0 0 0 0"
    ascent="800"
    descent="-200"
    alphabetic="0" />
<missing-glyph horiz-adv-x="220" />
<glyph unicode=" " glyph-name="space" horiz-adv-x="220" />
<glyph unicode="!" glyph-name="exclam" horiz-adv-x="266" d="M134 711Q156 711 174 695T192 639Q192 602 189 561T179 458L153 186H113Q111 218 104 289T88 458Q82 520 79 561T75 639Q75 678 93 694T134 711ZM201 56Q201 26 182 7T134 -13Q102 -13 84 6T65 56Q65
83 83 103T134 123Q163 123 182 103T201 56Z" />
<glyph unicode="&quot;" glyph-name="quotedbl" horiz-adv-x="356" d="M210 668Q210 696 224 708T258 720Q277 720 291 708T306 668Q306 656 303 632T295 582Q293 568 291 551T286 517T281 483T276 454H240Q238 466 236 482T231 516T226 551T221 582Q216 608 213
632T210 668ZM98 720Q117 720 131 708T146 668Q146 656 143 632T135 582Q133 568 131 551T126 517T121 483T116 454H80Q78 466 76 482T71 516T66 551T61 582Q56 608 53 632T50 668Q50 696 64 708T98 720Z" />
<glyph unicode="#" glyph-name="numbersign" horiz-adv-x="618" d="M408 422H244L216 261H380L408 422ZM373 222H209L171 0H127L165 222H25V261H172L200 422H61V461H207L244 677H288L251 461H415L452 677H496L459 461H594V422H452L424 261H557V222H417L379 0H335L373
222Z" />
<glyph unicode="$" glyph-name="dollar" horiz-adv-x="503" d="M133 549Q133 522 141 502T163 465T196 436T239 411V654Q188 649 161 619T133 549ZM396 137Q396 168 389 189T368 226T332 254T281 281V25Q338 32 367 62T396 137ZM239 -109V-13Q194 -12 157 1T92
34T50 78T35 127Q35 155 50 171T86 188Q114 188 128 173T142 128Q142 118 138 105T133 84Q133 58 163 42T239 23V300Q209 313 176 330T116 372T72 431T54 513Q54 550 68 581T108 636T167 673T239 690V786H281V690Q327 687 360 674T416 643T448 604T459 561Q459
533 444 520T411 506Q382 506 369 523T356 568Q356 572 357 579T359 591Q359 619 336 634T281 653V389Q321 369 356 351T417 310T458 257T473 184Q473 148 460 115T423 56T363 12T281 -11V-109H239Z" />
<glyph unicode="%" glyph-name="percent" horiz-adv-x="771" d="M199 -16L166 4L573 695L605 675L199 -16ZM351 510Q351 471 340 438T308 381T259 343T198 329Q166 329 139 343T91 381T60 438T48 510Q48 549 59 582T91 639T138 677T198 691Q231 691 259 677T307
639T339 582T351 510ZM198 658Q124 658 124 510Q124 361 198 361Q238 361 256 397T274 510Q274 586 256 622T198 658ZM420 169Q420 208 431 241T463 298T512 336T573 350Q605 350 632 336T680 298T711 241T723 169Q723 130 712 97T680 40T633 2T573 -12Q540 -12
512 2T464 40T432 97T420 169ZM573 21Q647 21 647 169Q647 318 573 318Q533 318 515 282T497 169Q497 93 515 57T573 21Z" />
<glyph unicode="&amp;" glyph-name="ampersand" horiz-adv-x="710" d="M566 -13Q531 -13 509 -1T471 40Q469 44 464 51T451 70Q417 32 362 10T244 -13Q194 -13 154 1T87 40T45 98T30 169Q30 211 47 244T92 305T150 354T210 393L178 439Q155 471 146 504T136 557Q136
625 178 668T292 711Q364 711 403 679T442 590Q442 562 430 537T399 491T358 451T318 420Q333 401 349 380T380 339Q398 314 428 274T489 193Q502 213 510 234T525 278Q530 296 533 316T536 356Q536 392 509 409Q499 414 490 416T469 419V453H685V419Q671 417 663
415T645 408Q631 400 624 392T608 370Q602 360 593 337T571 274Q563 246 549 214T518 155L551 107Q584 57 623 57Q646 57 663 65T691 84L710 58Q705 47 692 35T659 12T616 -6T566 -13ZM295 51Q338 51 369 65T425 106Q410 127 393 151T359 197T328 239T303 271Q294
282 276 306T235 359Q212 341 195 327T165 296T147 256T141 198Q141 157 154 129T189 83T238 59T295 51ZM215 598Q215 564 237 531T293 453Q308 465 321 477T344 504T359 540T365 588Q365 623 349 646T293 670Q260 670 238 652T215 598Z" />
<glyph unicode="&apos;" glyph-name="quotesingle" horiz-adv-x="196" d="M98 720Q117 720 131 708T146 668Q146 656 143 632T135 582Q133 568 131 551T126 517T121 483T116 454H80Q78 466 76 482T71 516T66 551T61 582Q56 608 53 632T50 668Q50 696 64 708T98 720Z" />
<glyph unicode="(" glyph-name="parenleft" horiz-adv-x="284" d="M235 -121Q201 -77 170 -31T114 68T75 181T60 314Q60 386 74 446T113 559T169 658T235 749L272 720Q243 679 219 636T177 543T151 437T141 314Q141 247 150 191T177 86T218 -7T272 -92L235 -121Z" />
<glyph unicode=")" glyph-name="parenright" horiz-adv-x="284" d="M12 -92Q41 -51 65 -8T106 85T133 191T143 314Q143 381 134 437T107 542T65 635T12 720L49 749Q83 705 114 659T170 560T209 447T224 314Q224 242 210 182T171 69T115 -30T49 -121L12 -92V-92Z" />
<glyph unicode="*" glyph-name="asterisk" horiz-adv-x="418" d="M335 347Q324 340 311 342T287 358Q281 367 273 382T255 415T234 454T209 494Q196 474 185 454T164 416T146 382T131 358Q120 344 107 342T83 347Q72 355 69 368T77 398Q90 414 120 443T179 508Q137
517 99 522T43 533Q26 539 20 551T18 576Q23 589 34 596T64 597Q82 591 117 573T192 538Q189 580 183 617T176 675Q176 694 186 703T209 712Q222 712 232 703T242 675Q242 655 236 618T226 538Q265 554 300 572T354 597Q372 603 383 596T400 576Q404 564 398 552T375
533Q357 528 319 523T239 508Q267 473 297 444T341 398Q352 382 349 369T335 347Z" />
<glyph unicode="+" glyph-name="plus" horiz-adv-x="469" d="M256 283V110H214V283H40V325H214V499H256V325H429V283H256Z" />
<glyph unicode="," glyph-name="comma" horiz-adv-x="278" d="M218 40Q218 4 206 -27T172 -83T121 -127T58 -158L45 -128Q99 -105 123 -82T148 -35Q148 -25 145 -19T130 -9Q107 -1 91 14T74 61Q74 89 95 106T141 123Q173 123 195 103T218 40Z" />
<glyph unicode="-" glyph-name="hyphen" horiz-adv-x="353" d="M60 273V353H293V273H60Z" />
<glyph unicode="." glyph-name="period" horiz-adv-x="256" d="M129 -13Q97 -13 79 6T60 56Q60 83 78 103T129 123Q158 123 177 103T196 56Q196 26 177 7T129 -13Z" />
<glyph unicode="/" glyph-name="slash" horiz-adv-x="420" d="M39 -185L-14 -164L353 768L406 747L39 -185Z" />
<glyph unicode="0" glyph-name="zero" horiz-adv-x="656" d="M51 338Q51 410 70 474T126 587T213 663T328 691Q391 691 442 663T530 587T585 475T605 338Q605 266 586 202T530 91T443 15T328 -13Q265 -13 214 15T126 90T71 202T51 338ZM486 338Q486 422 476 481T445
578T395 633T328 651Q291 651 262 634T212 579T181 482T170 338Q170 254 181 195T212 99T261 44T328 27Q365 27 394 44T444 98T475 195T486 338Z" />
<glyph unicode="1" glyph-name="one" horiz-adv-x="364" d="M44 0V34Q61 36 77 40T100 49Q113 57 118 63T129 83Q132 94 133 113T135 157V500Q135 514 135 535T132 570Q130 587 123 593T107 605Q96 610 72 616T30 626V660Q44 661 62 662T100 666T139 670T176 676Q196
680 211 682T234 685Q242 685 242 677Q242 671 242 656T241 622T241 586T240 558V157Q240 133 241 114T246 83Q251 69 256 63T275 49Q282 45 298 41T331 34V0H44Z" />
<glyph unicode="2" glyph-name="two" horiz-adv-x="536" d="M228 651Q187 651 162 637T137 596Q137 586 140 580T152 559Q157 551 159 544T162 523Q162 500 144 485T100 469Q73 469 55 488T36 536Q36 567 49 595T89 644T155 678T246 691Q354 691 413 640T473 502Q473
443 446 392T382 298T304 223T238 168Q219 151 199 136T146 95V90H307Q355 90 380 103T421 133Q435 147 448 167T468 203H508L453 0H17L10 17Q26 31 44 47T88 86Q128 123 175 166T263 260T331 372T359 505Q359 547 350 575T324 620T283 644T228 651Z" />
<glyph unicode="3" glyph-name="three" horiz-adv-x="537" d="M257 691Q349 691 403 657T457 553Q457 519 442 494T402 448T346 411T282 376V373Q339 381 380 370T450 335T491 280T505 214Q505 175 489 135T439 61T352 8T224 -13Q177 -13 138 1T71 37T27 85T11
136Q11 166 26 180T63 194Q90 194 102 177T115 133Q115 122 116 110T119 88Q123 70 131 62T148 47Q160 39 177 33T224 26Q312 26 351 75T391 221Q391 282 364 312T271 342Q254 342 236 336T201 322L157 296L138 328L212 371Q251 394 277 412T319 451T342 495T349
553Q349 578 345 596T329 627T299 645T248 651Q204 651 179 640T153 611Q153 602 155 596T159 582Q162 575 164 568T166 549Q166 522 152 509T114 495Q90 495 74 512T58 558Q58 581 70 604T106 647T168 679T257 691Z" />
<glyph unicode="4" glyph-name="four" horiz-adv-x="592" d="M295 260V540H281L67 260H295ZM492 0H205V35Q221 37 236 41T260 50Q273 58 278 64T288 84Q291 95 293 114T295 158V222H14V253L343 676H400Q403 676 403 672Q403 660 402 644T401 606V260H425Q458 260
474 266T500 285Q511 300 516 318T524 358H561V125H524Q521 147 516 165T500 198Q490 211 474 216T425 222H401V158Q401 134 402 115T408 84Q413 70 418 64T436 50Q444 46 460 42T492 35V0Z" />
<glyph unicode="5" glyph-name="five" horiz-adv-x="550" d="M224 25Q303 25 347 71T391 214Q391 304 361 341T260 378Q234 378 212 370T172 348T142 319T122 287L78 297L161 677H198Q230 664 262 656T344 647Q376 647 399 656T439 680T464 710T478 738L506 729Q496
686 481 654T441 600T384 567T305 556Q275 556 243 561T185 574L141 375L149 373Q167 391 199 405T285 419Q340 419 381 403T449 360T490 295T504 215Q504 164 485 122T429 50T340 4T222 -13Q173 -13 134 0T68 35T27 83T12 133Q12 164 28 179T65 194Q92 194 104
177T116 133Q116 122 116 109T119 82Q122 68 131 59T150 44Q164 36 181 31T224 25Z" />
<glyph unicode="6" glyph-name="six" horiz-adv-x="585" d="M554 562Q554 533 539 516T499 499Q476 499 460 512T444 553Q444 566 446 573T450 587Q454 600 455 605T456 615Q456 628 433 639T369 650Q326 650 290 627T226 563T182 464T162 340H172Q192 383 233
405T329 427Q377 427 415 413T482 370T525 303T540 212Q540 162 521 121T469 50T393 4T300 -13Q240 -13 194 10T115 72T66 166T49 283Q49 382 78 458T154 586T258 664T369 691Q420 691 455 680T513 651T544 610T554 562ZM297 380Q272 380 248 373T205 345T175 290T163
199Q163 143 174 109T204 57T247 33T298 27Q328 27 352 35T394 63T421 118T431 209Q431 264 421 297T393 349T351 374T297 380Z" />
<glyph unicode="7" glyph-name="seven" horiz-adv-x="494" d="M496 660Q438 558 396 483T326 343T279 218T251 82Q244 28 232 8T191 -13Q163 -13 151 3T139 42Q139 72 149 105T175 173T209 241T245 305Q283 374 324 440T409 582V586H209Q187 586 173 586T148 583T129
578T111 569Q91 558 79 537T58 492H26L68 714H95Q100 700 115 689T163 677H496V660V660Z" />
<glyph unicode="8" glyph-name="eight" horiz-adv-x="562" d="M285 -13Q236 -13 193 -2T118 31T68 84T49 156Q49 188 60 214T91 262T136 299T191 326Q169 336 147 351T107 388T78 439T66 507Q66 550 83 584T129 642T198 678T284 691Q384 691 440 653T497 533Q497
476 462 435T372 369Q399 358 426 343T475 307T512 256T526 188Q526 146 510 110T463 46T388 3T285 -13ZM156 542Q156 511 166 489T197 449T252 416T331 384Q370 404 396 439T422 531Q422 598 387 624T284 650Q219 650 188 621T156 542ZM285 27Q316 27 343 31T389
47T420 80T431 134Q431 169 423 191T392 232T331 267T232 309Q188 292 157 258T126 162Q126 125 138 100T171 58T221 35T285 27Z" />
<glyph unicode="9" glyph-name="nine" horiz-adv-x="590" d="M295 281Q320 281 344 289T386 319T416 376T428 469Q428 525 417 560T388 616T345 643T294 650Q264 650 241 641T200 610T174 551T165 459Q165 404 174 369T201 315T242 288T295 281ZM53 111Q53 140
68 157T108 174Q131 174 146 161T162 120Q162 107 160 100T156 86Q151 73 150 70T149 57Q149 43 171 35T234 27Q330 27 379 97T432 317H422Q405 278 365 255T270 231Q222 231 183 247T116 292T72 363T56 456Q56 506 73 549T121 623T196 673T293 691Q357 691 404
667T482 601T529 504T545 385Q545 279 519 204T448 80T348 10T234 -13Q183 -13 149 -2T93 26T62 66T53 111Z" />
<glyph unicode=":" glyph-name="colon" horiz-adv-x="256" d="M129 379Q97 379 79 398T60 448Q60 475 78 495T129 515Q158 515 177 495T196 448Q196 418 177 399T129 379ZM129 -13Q97 -13 79 6T60 56Q60 83 78 103T129 123Q158 123 177 103T196 56Q196 26 177 7T129 -13Z" />
<glyph unicode=";" glyph-name="semicolon" horiz-adv-x="278" d="M143 379Q111 379 93 398T74 448Q74 475 92 495T143 515Q172 515 191 495T210 448Q210 418 191 399T143 379ZM218 40Q218 4 206 -27T172 -83T121 -127T58 -158L45 -128Q99 -105 123 -82T148 -35Q148
-25 145 -19T130 -9Q107 -1 91 14T74 61Q74 89 95 106T141 123Q173 123 195 103T218 40Z" />
<glyph unicode="&lt;" glyph-name="less" horiz-adv-x="469" d="M61 285V323L380 475V429L110 304L380 179V133L61 285Z" />
<glyph unicode="=" glyph-name="equal" horiz-adv-x="469" d="M50 383V425H419V383H50ZM50 183V225H419V183H50Z" />
<glyph unicode="&gt;" glyph-name="greater" horiz-adv-x="469" d="M89 133V180L360 304L89 428V475L408 323V285L89 133Z" />
<glyph unicode="?" glyph-name="question" horiz-adv-x="447" d="M414 507Q414 455 391 418T335 358T262 323T191 312H140V186H104V349H167Q202 349 229 364T274 407T302 472T312 552Q312 581 302 604T276 642T237 666T191 674Q173 674 160 665T141 626Q136 600
123 585T82 570Q59 570 44 582T28 623Q28 638 39 653T70 682T119 703T185 711Q230 711 261 702T319 678Q360 653 387 613T414 507ZM193 56Q193 26 174 7T126 -13Q94 -13 76 6T57 56Q57 83 75 103T126 123Q155 123 174 103T193 56Z" />
<glyph unicode="@" glyph-name="at" horiz-adv-x="869" d="M844 312Q844 247 824 192T769 95T689 31T593 7Q544 7 520 30T495 94Q495 112 501 138H494Q479 112 466 93T436 57Q410 31 382 19T327 7Q309 7 291 13T257 35T232 77T222 144Q222 176 231 211T258 282T299
350T353 407T415 446T485 461Q516 461 537 443T561 392H570Q578 409 583 423T596 453H679Q672 432 666 412T653 370T638 322T620 264Q596 193 586 150T576 91Q576 68 586 56T616 43Q652 43 686 63T748 119T792 204T809 312Q809 451 728 528T495 605Q419 605 348
576T220 493T130 365T96 200Q96 119 119 55T186 -55T296 -123T448 -147Q496 -147 542 -140T629 -120T704 -91T764 -56L780 -82Q755 -101 720 -118T643 -148T552 -169T450 -177Q357 -177 281 -152T151 -79T68 37T38 190Q38 289 77 370T180 510T326 601T494 634Q577
634 642 611T752 546T820 445T844 312ZM535 358Q535 427 485 427Q429 427 381 351Q362 320 350 287T330 221T321 161T318 115Q318 78 329 63T358 48Q377 48 394 60T428 91Q437 103 444 112T457 131T468 150T481 173Q492 192 498 208T510 242Q521 274 528 304T535
358Z" />
<glyph unicode="A" glyph-name="A" horiz-adv-x="691" d="M205 278H398L306 525H295L205 278ZM238 0H-4V36Q24 39 44 50Q53 55 62 65T80 90Q95 118 120 185L318 702H361L556 181Q567 152 576 132T596 97Q609 78 622 68T649 49Q658 45 666 42T686 36V0H369V36Q389
38 398 40T417 46Q432 53 442 61T453 94Q453 117 447 140T429 193L412 238H190L168 177Q159 153 156 136T153 101Q153 80 162 66T186 46Q195 42 209 40T238 36V0Z" />
<glyph unicode="B" glyph-name="B" horiz-adv-x="666" d="M35 36Q59 38 73 43Q90 48 101 57T122 83Q126 92 129 102T134 124T136 153T137 193V506Q137 530 137 546T134 575T129 596T122 616Q113 633 102 641T73 656Q58 661 35 662V698H350Q393 698 437 691T517
666T574 618T597 540Q597 512 590 491T570 454T540 426T505 404Q490 396 473 390T426 378V371Q466 367 504 356T571 324T617 272T635 196Q635 151 616 115T565 54T491 14T401 0H35V36ZM355 390Q397 390 421 399T460 428Q477 451 483 482T489 540Q489 575 479 598T451
636T408 656T352 662H278Q260 662 255 656Q250 649 250 637V390H355ZM373 36Q409 36 438 45T488 76Q505 95 512 124T520 196Q520 230 512 263T481 319Q461 339 428 345T355 352H250V154Q250 117 254 94T272 56Q283 44 303 40T351 36H373Z" />
<glyph unicode="C" glyph-name="C" horiz-adv-x="679" d="M371 670Q345 670 320 665T272 645Q249 631 228 609T192 552T167 468T158 349Q158 284 165 239T186 164T219 113T260 78Q288 58 316 51T392 43Q463 43 522 74T616 174L646 157Q627 119 602 88T542 34T463
-1T362 -14Q288 -14 229 13T126 88T60 202T37 349Q37 428 65 494T139 609T246 684T371 711Q411 711 441 706T494 692T532 674T559 653H567L601 699H623V460H585Q572 514 554 549T518 606Q505 621 493 633T464 653T426 666T371 670Z" />
<glyph unicode="D" glyph-name="D" horiz-adv-x="748" d="M348 698Q411 698 458 687T538 656Q574 636 606 607T662 540T699 454T713 350Q713 292 701 245T666 159T612 91T544 41Q511 23 466 12T375 0H35V36Q59 38 73 43Q90 48 101 57T122 83Q126 92 129 102T134
124T136 153T137 193V505Q137 529 137 545T134 574T129 596T122 616Q113 633 102 641T73 656Q58 661 35 662V698H348ZM598 348Q598 449 572 513T504 614Q474 640 430 651T344 662H278Q270 662 266 661T256 655Q250 649 250 630V154Q250 117 254 94T272 56Q283 44
303 40T351 36H365Q400 36 439 49T508 89Q528 109 544 133T573 188T591 258T598 348Z" />
<glyph unicode="E" glyph-name="E" horiz-adv-x="644" d="M576 0H35V36Q59 38 73 43Q90 48 101 57T122 83Q126 92 129 102T134 124T136 153T137 193V505Q137 529 137 545T134 574T129 596T122 616Q113 633 102 641T73 656Q58 661 35 662V698H557L588 525H554Q544
543 536 557T520 582T502 604T479 625Q465 637 435 649T359 662H310Q296 662 283 659T261 644Q252 633 251 620T249 586V379H295Q330 379 351 385T388 406Q409 425 414 446T423 491H456V230H423Q420 255 414 277T386 318Q371 332 350 337T295 342H249V154Q249 117
253 94T271 56Q282 44 302 40T350 36H368Q396 36 415 40T450 50T476 65T499 84Q532 114 546 140T575 196H607L576 0Z" />
<glyph unicode="F" glyph-name="F" horiz-adv-x="605" d="M359 0H35V36Q59 38 73 43Q90 48 101 57T122 83Q126 92 129 102T134 124T136 153T137 193V505Q137 529 137 545T134 574T129 596T122 616Q113 633 102 641T73 656Q58 661 35 662V698H556L585 507H553Q532
545 513 574T467 623Q453 635 426 648T350 662H311Q297 662 284 660T262 646Q253 635 252 622T250 588V384H281Q316 384 338 390T375 410Q395 430 400 450T410 495H443V234H410Q406 259 400 281T373 322Q357 336 337 341T281 347H250V193Q250 170 250 154T253 125T257
102T265 83Q274 66 285 57T314 43Q322 40 334 39T359 36V0Z" />
<glyph unicode="G" glyph-name="G" horiz-adv-x="760" d="M519 177Q519 194 518 206T515 228T510 246T502 264Q494 281 483 287T454 300Q439 304 415 306V341H730V306Q705 304 692 300Q675 294 664 286T643 260Q633 241 631 206T628 123V37Q617 30 596 23T548
8Q519 2 472 -6T376 -14Q297 -14 235 13T129 88T63 202T40 349Q40 428 67 494T140 609T245 684T369 711Q411 711 443 706T498 692T538 674T566 653H573L604 699H626V460H592Q579 514 564 548T526 607Q512 622 498 633T467 653T426 666T368 670Q344 670 322 665T275
645Q255 633 236 612T201 555T176 469T166 349Q166 283 172 236T190 155T220 99T262 62Q290 45 316 37T377 28Q406 28 425 30T458 36T479 45T495 57Q499 60 503 65T510 79T516 105T519 145V177V177Z" />
<glyph unicode="H" glyph-name="H" horiz-adv-x="811" d="M349 0H35V36Q59 38 73 43Q90 48 101 57T122 83Q126 92 129 102T134 124T136 153T137 193V505Q137 529 137 545T134 574T129 596T122 616Q113 633 102 642T73 656Q63 659 55 660T35 662V698H349V662Q337
661 330 660T314 656Q298 650 286 642T265 616Q260 606 258 597T253 575T251 546T250 505V373H561V505Q561 529 561 545T558 574T553 596T546 616Q537 633 526 641T497 656Q489 659 482 660T462 662V698H776V662Q764 661 755 660T738 656Q721 650 710 642T689 616Q684
606 682 597T677 575T675 546T674 505V193Q674 170 674 154T677 125T681 102T689 83Q698 66 710 57T738 43Q747 40 755 39T776 36V0H462V36Q473 37 480 38T497 43Q514 48 525 57T546 83Q550 92 553 102T558 124T560 153T561 193V333H250V193Q250 170 250 154T253
125T257 102T265 83Q274 66 285 57T314 43Q323 40 330 39T349 36V0Z" />
<glyph unicode="I" glyph-name="I" horiz-adv-x="387" d="M250 193Q250 170 250 154T253 125T257 102T265 83Q274 66 286 58T314 43Q328 38 352 36V0H35V36Q58 37 73 43Q90 49 101 57T122 83Q126 92 129 102T134 124T136 153T137 193V505Q137 529 137 545T134
574T129 596T122 616Q113 633 102 642T73 656Q58 661 35 662V698H352V662Q329 661 314 656Q297 651 286 642T265 616Q260 606 258 597T253 575T251 546T250 505V193Z" />
<glyph unicode="J" glyph-name="J" horiz-adv-x="437" d="M215 505Q215 529 215 545T213 574T208 596T200 615Q192 632 181 641T152 656Q137 660 113 662V698H428V662Q403 660 390 656Q373 650 362 641T341 615Q336 606 333 597T329 575T327 546T326 505V212Q326
176 320 149T305 101T285 65T265 40Q241 15 209 0T132 -15Q120 -15 106 -14T77 -8T48 2T23 19Q12 29 2 47T-8 85Q-8 113 9 128T51 144Q82 144 97 121Q108 102 113 76Q115 67 118 59T126 43Q132 35 140 32T156 28Q172 28 183 34T203 60Q214 84 214 115T215 174V505V505Z"
/>
<glyph unicode="K" glyph-name="K" horiz-adv-x="712" d="M349 0H30V36Q54 38 68 43Q85 48 96 57T117 83Q121 92 124 102T129 124T131 153T132 193V505Q132 529 132 545T129 574T124 596T117 616Q108 633 97 641T68 656Q53 661 30 662V698H349V662Q324 660 309
656Q292 650 281 642T260 616Q255 606 253 597T248 575T246 546T245 505V368L401 521Q434 554 453 575T472 618Q472 637 463 643T442 655Q434 658 424 659T402 662V698H675V662Q658 660 634 651T591 630Q567 616 542 595T476 534L349 414V406Q404 406 440 394T502
357Q531 328 552 287T579 187Q583 152 588 130T601 94T617 72T634 57Q645 49 666 44T698 36V0H516Q507 8 498 25T481 66T467 115T459 169Q454 225 446 259T427 312Q410 342 393 357T338 372Q321 372 306 363T277 342Q270 336 261 327T245 308V193Q245 170 245 154T248
125T252 102T260 83Q269 66 280 57T309 43Q317 40 327 39T349 36V0Z" />
<glyph unicode="L" glyph-name="L" horiz-adv-x="622" d="M35 36Q59 38 73 43Q90 48 101 57T122 83Q126 92 129 102T134 124T136 153T137 193V505Q137 529 137 545T134 574T129 596T122 616Q113 633 102 641T73 656Q58 661 35 662V698H350V662Q327 661 312 656Q295
650 284 642T263 616Q258 606 256 597T251 575T249 546T248 505V154Q248 117 252 94T270 56Q281 44 299 40T345 36H352Q379 36 399 39T434 50T460 65T483 85Q519 119 538 149T574 214H607L571 0H35V36Z" />
<glyph unicode="M" glyph-name="M" horiz-adv-x="937" d="M902 662Q877 660 864 656Q847 651 836 642T815 616Q810 606 807 597T803 575T801 546T800 506V192Q800 169 800 153T802 124T807 102T815 82Q824 65 835 56T864 42Q877 38 902 36V0H581V36Q593 37 604
38T624 42Q641 47 652 56T672 82Q677 92 680 101T684 123T686 152T687 192V593H677L467 -4H416L203 593H192V170Q192 128 196 109T211 76Q220 62 230 55T254 44Q265 41 274 40T298 36V0H32V36Q56 38 72 42Q86 46 96 52T119 73Q131 87 137 107T143 170V506Q143 529
143 545T141 574T136 596T128 616Q120 633 108 642T79 656Q72 658 58 659T32 662V698H291L473 176H483L665 698H902V662Z" />
<glyph unicode="N" glyph-name="N" horiz-adv-x="773" d="M603 -8L207 571H197V170Q197 128 202 109T216 76Q226 62 236 56T260 44Q271 41 280 40T303 36V0H38V36Q49 37 59 38T78 42Q92 46 102 52T124 73Q136 87 142 107T149 170V461Q149 519 143 549T128 599Q120
616 108 627T69 653Q54 660 29 662V698H257L597 194H606V527Q606 569 601 590T583 626Q571 640 560 645T535 655Q527 658 514 659T490 662V698H760V662Q746 660 737 658T717 653Q703 649 693 642T674 621Q664 608 659 589T654 527V-8H603Z" />
<glyph unicode="O" glyph-name="O" horiz-adv-x="746" d="M373 711Q442 711 503 684T609 609T682 495T709 349Q709 269 682 203T610 88T503 13T373 -14Q304 -14 243 13T137 88T64 202T37 349Q37 428 64 494T136 609T243 684T373 711ZM373 27Q431 27 477 56Q498
70 518 91T553 147T578 230T587 349Q587 418 578 467T554 550T518 605T477 641Q431 670 373 670Q315 670 269 641Q248 627 228 606T193 550T169 467T160 349Q160 280 169 231T193 147T228 92T269 56Q315 27 373 27Z" />
<glyph unicode="P" glyph-name="P" horiz-adv-x="610" d="M354 0H36V36Q60 38 74 43Q91 48 102 57T123 83Q127 92 130 102T135 124T137 153T138 193V506Q138 530 138 546T135 575T130 597T123 617Q114 634 103 643T74 657Q66 659 57 660T35 662V698H349Q403 698
448 686T525 651T574 594T592 516Q592 457 567 416T503 354Q475 339 428 326T310 312H250V193Q250 170 250 154T253 125T257 102T265 83Q274 66 285 57T314 43Q322 40 332 39T354 36V0ZM250 350H310Q367 350 402 365T454 404Q471 427 475 456T480 512Q480 582 447
622T333 662H279Q262 662 256 655Q254 652 252 647T250 633V350Z" />
<glyph unicode="Q" glyph-name="Q" horiz-adv-x="742" d="M600 -138Q533 -138 493 -106T429 -9Q415 -11 401 -12T373 -14Q304 -14 243 13T137 88T64 202T37 349Q37 428 64 494T136 609T243 684T373 711Q442 711 503 684T609 609T682 495T709 349Q709 295 697 247T661
158T606 85T536 30Q546 -2 554 -25T574 -63T600 -85T638 -93Q663 -93 680 -85T714 -63L732 -90Q712 -108 681 -123T600 -138ZM346 206Q408 206 451 172T516 89Q531 105 544 128T566 182T581 255T587 349Q587 418 578 467T554 550T518 605T477 641Q431 670 373 670Q315
670 269 641Q248 627 228 606T193 550T169 467T160 349Q160 270 171 218T201 130Q222 163 257 184T346 206ZM373 27Q397 27 416 31Q406 63 397 86T375 123T348 145T310 152Q284 152 261 137T225 95Q236 82 247 73T269 56Q315 27 373 27Z" />
<glyph unicode="R" glyph-name="R" horiz-adv-x="717" d="M275 662Q266 662 261 662T254 657Q250 653 250 636V368H323Q354 368 375 370T410 378T435 391T454 411Q483 451 483 518Q483 589 452 625T348 662H275ZM352 0H35V36Q59 38 73 43Q90 48 101 57T122 83Q126
92 129 102T134 124T136 153T137 193V505Q137 529 137 545T134 574T129 596T122 616Q113 633 102 641T73 656Q58 661 35 662V698H363Q415 698 458 685T532 649T580 592T597 518Q597 469 575 438T520 386Q506 377 483 368T419 350V342Q444 339 467 332T505 313Q517
305 528 297T548 275T566 244T579 198Q585 163 592 139T606 99T622 73T639 57Q650 49 667 44T705 36V0H524Q515 10 507 26T493 62T481 104T472 149Q467 180 464 201T455 239T443 269T425 296Q408 318 382 324T320 330H250V193Q250 170 250 154T253 125T257 102T265
83Q274 66 285 57T314 43Q328 38 352 36V0Z" />
<glyph unicode="S" glyph-name="S" horiz-adv-x="546" d="M513 193Q513 143 494 105T443 40T370 0T284 -14Q227 -14 182 7T110 54H100L72 5H47L37 236H71Q86 195 108 157T158 90T218 42T284 24Q353 24 388 58T423 144Q423 179 410 202T374 243T320 276T250 310Q214
328 180 346T118 390T75 448T58 528Q58 568 73 602T116 660T179 697T258 711Q288 711 309 708T345 698T373 683T400 661H409L431 703H462L479 500H445Q429 541 409 575T365 633Q346 651 323 662T258 673Q213 673 182 647T150 572Q150 537 163 514T197 475T245 445T300
418Q341 397 379 378T447 334T495 276T513 193Z" />
<glyph unicode="T" glyph-name="T" horiz-adv-x="670" d="M392 193Q392 170 392 154T394 125T399 102T407 83Q415 66 426 57T455 43Q468 38 493 36V0H177V36Q203 38 215 43Q232 48 243 57T264 83Q269 92 272 102T276 124T278 153T279 193V660H250Q214 660 185
653T123 621Q105 607 93 595T71 571T55 546T41 518H7L38 698H632L663 518H631Q616 549 599 572T548 621Q515 645 486 652T420 660H392V193V193Z" />
<glyph unicode="U" glyph-name="U" horiz-adv-x="752" d="M638 234Q638 180 631 143T600 72Q574 33 522 10T386 -13Q345 -13 305 -6T229 17T168 57T128 117Q122 132 119 151T113 190T110 229T109 263V505Q109 529 109 545T107 574T102 596T94 615Q86 632 75 641T46
656Q31 660 7 662V698H325V662Q300 660 287 656Q270 650 259 641T238 615Q233 606 230 597T225 575T223 546T222 506V224Q222 201 225 178T236 128Q245 99 260 80T296 50T342 34T395 29Q524 29 564 96Q579 121 585 152T591 228V527Q591 570 585 591T567 626Q555
640 545 645T520 656Q512 658 499 659T475 662V698H744V662Q718 659 701 654Q687 649 677 643T657 622Q647 609 643 590T638 527V234V234Z" />
<glyph unicode="V" glyph-name="V" horiz-adv-x="696" d="M389 170H398L524 518Q532 541 536 559T541 597Q541 617 532 631T508 652Q499 656 485 658T456 662V698H696V662Q681 660 669 657T646 648Q636 642 627 633T609 607Q601 593 592 571T569 513L376 -5H334L139
516Q129 544 119 565T99 601Q86 619 73 630T46 649Q37 653 27 656T5 662V698H337V662Q297 658 282 653Q267 648 256 639T244 604Q244 580 253 554T270 505L389 170Z" />
<glyph unicode="W" glyph-name="W" horiz-adv-x="1044" d="M535 478H529L360 -5H319L144 508Q121 575 101 603Q88 622 76 631T50 649Q41 653 30 656T6 662V698H331V662Q311 660 298 658T276 653Q261 648 250 639T239 609Q239 585 246 562T264 506L372 174H379L510
549Q502 572 495 586T480 612Q467 630 457 639T431 653Q414 659 391 662V698H711V662Q674 659 657 654Q642 649 631 641T620 609Q620 585 628 557T644 506L752 174H759L872 518Q882 549 886 566T890 601Q890 622 881 634T857 652Q848 656 834 658T805 662V698H1045V662Q1030
660 1018 657T994 648Q977 637 958 607Q950 595 941 572T918 513L740 -5H699L535 478Z" />
<glyph unicode="X" glyph-name="X" horiz-adv-x="701" d="M-6 0V36Q5 38 15 41T38 51Q63 63 90 89Q101 100 118 120T162 175L289 342L175 507Q148 546 129 574T92 620T54 649T5 662V698H339V662Q301 659 276 651T251 621Q251 606 257 594T276 562L376 416H382L466
525Q487 551 497 569T507 608Q507 625 498 636T473 654Q466 657 453 658T426 662V698H686V662Q678 661 666 657T643 647Q631 642 619 634T594 614Q583 604 566 583T519 523L405 375L531 191Q554 158 573 131T611 83T651 51T701 36V0H365V36Q381 38 396 41T423 49T442
63T449 84Q449 98 443 113T414 161L318 300H314L213 167Q193 140 185 125T176 90Q176 73 186 62T210 45Q218 42 231 40T258 36V0H-6Z" />
<glyph unicode="Y" glyph-name="Y" horiz-adv-x="646" d="M106 555Q88 586 74 605T47 636T21 653T-8 662V698H299V662Q262 659 245 654Q210 642 213 615T243 542L355 357H361L459 524Q480 558 486 577T492 616Q492 633 486 641T465 655Q457 658 444 659T422 662V698H652V662Q625
659 606 649T571 622T539 578T503 516L375 297V193Q375 170 375 154T377 125T381 102T389 83Q398 66 410 58T438 43Q448 39 456 38T476 36V0H160V36Q172 37 180 38T198 43Q214 48 226 57T247 83Q252 92 255 102T259 124T261 153T262 193V298L106 555Z" />
<glyph unicode="Z" glyph-name="Z" horiz-adv-x="624" d="M581 671L177 36H264Q300 36 326 38T373 43T409 53T443 68Q470 82 490 100T524 138T550 177T571 215H608L549 0H37V27L448 662H339Q312 662 291 660T253 654T221 643T192 625Q165 605 141 576T96 505H60L100
698H581V671Z" />
<glyph unicode="[" glyph-name="bracketleft" horiz-adv-x="345" d="M100 -120V750H335V714H184V-84H335V-120H100Z" />
<glyph unicode="\" glyph-name="backslash" horiz-adv-x="420" d="M67 768L434 -164L381 -185L14 747L67 768Z" />
<glyph unicode="]" glyph-name="bracketright" horiz-adv-x="345" d="M245 -120H10V-84H161V714H10V750H245V-120Z" />
<glyph unicode="^" glyph-name="asciicircum" horiz-adv-x="460" d="M135 456H85L206 707H254L375 456H325L230 659L135 456Z" />
<glyph unicode="_" glyph-name="underscore" horiz-adv-x="295" d="M-5 -167V-121H300V-167H-5Z" />
<glyph unicode="`" glyph-name="grave" horiz-adv-x="460" d="M310 568L148 640Q90 666 90 701Q90 723 101 736T133 749Q155 749 172 737T213 704Q236 683 261 658T328 596L310 568Z" />
<glyph unicode="a" glyph-name="a" horiz-adv-x="500" d="M492 14Q484 9 457 0T399 -10Q377 -10 364 -7T342 3Q331 11 324 25T313 66H302Q297 56 287 43T261 18T222 -2T169 -10Q105 -10 68 22T30 120Q30 142 39 166T68 210Q95 234 123 245T195 269Q243 283 266
295T299 324V413Q299 449 285 464T238 480Q206 480 184 467Q176 461 168 449T156 413Q149 364 106 364Q86 364 73 376T60 410Q60 441 83 464Q102 484 142 501T237 518Q315 518 358 495T401 411V135Q401 115 401 102T403 80T407 66T411 56Q420 37 446 37Q455 37
466 39T483 44L492 14ZM299 282Q291 274 272 264T227 243Q203 232 185 222T155 199Q144 185 136 169T127 124Q127 100 134 84T151 59T175 46T203 42Q238 42 263 60T299 111V282Z" />
<glyph unicode="b" glyph-name="b" horiz-adv-x="594" d="M182 756Q189 756 189 749Q189 723 188 693T186 615V440H195Q224 482 260 500T347 518Q385 518 423 505T491 460T540 378T559 254Q559 185 537 136T481 54T403 6T317 -9Q274 -9 235 12T175 68H159L110
-1H82Q84 25 84 52T85 102V627Q85 639 84 656T81 682Q74 702 60 711Q49 717 38 719T6 723V756H182ZM327 471Q298 471 275 464T232 438Q216 424 201 398T186 327V195Q186 149 193 121T217 73Q235 52 261 42T313 31Q382 31 417 90T452 254Q452 315 442 357T415 424T376
460T327 471Z" />
<glyph unicode="c" glyph-name="c" horiz-adv-x="508" d="M284 480Q264 480 244 474T208 456Q176 431 159 382T141 255Q141 177 160 132T211 60Q226 49 246 42T287 35Q326 35 354 45T401 70T432 106T452 147L487 134Q467 69 414 30T276 -10Q231 -10 195 3T127
40Q82 74 58 128T34 255Q34 316 54 365T109 448T189 500T284 518Q321 518 348 513T395 499T427 481T449 461Q461 447 466 434T472 408Q472 378 458 366T424 354Q396 354 384 371T363 417Q353 451 337 465T284 480Z" />
<glyph unicode="d" glyph-name="d" horiz-adv-x="593" d="M405 342Q405 371 399 397T374 443Q357 461 338 469T289 477Q259 477 233 465T186 426T153 357T141 254Q141 192 153 150T185 81T231 44T284 33Q312 33 334 44T372 76T396 124T405 182V342ZM432 0Q422
0 419 6Q417 11 417 16T417 28V83H406Q389 41 350 16T255 -10Q212 -10 172 7T102 58T53 141T34 254Q34 323 55 373T111 455T189 503T276 518Q303 518 322 513T356 500T379 483T396 465H405V628Q405 639 404 656T399 681Q397 690 390 697T375 710Q355 721 321 723V756H503Q510
756 510 749Q509 727 508 695T506 615V136Q506 121 506 108T510 84Q514 69 521 59T544 42Q551 39 561 37T582 34V0H432Z" />
<glyph unicode="e" glyph-name="e" horiz-adv-x="523" d="M489 139Q465 74 412 32T279 -10Q227 -10 188 5T119 47Q74 86 54 141T34 254Q34 312 54 360T108 444T186 498T277 518Q333 518 373 500T438 454T474 393T486 329Q486 312 485 296T482 271H145V254Q145
203 155 154T196 73Q213 55 237 45T296 34Q332 34 358 44T403 70T436 108T459 153L489 139ZM203 452Q195 444 187 433T170 405T156 365T147 308H349Q366 308 374 319T383 360Q383 395 378 414T358 450Q345 465 326 472T278 479Q259 479 240 473T203 452Z" />
<glyph unicode="f" glyph-name="f" horiz-adv-x="346" d="M30 0V34Q40 35 51 37T68 42Q96 56 103 85Q105 96 105 109T106 138V463H28V505H106V561Q106 626 124 663T167 720Q213 759 279 759Q317 759 336 754T370 739Q393 725 404 705T416 662Q416 639 404 625T369
611Q353 611 344 616T327 632Q321 640 317 651T310 674Q308 684 307 690T300 704Q296 710 289 715T267 720Q250 720 240 714T222 694Q211 677 210 657T208 605V505H337V463H208V138Q208 132 208 114T212 85Q216 70 222 60T244 42Q250 40 263 38T286 34V0H30Z" />
<glyph unicode="g" glyph-name="g" horiz-adv-x="567" d="M150 350Q150 313 157 288T178 248T209 227T246 220Q266 220 285 226T320 248T344 288T354 350Q354 386 345 411T322 451T289 474T250 481Q230 481 212 474T181 452T159 411T150 350ZM520 -21Q520 -67
495 -101T429 -158T337 -192T235 -204Q118 -204 64 -173T10 -88Q10 -44 48 -21T145 11V21Q110 27 84 51T58 113Q58 134 65 148T84 173T111 190T144 201V208Q105 228 78 262T51 350Q51 390 68 421T113 474T177 507T252 518Q301 518 343 503T415 450H426Q434 482
460 500T519 518Q551 518 566 501T581 459Q581 436 569 426T539 416Q525 416 517 421T502 437Q496 448 491 454T474 461Q464 461 454 447T444 412Q444 404 446 396T451 376Q452 370 452 364T453 350Q453 308 435 277T387 224T322 192T248 181Q234 181 220 182T194
184Q169 184 147 176T125 143Q125 122 140 112T185 101Q194 101 218 102T269 104T323 106T362 107Q396 107 425 103T475 86T508 47T520 -21ZM450 -50Q450 -30 444 -19T426 -1T398 7T362 9Q330 10 291 9T222 4Q204 2 181 -1T136 -14T101 -40T87 -85Q87 -108 98 -123T131
-148T181 -161T247 -165Q285 -165 321 -159T386 -139T432 -104T450 -50Z" />
<glyph unicode="h" glyph-name="h" horiz-adv-x="624" d="M278 0H29V34Q39 35 50 37T67 42Q95 56 102 85Q104 96 104 109T105 138V626Q105 638 105 655T102 680Q95 700 80 708Q69 715 56 717T25 722V756H199Q206 756 206 748V429H217Q229 444 242 459T275 486Q322
518 385 518Q443 518 478 493Q501 476 514 449T527 386V138Q527 122 527 109T530 85Q534 70 541 60T565 42Q571 40 581 38T602 34V0H353V34Q363 35 373 37T391 42Q406 50 412 60T423 85Q425 96 425 109T426 138V376Q426 396 422 413T405 442Q387 459 346 459Q314
459 284 447T235 408Q221 389 214 362T206 306V138Q206 122 206 109T210 85Q214 70 220 60T242 42Q248 40 258 38T278 34V0Z" />
<glyph unicode="i" glyph-name="i" horiz-adv-x="302" d="M159 608Q131 608 113 625T95 671Q95 699 113 716T159 734Q187 734 205 717T223 671Q223 643 205 626T159 608ZM204 138Q204 122 204 109T208 85Q212 70 219 60T243 42Q249 40 259 38T280 34V0H29V34Q39
35 49 37T65 42Q93 56 100 85Q102 96 102 109T103 138V370Q103 382 103 399T100 424Q94 442 78 452Q58 464 25 471V505H200Q207 505 207 497Q206 476 205 450T204 384V138Z" />
<glyph unicode="j" glyph-name="j" horiz-adv-x="285" d="M156 608Q128 608 110 625T92 671Q92 699 110 716T156 734Q184 734 202 717T220 671Q220 643 202 626T156 608ZM105 370Q105 382 105 399T102 424Q96 442 80 452Q69 458 56 462T25 471V505H202Q209 505
209 498Q209 476 208 450T207 385V36Q207 -12 200 -46T182 -105T157 -146T128 -173Q111 -187 89 -195T33 -204Q6 -204 -16 -200T-56 -183Q-99 -155 -99 -106Q-99 -79 -83 -65T-46 -50Q-21 -50 -8 -63T5 -100Q5 -105 5 -111T3 -123Q2 -128 2 -132T1 -141Q1 -157
11 -164T38 -171Q55 -171 66 -167T86 -149Q97 -134 101 -111T105 -45V370Z" />
<glyph unicode="k" glyph-name="k" horiz-adv-x="586" d="M277 0H34V34Q44 35 52 37T67 42Q95 56 102 85Q104 96 104 109T105 138V626Q105 638 105 655T102 680Q95 700 80 708Q69 715 56 717T25 722V756H201Q208 756 208 748Q208 729 207 694T206 625V272L304
351Q332 374 349 391T367 429Q367 443 360 450T343 462Q335 466 324 467T299 471V505H560V471Q544 466 530 460T494 442Q483 436 473 430T451 415T424 395T386 367L300 303Q328 301 354 293T403 271T440 239T461 197Q471 153 481 124T506 72Q516 55 531 47T581
34V0H416Q411 6 408 16T399 44T388 86T371 148Q365 170 357 191T338 229T309 258T267 276L206 226V138Q206 122 206 109T210 85Q214 70 220 60T242 42Q248 40 257 38T277 34V0Z" />
<glyph unicode="l" glyph-name="l" horiz-adv-x="303" d="M203 138Q203 122 203 109T207 85Q211 70 217 60T239 42Q245 40 254 38T274 34V0H31V34Q41 35 49 37T64 42Q92 56 99 85Q101 96 101 109T102 138V626Q102 638 102 655T99 680Q92 700 77 708Q66 715 53
717T22 722V756H198Q205 756 205 748Q205 729 204 694T203 625V138Z" />
<glyph unicode="m" glyph-name="m" horiz-adv-x="911" d="M278 0H29V34Q39 35 50 37T67 42Q95 56 102 85Q104 96 104 109T105 138V370Q105 382 105 399T102 424Q96 442 80 452Q69 458 56 462T25 472V505H199Q206 505 206 497L202 421H212Q223 439 236 455T265
483Q285 500 311 509T369 518Q401 518 423 512T463 491Q480 477 489 461T503 423H511Q534 462 569 486Q613 518 673 518Q705 518 727 512T767 491Q790 472 801 447T813 385V138Q813 122 813 109T817 85Q821 70 828 60T851 42Q858 40 868 38T889 34V0H640V34Q650
35 660 37T676 42Q692 50 698 60T709 85Q711 96 711 109T712 138V380Q712 400 709 415T692 443Q682 452 671 455T640 459Q608 459 583 444T538 403Q524 384 517 357T510 301V138Q510 122 510 109T513 85Q520 56 548 42Q554 40 563 38T582 34V0H337V34Q347 35 357
37T373 42Q388 50 394 60T405 85Q408 96 408 109T409 138V380Q409 400 405 415T389 443Q378 452 368 455T336 459Q304 459 279 444T235 403Q221 384 214 357T206 301V138Q206 122 206 109T210 85Q214 70 220 60T242 42Q248 40 258 38T278 34V0Z" />
<glyph unicode="n" glyph-name="n" horiz-adv-x="624" d="M527 138Q527 122 527 109T530 85Q534 70 541 60T565 42Q571 40 581 38T602 34V0H353V34Q363 35 373 37T391 42Q406 50 412 60T423 85Q425 96 425 109T426 138V376Q426 396 421 413T404 442Q386 459 346
459Q314 459 284 447T235 408Q221 389 214 362T206 306V138Q206 122 206 109T210 85Q214 70 220 60T242 42Q248 40 258 38T278 34V0H29V34Q39 35 50 37T67 42Q95 56 102 85Q104 96 104 109T105 138V370Q105 382 105 399T102 424Q96 442 80 452Q69 458 56 462T25
471V505H195Q202 505 202 497L200 423H212Q224 442 239 458T275 486Q322 518 385 518Q443 518 478 493Q501 476 514 449T527 386V138V138Z" />
<glyph unicode="o" glyph-name="o" horiz-adv-x="566" d="M34 255Q34 316 54 365T108 448T188 500T283 518Q333 518 378 500T457 448T512 365T532 255Q532 194 512 145T458 62T378 9T283 -10Q233 -10 188 8T109 61T54 145T34 255ZM144 255Q144 177 161 128T210
53Q242 29 283 29Q323 29 355 53Q387 79 404 128T422 255Q422 333 405 382T355 456Q340 468 322 473T283 479Q263 479 244 474T210 456Q178 431 161 382T144 255Z" />
<glyph unicode="p" glyph-name="p" horiz-adv-x="601" d="M462 253Q462 314 452 356T425 423T386 460T337 471Q308 471 288 463T247 437Q239 430 231 417T216 387T205 350T200 308V193Q200 147 207 118T231 70Q249 50 273 39T322 28Q391 28 426 88T462 253ZM97
371Q97 382 96 399T93 424Q87 443 72 453Q61 459 47 463T17 471V505H190Q197 505 197 498L195 430H205Q258 518 357 518Q395 518 433 504T501 459T550 377T569 253Q569 184 548 134T492 52T415 4T330 -11Q257 -11 207 31H200V-58Q200 -73 200 -86T203 -110Q210
-139 238 -153Q244 -155 256 -157T283 -161V-193H17V-161Q27 -160 39 -158T59 -153Q74 -145 81 -135T93 -110Q96 -99 96 -86T97 -58V371Z" />
<glyph unicode="q" glyph-name="q" horiz-adv-x="601" d="M440 448L486 514H525Q524 499 523 480T520 439T518 397T517 358V-58Q517 -73 517 -86T521 -110Q525 -125 532 -135T555 -153Q562 -155 572 -157T592 -161V-193H335V-161Q346 -160 359 -159T380 -153Q394
-148 401 -137T413 -110Q415 -99 415 -86T416 -58V66H407Q390 32 351 11T255 -11Q212 -11 172 6T102 58T53 141T34 254Q34 323 57 373T116 455T198 502T286 518Q335 518 369 502T432 448H440ZM404 350Q404 379 398 400T374 442Q357 460 338 468T289 477Q259 477
232 465T185 425T152 356T140 254Q140 191 152 150T185 83T232 48T285 37Q311 37 332 46T368 73Q404 114 404 181V350Z" />
<glyph unicode="r" glyph-name="r" horiz-adv-x="436" d="M206 408Q221 440 235 457T265 488Q279 499 300 508T351 518Q368 518 384 513T413 497Q420 490 425 479T431 447Q431 426 420 409T380 392Q357 392 346 403T327 434Q322 446 315 450T297 454Q285 454 270
444T242 416T218 375T204 325Q203 318 202 296T201 254V138Q201 122 201 109T205 85Q209 70 216 59T237 42Q246 39 259 37T283 34V0H24V34Q34 35 45 37T62 42Q90 56 97 85Q99 96 99 109T100 138V370Q100 382 100 399T97 424Q91 442 75 452Q64 458 51 462T20 471V505H193Q200
505 200 497L195 408H206V408Z" />
<glyph unicode="s" glyph-name="s" horiz-adv-x="436" d="M409 147Q409 106 395 77T356 28T301 0T234 -10Q194 -10 157 9T98 56H86L69 2H40L34 193H70Q82 157 98 127T136 75T182 41T237 28Q279 28 303 45T327 99Q327 122 320 138T297 167T257 191T200 217Q169
230 141 242T92 271T59 314T46 380Q46 409 57 434T90 478T143 507T213 518Q260 518 287 501T324 467H334L347 509H373L381 357H346Q334 389 321 413T291 453Q276 466 258 473T213 480Q174 480 152 461T129 411Q129 393 134 380T152 355T188 332T246 308Q278 295
307 281T359 249T395 206T409 147Z" />
<glyph unicode="t" glyph-name="t" horiz-adv-x="358" d="M358 49Q330 14 296 2T227 -10Q192 -10 168 -3T124 22Q107 36 101 56T95 109V464H8V492Q36 498 58 509T100 541T135 597T167 682H196V505H328V464H196V109Q196 77 210 59T261 41Q306 41 340 73L358 49Z" />
<glyph unicode="u" glyph-name="u" horiz-adv-x="621" d="M516 137Q516 122 516 109T520 85Q524 70 531 59T555 42Q563 39 575 37T597 34V0H432Q423 0 423 11Q423 14 423 25T422 49V81H412Q398 57 387 44T361 19Q342 5 316 -3T255 -12Q220 -12 185 -2T126 38Q111
56 103 79T95 146V373Q95 385 95 402T92 427Q86 445 70 455Q50 468 15 471V505H193Q200 505 200 498Q199 476 198 449T196 378V153Q196 125 200 105T220 69Q235 52 252 46T292 40Q311 40 330 46T367 66Q384 80 396 102T412 155Q414 177 414 192T415 235V373Q415
385 415 402T412 427Q406 445 390 455Q368 468 333 471V505H513Q520 505 520 498Q519 476 518 449T516 378V137V137Z" />
<glyph unicode="v" glyph-name="v" horiz-adv-x="563" d="M562 471Q554 470 544 468T525 461Q518 456 512 450T497 432Q489 421 480 401T454 343L306 -4H256L119 324Q110 347 103 362T91 387T83 404T77 417Q68 437 63 444T47 459Q38 466 26 468T4 471V505H261V471Q245
470 232 469T212 463Q205 459 199 452T192 427Q192 411 199 391T218 342L310 123H319L408 336Q415 356 420 370T427 394T431 411T432 424Q432 441 425 449T409 463Q400 468 385 469T362 471V505H562V471V471Z" />
<glyph unicode="w" glyph-name="w" horiz-adv-x="841" d="M427 321H423L296 -4H248L119 315Q105 351 95 376T79 413Q69 433 64 442T47 459Q38 466 25 468T4 471V505H256V471Q247 470 235 469T216 463Q208 458 201 450T194 425Q194 409 199 391T216 342L295 123H305L403
364L383 413Q374 433 368 442T350 459Q341 466 330 468T310 471V505H558V471Q531 470 519 463Q511 458 504 450T497 425Q497 409 502 391T519 342L599 123H609L691 336Q703 374 708 392T713 424Q713 441 706 449T690 463Q681 468 672 469T650 471V505H840V471Q832
470 823 468T804 459Q797 454 791 449T777 432Q769 421 760 403T735 343L599 -4H551L427 321Z" />
<glyph unicode="x" glyph-name="x" horiz-adv-x="522" d="M9 0V34Q23 37 34 43T53 54Q67 63 78 73T101 95T124 123T153 159L220 243L124 372Q101 402 88 423T60 453Q52 458 39 463T10 471V505H259V471Q247 469 239 468T222 465Q213 462 207 458T200 441Q200 429
205 420T221 396L283 312H292L328 362Q350 392 356 407T363 434Q363 447 359 452T345 462Q337 466 329 467T306 471V505H505V472Q491 469 478 464T457 454Q443 445 432 435T411 412T389 383T363 344L310 275L411 138Q434 107 450 84T481 52Q489 47 503 42T531 34V0H283V34Q294
35 302 36T319 40Q328 43 335 49T342 66Q342 77 337 86T321 109L248 206H240L189 141Q166 112 160 99T153 74Q153 63 159 56T174 45Q184 40 192 38T213 34V0H9Z" />
<glyph unicode="y" glyph-name="y" horiz-adv-x="551" d="M274 -50Q265 -71 259 -84T247 -108T235 -126T220 -147Q201 -172 174 -187T104 -202Q68 -202 45 -183T21 -135Q21 -112 35 -97T67 -81Q88 -81 99 -89T122 -110Q132 -121 138 -125Q143 -129 148 -130T161
-131Q172 -131 182 -124T200 -104T216 -77T229 -47Q236 -30 238 -16T241 7Q241 21 237 31T230 50L117 315Q101 351 92 376T77 413Q68 433 62 442T45 459Q36 465 24 467T4 471V505H258V471Q249 470 234 468T210 463Q202 458 196 450T189 425Q189 408 195 390T214
341L300 130H311L399 335Q406 352 411 364T418 385T422 403T423 423Q423 440 416 449T400 463Q391 468 378 469T357 471V505H550V471Q542 470 533 468T514 460Q507 455 501 449T486 432Q478 420 467 397T443 343L274 -50V-50Z" />
<glyph unicode="z" glyph-name="z" horiz-adv-x="493" d="M441 0H30V17L331 466V471H209Q186 471 171 464T140 441Q120 422 107 400T79 349H44L79 505H451V484L157 38V34H269Q310 34 329 44T365 74Q389 102 402 123T427 172H460L441 0Z" />
<glyph unicode="{" glyph-name="braceleft" horiz-adv-x="372" d="M362 -121Q321 -120 284 -112T219 -86T173 -39T156 37Q156 51 158 71T162 110T167 147T169 175Q169 221 152 246T100 285Q88 290 73 293T40 298V331Q57 333 72 336T100 344Q134 358 151 383T169
454Q169 464 167 481T163 518T158 558T156 592Q156 638 173 667T218 715T284 740T362 750V713Q341 710 320 707T283 693T256 663T246 610Q246 598 247 581T249 546T252 511T254 479Q254 443 243 416T211 369T162 337T100 317V312Q133 305 161 293T210 261T242 214T254
150Q254 136 253 119T250 83T247 48T246 19Q246 -15 256 -34T282 -63T320 -77T362 -84V-121V-121Z" />
<glyph unicode="|" glyph-name="bar" horiz-adv-x="226" d="M85 -179V766H141V-179H85Z" />
<glyph unicode="}" glyph-name="braceright" horiz-adv-x="372" d="M10 -84Q31 -81 52 -78T89 -64T116 -34T126 19Q126 31 125 48T122 83T119 118T118 150Q118 186 129 213T161 260T210 292T272 312V317Q239 324 211 336T162 368T130 415T118 479Q118 493 119
510T121 546T124 581T126 610Q126 644 116 663T90 692T52 706T10 713V750Q51 748 88 741T153 715T199 668T216 592Q216 578 214 558T210 519T205 482T203 454Q203 408 220 383T272 344Q284 339 299 336T332 331V298Q315 296 300 293T272 285Q238 271 221 246T203
175Q203 165 205 148T209 111T214 71T216 37Q216 -9 199 -38T154 -86T88 -112T10 -121V-84Z" />
<glyph unicode="~" glyph-name="asciitilde" horiz-adv-x="426" d="M396 386Q389 364 378 344T351 308T317 283T277 273Q255 273 237 277T202 288T168 298T131 303Q111 303 95 291T67 250L30 263Q37 285 48 305T75 341T109 366T149 376Q170 376 187 372T221 361T253
351T288 346Q308 346 327 358T359 399L396 386V386Z" />
<glyph unicode="&#xa0;" glyph-name="uni00A0" horiz-adv-x="220" />
<glyph unicode="&#xa1;" glyph-name="exclamdown" horiz-adv-x="266" d="M132 -205Q110 -205 92 -189T74 -133Q74 -96 77 -55T87 48L113 320H153Q155 288 162 217T178 48Q184 -14 187 -55T191 -133Q191 -172 173 -188T132 -205ZM201 450Q201 423 183 403T132 383Q103
383 84 403T65 450Q65 480 84 499T132 519Q164 519 182 500T201 450Z" />
<glyph unicode="&#xa2;" glyph-name="cent" horiz-adv-x="508" d="M211 60Q237 41 272 36V479Q255 477 238 472T208 456Q176 431 159 382T141 255Q141 177 160 132T211 60ZM487 134Q470 77 427 39T315 -8V-96H272V-10Q229 -9 194 4T127 40Q82 74 58 128T34 255Q34
314 53 362T105 443T181 496T272 518V613H315V517Q374 512 403 495T449 461Q461 447 466 434T472 408Q472 378 458 366T424 354Q396 354 384 371T363 417Q355 443 345 457T315 476V36Q346 40 369 50T408 76T434 110T452 147L487 134Z" />
<glyph unicode="&#xa3;" glyph-name="sterling" horiz-adv-x="694" d="M467 -28Q443 -28 418 -21T366 -1T315 25T268 53Q239 21 197 4T116 -13Q67 -13 39 9T10 71Q10 112 42 137T125 162Q153 162 179 155T228 140Q232 162 234 190T240 256H127V295H243L246 330Q254
413 280 480T345 594T429 666T522 691Q597 691 633 657T669 573Q669 543 658 520T629 480T586 456T535 447Q496 447 470 465T432 511L466 533Q477 510 493 498T535 485Q548 485 560 489T581 504T597 531T603 573Q603 612 580 631T519 651Q481 651 454 632T410 581Q390
541 376 475T351 317L348 295H533V256H342Q335 215 327 179T305 113Q345 97 390 81T478 65Q509 65 529 70T561 87T580 114T592 153L630 146Q624 111 612 80T581 24T533 -14T467 -28ZM116 27Q148 27 171 39T213 86Q192 97 166 107T115 117Q89 117 75 105T60 71Q60
49 76 38T116 27Z" />
<glyph unicode="&#xa5;" glyph-name="yen" horiz-adv-x="598" d="M437 0H150V33Q167 35 183 39T206 48Q219 56 224 62T235 82Q238 93 239 112T241 156V202H67V241H241V310H67V349H217L100 540Q83 570 69 589T43 619T18 635T-10 644V677H278V644Q258 642 248 640T230
636Q213 630 206 621T200 598T208 567T228 528L324 364H329L419 510Q429 527 435 539T446 562T451 580T453 599Q453 618 447 625T426 637Q418 640 405 641T384 644V677H608V644Q585 641 567 630T532 600T499 557T463 502L370 349H520V310H346V241H520V202H346V156Q346
132 347 113T352 82Q357 68 362 62T381 48Q388 44 404 40T437 33V0Z" />
<glyph unicode="&#xa6;" glyph-name="brokenbar" horiz-adv-x="226" d="M85 361V766H141V361H85ZM85 -179V226H141V-179H85Z" />
<glyph unicode="&#xa7;" glyph-name="section" horiz-adv-x="543" d="M285 174Q314 152 343 132T394 85Q415 99 430 124T446 175Q446 205 437 227T406 272T350 319T265 381Q236 402 209 424T161 472Q135 460 120 438T105 378Q105 348 114 326T145 283T200 236T285
174ZM260 -204Q215 -204 183 -194T131 -168T102 -132T92 -93Q92 -75 103 -60T137 -44Q157 -44 168 -53T184 -77Q188 -88 188 -100T193 -124Q200 -140 213 -152T260 -165Q279 -165 297 -159T329 -139T352 -109T361 -68Q361 -37 347 -12T310 34T263 72T216 105Q174
135 140 159T81 208T43 263T30 336Q30 365 39 390T64 436T100 473T142 500Q120 539 120 590Q120 629 134 660T171 713T226 747T290 759Q335 759 367 751T419 728T448 695T458 658Q458 640 447 625T413 609Q393 609 382 618T366 642Q362 653 362 665T357 689Q352
702 338 711T290 720Q252 720 225 697T197 628Q197 597 210 571T244 523T288 483T334 450Q376 420 411 395T471 344T509 287T523 213Q523 189 515 166T492 122T457 85T415 57Q426 39 432 18T438 -30Q438 -69 423 -101T382 -156T325 -191T260 -204Z" />
<glyph unicode="&#xa8;" glyph-name="dieresis" horiz-adv-x="460" d="M139 611Q117 611 102 625T86 665Q86 689 101 704T139 719Q161 719 176 704T192 665Q192 640 177 626T139 611ZM322 611Q300 611 285 625T269 665Q269 689 284 704T322 719Q344 719 359 704T375
665Q375 640 360 626T322 611Z" />
<glyph unicode="&#xa9;" glyph-name="copyright" horiz-adv-x="982" d="M491 721Q582 721 662 686T802 591T897 451T932 281Q932 190 897 111T802 -28T662 -122T491 -157Q400 -157 320 -123T180 -28T85 112T50 283Q50 373 85 453T180 592T320 686T491 721ZM491
680Q408 680 337 650T214 566T131 440T101 283Q101 199 131 126T213 -1T337 -85T491 -116Q573 -116 644 -86T768 -2T851 124T881 281Q881 365 851 438T769 565T645 649T491 680ZM719 210Q707 174 690 140T646 80T582 37T492 21Q389 21 321 77Q279 112 256 164T232
283Q232 342 254 390T314 474T401 528T504 547Q536 547 559 542T599 530T627 513T648 496H657L679 534H705V329H669Q658 373 647 401T619 453Q609 466 599 477T575 495T545 507T504 511Q484 511 463 506T425 489Q408 478 393 461T366 420T347 362T339 283Q339 224
353 183T391 115Q414 91 443 80T506 68Q577 68 617 109T682 223L719 210Z" />
<glyph unicode="&#xaa;" glyph-name="ordfeminine" horiz-adv-x="373" d="M121 326Q105 326 90 331T62 348T43 377T35 420Q35 437 40 450T55 476Q70 493 91 504T136 524Q157 531 171 537T195 549T213 561T229 576V619Q229 649 218 662T178 676Q151 676 141 667Q135
661 132 654T124 626Q120 606 110 598T83 590Q69 590 59 597T49 623Q49 643 64 661Q71 670 84 678T113 691T145 699T177 702Q202 702 225 699T265 686T293 662T303 622V427Q303 395 304 384T312 366Q318 359 331 359Q342 359 353 363L358 342Q352 337 337 332T295
326Q269 326 256 335Q247 341 241 351T234 384H226Q213 363 187 345T121 326ZM230 539Q217 530 195 518T153 496Q145 492 137 486T120 469Q112 458 110 450T108 423Q108 393 122 380T158 367Q187 367 208 389T230 449V539Z" />
<glyph unicode="&#xab;" glyph-name="guillemotleft" horiz-adv-x="453" d="M396 409L423 383L317 246L423 110L396 84L224 233V260L396 409ZM208 409L235 383L129 246L235 110L208 84L36 233V260L208 409Z" />
<glyph unicode="&#xae;" glyph-name="registered" horiz-adv-x="625" d="M585 440Q585 384 564 335T505 249T418 190T312 168Q256 168 207 189T120 248T62 335T40 440Q40 495 61 544T120 631T206 689T312 711Q368 711 417 690T504 631T563 545T585 440ZM82 440Q82
392 100 350T149 275T222 225T312 206Q360 206 402 224T476 275T525 349T543 440Q543 487 525 529T476 604T403 654T312 673Q264 673 222 655T149 604T100 530T82 440ZM353 522Q353 554 344 564T313 574H271V468H298Q327 468 340 482T353 522ZM380 302Q372 310
365 327T355 365Q352 391 348 403T334 428Q326 437 318 440T290 444H271V379Q271 353 274 343Q276 338 278 333T286 326Q290 324 298 324T310 323V302H174V323Q178 323 185 323T197 326Q203 328 205 333T209 343Q211 348 211 357T211 378V521Q211 535 211 544T209
558Q207 564 205 568T197 574Q193 576 186 577T174 578V600H324Q369 600 392 581T415 526Q415 495 394 479T338 457V451Q353 449 365 447T386 438T401 418T412 383Q417 354 425 346T443 333Q449 329 458 327T476 323V302H380Z" />
<glyph unicode="&#xaf;" glyph-name="macron" horiz-adv-x="460" d="M102 606V659H356V606H102Z" />
<glyph unicode="&#xb0;" glyph-name="degree" horiz-adv-x="296" d="M266 577Q266 552 258 531T233 494T196 469T148 460Q122 460 101 469T63 493T39 530T30 577Q30 627 63 660T148 693Q200 693 233 660T266 577ZM220 577Q220 612 201 634T148 656Q114 656 95
634T76 577Q76 541 95 519T148 497Q182 497 201 519T220 577Z" />
<glyph unicode="&#xb4;" glyph-name="acute" horiz-adv-x="460" d="M122 596Q163 633 188 658T237 704Q260 725 277 737T317 749Q337 749 348 736T360 701Q360 666 302 640L140 568L122 596V596Z" />
<glyph unicode="&#xb6;" glyph-name="paragraph" horiz-adv-x="614" d="M512 662V-110H470V662H374V-110H331V237H291Q230 237 185 257T109 309T65 383T50 465Q50 507 67 549T117 624T197 677T306 698H604V662H512Z" />
<glyph unicode="&#xb7;" glyph-name="periodcentered" horiz-adv-x="256" d="M60 278Q60 305 78 325T129 345Q158 345 177 325T196 278Q196 248 177 229T129 209Q97 209 79 228T60 278Z" />
<glyph unicode="&#xb8;" glyph-name="cedilla" horiz-adv-x="460" d="M326 -117Q326 -163 289 -183T189 -203Q159 -203 136 -195T97 -176L115 -146Q129 -156 149 -163T188 -170Q214 -170 232 -160T251 -120Q251 -94 239 -84T209 -74Q185 -74 168 -88L136 -69L165
11H206L183 -52Q192 -47 207 -44T233 -40Q279 -40 302 -60T326 -117Z" />
<glyph unicode="&#xba;" glyph-name="ordmasculine" horiz-adv-x="426" d="M391 515Q391 467 376 432T336 374T279 339T213 327Q179 327 147 338T90 373T50 432T35 515Q35 562 50 597T90 655T147 690T213 702Q247 702 279 691T336 656T376 597T391 515ZM310 514Q310
565 297 605T258 662Q236 675 213 675Q190 675 168 662Q142 646 129 606T116 514Q116 463 129 424T168 368Q190 355 213 355Q236 355 258 368Q284 384 297 423T310 514Z" />
<glyph unicode="&#xbb;" glyph-name="guillemotright" horiz-adv-x="453" d="M417 233L245 84L218 110L324 246L218 383L245 409L417 260V233ZM229 233L57 84L30 110L136 246L30 383L57 409L229 260V233Z" />
<glyph unicode="&#xbc;" glyph-name="onequarter" horiz-adv-x="797" d="M575 175V334H569L440 175H575ZM729 0H506V27Q535 30 545 35Q555 40 561 47T571 67Q573 75 574 87T575 111V144H394V170L624 448H657Q661 448 661 443Q661 434 661 415T660 379V175H668Q696
175 707 180T728 195Q737 205 741 219T748 245H777V74H748Q746 87 742 101T728 124Q719 134 708 139T668 144H660V111Q660 99 661 87T664 67Q669 53 674 47T690 35Q695 33 705 31T729 27V0ZM35 283V310Q64 313 74 318Q84 323 90 330T100 350Q102 358 103 370T104
394V592Q104 612 104 624T100 647Q97 658 94 663T80 672Q70 676 54 676T24 678V706Q60 708 85 712T135 724Q146 727 159 731T181 736Q191 736 191 725Q191 720 191 707T190 675T190 637T189 596V394Q189 382 190 370T193 350Q198 336 203 330T219 318Q224 316 234
314T258 310V283H35ZM160 -31L125 -9L626 728L660 704L160 -31Z" />
<glyph unicode="&#xbd;" glyph-name="onehalf" horiz-adv-x="855" d="M35 283V310Q64 313 74 318Q84 323 90 330T100 350Q102 358 103 370T104 394V592Q104 612 104 624T100 647Q97 658 94 663T80 672Q70 676 54 676T24 678V706Q60 708 85 712T135 724Q146 727
159 731T181 736Q191 736 191 725Q191 720 191 707T190 675T190 637T189 596V394Q189 382 190 370T193 350Q198 336 203 330T219 318Q224 316 234 314T258 310V283H35ZM490 0L484 37L563 87Q597 111 626 135T678 187T713 249T726 329Q726 377 707 399T643 421Q611
421 591 410T570 382Q570 373 573 367T581 350Q587 338 587 321Q587 301 575 289T539 276Q515 276 501 292T486 335Q486 387 533 421T660 455Q695 455 724 446T774 420T806 380T818 331Q818 298 809 272T784 223T747 183T704 149Q685 135 661 118T601 79V72H709Q726
72 738 73T758 78T772 87T785 99Q796 111 801 120T812 138H840Q832 112 823 75T806 0H490ZM160 -31L125 -9L626 728L660 704L160 -31Z" />
<glyph unicode="&#xbe;" glyph-name="threequarters" horiz-adv-x="847" d="M625 175V334H619L490 175H625ZM779 0H556V27Q585 30 595 35Q605 40 611 47T621 67Q623 75 624 87T625 111V144H444V170L674 448H707Q711 448 711 443Q711 434 711 415T710 379V175H718Q746
175 757 180T778 195Q787 205 791 219T798 245H827V74H798Q796 87 792 101T778 124Q769 134 758 139T718 144H710V111Q710 99 711 87T714 67Q719 53 724 47T740 35Q745 33 755 31T779 27V0ZM196 706Q163 706 146 697T129 675Q129 667 131 662T139 646Q144 636 144
620Q144 602 133 591T101 579Q79 580 67 594T54 633Q54 654 65 673T95 706T140 729T198 738Q226 738 253 734T301 718T335 689T348 644Q348 624 340 609T318 581T284 557T242 534V529Q267 529 290 523T330 505T358 474T369 428Q369 396 355 368T314 319T252 286T172
273Q136 273 110 281T65 303T38 334T29 370Q29 393 42 406T75 419Q89 419 97 415T111 402Q120 388 120 371Q120 363 118 356T115 340Q115 323 128 314T172 305Q229 305 253 338T277 428Q277 464 263 483T221 503Q204 503 193 499T169 487L143 470L127 495L190 537Q208
549 221 559T244 582T258 609T263 644Q263 675 244 690T196 706ZM210 -31L175 -9L676 728L710 704L210 -31Z" />
<glyph unicode="&#xbf;" glyph-name="questiondown" horiz-adv-x="447" d="M254 451Q254 481 273 500T321 520Q353 520 371 501T390 451Q390 424 372 404T321 384Q292 384 273 404T254 451ZM33 0Q33 52 55 89T112 149T185 184T256 195H307V321H343V158H280Q245
158 218 143T173 100T145 35T135 -45Q135 -74 145 -97T171 -135T210 -159T256 -167Q274 -167 287 -158T306 -119Q311 -93 324 -78T365 -63Q388 -63 403 -75T419 -116Q419 -131 408 -146T377 -175T328 -196T262 -204Q217 -204 186 -195T128 -171Q87 -146 60 -106T33
0Z" />
<glyph unicode="&#xc0;" glyph-name="Agrave" horiz-adv-x="691" d="M444 755Q382 766 343 773T269 789Q258 792 245 795T221 806T203 823T196 849Q196 871 209 884T242 897Q266 897 282 889T327 864Q355 847 382 830T454 787L444 755ZM205 278H398L306 525H295L205
278ZM238 0H-4V36Q24 39 44 50Q53 55 62 65T80 90Q95 118 120 185L318 702H361L556 181Q567 152 576 132T596 97Q609 78 622 68T649 49Q658 45 666 42T686 36V0H369V36Q389 38 398 40T417 46Q432 53 442 61T453 94Q453 117 447 140T429 193L412 238H190L168 177Q159
153 156 136T153 101Q153 80 162 66T186 46Q195 42 209 40T238 36V0Z" />
<glyph unicode="&#xc1;" glyph-name="Aacute" horiz-adv-x="691" d="M224 787Q246 800 263 810T295 830T323 847T351 864Q379 881 395 889T436 897Q456 897 469 884T482 849Q482 833 475 823T457 806T433 796T409 789Q375 781 336 774T234 755L224 787V787ZM205
278H398L306 525H295L205 278ZM238 0H-4V36Q24 39 44 50Q53 55 62 65T80 90Q95 118 120 185L318 702H361L556 181Q567 152 576 132T596 97Q609 78 622 68T649 49Q658 45 666 42T686 36V0H369V36Q389 38 398 40T417 46Q432 53 442 61T453 94Q453 117 447 140T429
193L412 238H190L168 177Q159 153 156 136T153 101Q153 80 162 66T186 46Q195 42 209 40T238 36V0Z" />
<glyph unicode="&#xc2;" glyph-name="Acircumflex" horiz-adv-x="691" d="M458 755L336 818L214 755L195 783L310 888H362L477 783L458 755ZM205 278H398L306 525H295L205 278ZM238 0H-4V36Q24 39 44 50Q53 55 62 65T80 90Q95 118 120 185L318 702H361L556 181Q567
152 576 132T596 97Q609 78 622 68T649 49Q658 45 666 42T686 36V0H369V36Q389 38 398 40T417 46Q432 53 442 61T453 94Q453 117 447 140T429 193L412 238H190L168 177Q159 153 156 136T153 101Q153 80 162 66T186 46Q195 42 209 40T238 36V0Z" />
<glyph unicode="&#xc3;" glyph-name="Atilde" horiz-adv-x="691" d="M503 863Q490 821 463 793T401 764Q382 764 367 768T337 778T309 788T281 793Q265 793 250 781T227 748L197 759Q203 776 212 794T233 827T259 851T291 861Q309 861 324 857T355 847T384 837T415
832Q438 832 451 842T473 874L503 863V863ZM205 278H398L306 525H295L205 278ZM238 0H-4V36Q24 39 44 50Q53 55 62 65T80 90Q95 118 120 185L318 702H361L556 181Q567 152 576 132T596 97Q609 78 622 68T649 49Q658 45 666 42T686 36V0H369V36Q389 38 398 40T417
46Q432 53 442 61T453 94Q453 117 447 140T429 193L412 238H190L168 177Q159 153 156 136T153 101Q153 80 162 66T186 46Q195 42 209 40T238 36V0Z" />
<glyph unicode="&#xc4;" glyph-name="Adieresis" horiz-adv-x="691" d="M244 750Q221 750 205 765T189 806Q189 832 205 847T244 862Q267 862 283 847T299 806Q299 780 283 765T244 750ZM445 750Q422 750 406 765T390 806Q390 832 406 847T445 862Q468 862 484
847T500 806Q500 780 484 765T445 750ZM205 278H398L306 525H295L205 278ZM238 0H-4V36Q24 39 44 50Q53 55 62 65T80 90Q95 118 120 185L318 702H361L556 181Q567 152 576 132T596 97Q609 78 622 68T649 49Q658 45 666 42T686 36V0H369V36Q389 38 398 40T417 46Q432
53 442 61T453 94Q453 117 447 140T429 193L412 238H190L168 177Q159 153 156 136T153 101Q153 80 162 66T186 46Q195 42 209 40T238 36V0Z" />
<glyph unicode="&#xc5;" glyph-name="Aring" horiz-adv-x="691" d="M426 830Q426 809 419 792T399 764T370 747T336 741Q319 741 303 747T274 764T254 792T246 830Q246 852 253 868T273 896T302 914T336 920Q371 920 398 897T426 830ZM279 830Q279 801 295 785T336
769Q360 769 376 785T393 830Q393 859 377 875T336 892Q312 892 296 876T279 830ZM205 278H398L306 525H295L205 278ZM238 0H-4V36Q24 39 44 50Q53 55 62 65T80 90Q95 118 120 185L318 702H361L556 181Q567 152 576 132T596 97Q609 78 622 68T649 49Q658 45 666
42T686 36V0H369V36Q389 38 398 40T417 46Q432 53 442 61T453 94Q453 117 447 140T429 193L412 238H190L168 177Q159 153 156 136T153 101Q153 80 162 66T186 46Q195 42 209 40T238 36V0Z" />
<glyph unicode="&#xc6;" glyph-name="AE" horiz-adv-x="924" d="M429 619L243 298H437V619H429ZM227 0H-23V36Q-8 38 3 43T25 54Q41 65 63 91Q75 106 89 126T126 185L395 646Q390 649 385 651T373 656Q358 661 335 662V698H837L868 525H834Q824 543 816 557T800
582T782 604T759 625Q745 637 715 649T639 662H610Q596 662 583 659T561 644Q552 633 551 620T549 586V379H595Q630 379 651 385T688 406Q709 425 714 446T723 491H756V230H723Q720 255 714 277T686 318Q671 332 650 337T595 342H549V154Q549 117 553 94T571 56Q582
44 602 40T650 36H668Q706 36 731 50T779 84Q812 114 826 140T855 196H887L856 0H335V36Q359 38 373 43Q390 48 401 57T422 83Q426 92 429 102T434 124T436 153T437 193V258H220L174 179Q160 155 153 134T145 95Q145 74 153 63T176 46Q184 42 198 40T227 36V0Z"
/>
<glyph unicode="&#xc7;" glyph-name="Ccedilla" horiz-adv-x="679" d="M505 -137Q505 -183 468 -203T368 -223Q338 -223 315 -215T276 -196L294 -166Q308 -176 328 -183T367 -190Q393 -190 411 -180T430 -140Q430 -114 418 -104T388 -94Q364 -94 347 -108L315
-89L342 -13Q280 -10 228 13Q169 40 126 88T60 202T37 349Q37 428 65 494T139 609T246 684T371 711Q411 711 441 706T494 692T532 674T559 653H567L601 699H623V460H585Q572 514 554 549T518 606Q505 621 493 633T464 653T426 666T371 670Q345 670 320 665T272
645Q249 631 228 609T192 552T167 468T158 349Q158 284 165 239T186 164T219 113T260 78Q288 58 316 51T392 43Q463 43 522 74T616 174L646 157Q627 119 602 88T542 34T463 -1Q427 -11 383 -13L362 -72Q371 -67 386 -64T412 -60Q458 -60 481 -80T505 -137Z" />
<glyph unicode="&#xc8;" glyph-name="Egrave" horiz-adv-x="644" d="M436 755Q374 766 335 773T261 789Q250 792 237 795T213 806T195 823T188 849Q188 871 201 884T234 897Q258 897 274 889T319 864Q347 847 374 830T446 787L436 755ZM576 0H35V36Q59 38 73 43Q90
48 101 57T122 83Q126 92 129 102T134 124T136 153T137 193V505Q137 529 137 545T134 574T129 596T122 616Q113 633 102 641T73 656Q58 661 35 662V698H557L588 525H554Q544 543 536 557T520 582T502 604T479 625Q465 637 435 649T359 662H310Q296 662 283 659T261
644Q252 633 251 620T249 586V379H295Q330 379 351 385T388 406Q409 425 414 446T423 491H456V230H423Q420 255 414 277T386 318Q371 332 350 337T295 342H249V154Q249 117 253 94T271 56Q282 44 302 40T350 36H368Q396 36 415 40T450 50T476 65T499 84Q532 114
546 140T575 196H607L576 0Z" />
<glyph unicode="&#xc9;" glyph-name="Eacute" horiz-adv-x="644" d="M237 787Q259 800 276 810T308 830T336 847T364 864Q392 881 408 889T449 897Q469 897 482 884T495 849Q495 833 488 823T470 806T446 796T422 789Q388 781 349 774T247 755L237 787V787ZM576
0H35V36Q59 38 73 43Q90 48 101 57T122 83Q126 92 129 102T134 124T136 153T137 193V505Q137 529 137 545T134 574T129 596T122 616Q113 633 102 641T73 656Q58 661 35 662V698H557L588 525H554Q544 543 536 557T520 582T502 604T479 625Q465 637 435 649T359 662H310Q296
662 283 659T261 644Q252 633 251 620T249 586V379H295Q330 379 351 385T388 406Q409 425 414 446T423 491H456V230H423Q420 255 414 277T386 318Q371 332 350 337T295 342H249V154Q249 117 253 94T271 56Q282 44 302 40T350 36H368Q396 36 415 40T450 50T476 65T499
84Q532 114 546 140T575 196H607L576 0Z" />
<glyph unicode="&#xca;" glyph-name="Ecircumflex" horiz-adv-x="644" d="M450 755L328 818L206 755L187 783L302 888H354L469 783L450 755ZM576 0H35V36Q59 38 73 43Q90 48 101 57T122 83Q126 92 129 102T134 124T136 153T137 193V505Q137 529 137 545T134 574T129
596T122 616Q113 633 102 641T73 656Q58 661 35 662V698H557L588 525H554Q544 543 536 557T520 582T502 604T479 625Q465 637 435 649T359 662H310Q296 662 283 659T261 644Q252 633 251 620T249 586V379H295Q330 379 351 385T388 406Q409 425 414 446T423 491H456V230H423Q420
255 414 277T386 318Q371 332 350 337T295 342H249V154Q249 117 253 94T271 56Q282 44 302 40T350 36H368Q396 36 415 40T450 50T476 65T499 84Q532 114 546 140T575 196H607L576 0Z" />
<glyph unicode="&#xcb;" glyph-name="Edieresis" horiz-adv-x="644" d="M218 750Q195 750 179 765T163 806Q163 832 179 847T218 862Q241 862 257 847T273 806Q273 780 257 765T218 750ZM419 750Q396 750 380 765T364 806Q364 832 380 847T419 862Q442 862 458
847T474 806Q474 780 458 765T419 750ZM576 0H35V36Q59 38 73 43Q90 48 101 57T122 83Q126 92 129 102T134 124T136 153T137 193V505Q137 529 137 545T134 574T129 596T122 616Q113 633 102 641T73 656Q58 661 35 662V698H557L588 525H554Q544 543 536 557T520
582T502 604T479 625Q465 637 435 649T359 662H310Q296 662 283 659T261 644Q252 633 251 620T249 586V379H295Q330 379 351 385T388 406Q409 425 414 446T423 491H456V230H423Q420 255 414 277T386 318Q371 332 350 337T295 342H249V154Q249 117 253 94T271 56Q282
44 302 40T350 36H368Q396 36 415 40T450 50T476 65T499 84Q532 114 546 140T575 196H607L576 0Z" />
<glyph unicode="&#xcc;" glyph-name="Igrave" horiz-adv-x="387" d="M314 755Q252 766 213 773T139 789Q128 792 115 795T91 806T73 823T66 849Q66 871 79 884T112 897Q136 897 152 889T197 864Q225 847 252 830T324 787L314 755ZM250 193Q250 170 250 154T253
125T257 102T265 83Q274 66 286 58T314 43Q328 38 352 36V0H35V36Q58 37 73 43Q90 49 101 57T122 83Q126 92 129 102T134 124T136 153T137 193V505Q137 529 137 545T134 574T129 596T122 616Q113 633 102 642T73 656Q58 661 35 662V698H352V662Q329 661 314 656Q297
651 286 642T265 616Q260 606 258 597T253 575T251 546T250 505V193Z" />
<glyph unicode="&#xcd;" glyph-name="Iacute" horiz-adv-x="387" d="M78 787Q100 800 117 810T149 830T177 847T205 864Q233 881 249 889T290 897Q310 897 323 884T336 849Q336 833 329 823T311 806T287 796T263 789Q229 781 190 774T88 755L78 787V787ZM250 193Q250
170 250 154T253 125T257 102T265 83Q274 66 286 58T314 43Q328 38 352 36V0H35V36Q58 37 73 43Q90 49 101 57T122 83Q126 92 129 102T134 124T136 153T137 193V505Q137 529 137 545T134 574T129 596T122 616Q113 633 102 642T73 656Q58 661 35 662V698H352V662Q329
661 314 656Q297 651 286 642T265 616Q260 606 258 597T253 575T251 546T250 505V193Z" />
<glyph unicode="&#xce;" glyph-name="Icircumflex" horiz-adv-x="387" d="M315 755L193 818L71 755L52 783L167 888H219L334 783L315 755ZM250 193Q250 170 250 154T253 125T257 102T265 83Q274 66 286 58T314 43Q328 38 352 36V0H35V36Q58 37 73 43Q90 49 101
57T122 83Q126 92 129 102T134 124T136 153T137 193V505Q137 529 137 545T134 574T129 596T122 616Q113 633 102 642T73 656Q58 661 35 662V698H352V662Q329 661 314 656Q297 651 286 642T265 616Q260 606 258 597T253 575T251 546T250 505V193Z" />
<glyph unicode="&#xcf;" glyph-name="Idieresis" horiz-adv-x="387" d="M93 750Q70 750 54 765T38 806Q38 832 54 847T93 862Q116 862 132 847T148 806Q148 780 132 765T93 750ZM294 750Q271 750 255 765T239 806Q239 832 255 847T294 862Q317 862 333 847T349
806Q349 780 333 765T294 750ZM250 193Q250 170 250 154T253 125T257 102T265 83Q274 66 286 58T314 43Q328 38 352 36V0H35V36Q58 37 73 43Q90 49 101 57T122 83Q126 92 129 102T134 124T136 153T137 193V505Q137 529 137 545T134 574T129 596T122 616Q113 633
102 642T73 656Q58 661 35 662V698H352V662Q329 661 314 656Q297 651 286 642T265 616Q260 606 258 597T253 575T251 546T250 505V193Z" />
<glyph unicode="&#xd0;" glyph-name="Eth" horiz-adv-x="748" d="M36 375H137V505Q137 529 137 545T134 574T129 596T122 616Q113 633 102 641T73 656Q58 661 35 662V698H348Q411 698 458 687T538 656Q574 636 606 607T662 540T699 454T713 350Q713 292 701 245T666
159T612 91T544 41Q511 23 466 12T375 0H35V36Q59 38 73 43Q90 48 101 57T122 83Q126 92 129 102T134 124T136 153T137 193V335H36V375ZM598 348Q598 449 572 513T504 614Q474 640 430 651T344 662H278Q270 662 266 661T256 655Q250 649 250 630V375H409V335H250V154Q250
117 254 94T272 56Q283 44 303 40T351 36H365Q400 36 439 49T508 89Q528 109 544 133T573 188T591 258T598 348Z" />
<glyph unicode="&#xd1;" glyph-name="Ntilde" horiz-adv-x="773" d="M582 863Q569 821 542 793T480 764Q461 764 446 768T416 778T388 788T360 793Q344 793 329 781T306 748L276 759Q282 776 291 794T312 827T338 851T370 861Q388 861 403 857T434 847T463 837T494
832Q517 832 530 842T552 874L582 863V863ZM603 -8L207 571H197V170Q197 128 202 109T216 76Q226 62 236 56T260 44Q271 41 280 40T303 36V0H38V36Q49 37 59 38T78 42Q92 46 102 52T124 73Q136 87 142 107T149 170V461Q149 519 143 549T128 599Q120 616 108 627T69
653Q54 660 29 662V698H257L597 194H606V527Q606 569 601 590T583 626Q571 640 560 645T535 655Q527 658 514 659T490 662V698H760V662Q746 660 737 658T717 653Q703 649 693 642T674 621Q664 608 659 589T654 527V-8H603Z" />
<glyph unicode="&#xd2;" glyph-name="Ograve" horiz-adv-x="746" d="M493 755Q431 766 392 773T318 789Q307 792 294 795T270 806T252 823T245 849Q245 871 258 884T291 897Q315 897 331 889T376 864Q404 847 431 830T503 787L493 755ZM373 711Q442 711 503 684T609
609T682 495T709 349Q709 269 682 203T610 88T503 13T373 -14Q304 -14 243 13T137 88T64 202T37 349Q37 428 64 494T136 609T243 684T373 711ZM373 27Q431 27 477 56Q498 70 518 91T553 147T578 230T587 349Q587 418 578 467T554 550T518 605T477 641Q431 670 373
670Q315 670 269 641Q248 627 228 606T193 550T169 467T160 349Q160 280 169 231T193 147T228 92T269 56Q315 27 373 27Z" />
<glyph unicode="&#xd3;" glyph-name="Oacute" horiz-adv-x="746" d="M252 787Q274 800 291 810T323 830T351 847T379 864Q407 881 423 889T464 897Q484 897 497 884T510 849Q510 833 503 823T485 806T461 796T437 789Q403 781 364 774T262 755L252 787V787ZM373
711Q442 711 503 684T609 609T682 495T709 349Q709 269 682 203T610 88T503 13T373 -14Q304 -14 243 13T137 88T64 202T37 349Q37 428 64 494T136 609T243 684T373 711ZM373 27Q431 27 477 56Q498 70 518 91T553 147T578 230T587 349Q587 418 578 467T554 550T518
605T477 641Q431 670 373 670Q315 670 269 641Q248 627 228 606T193 550T169 467T160 349Q160 280 169 231T193 147T228 92T269 56Q315 27 373 27Z" />
<glyph unicode="&#xd4;" glyph-name="Ocircumflex" horiz-adv-x="746" d="M492 755L370 818L248 755L229 783L344 888H396L511 783L492 755ZM373 711Q442 711 503 684T609 609T682 495T709 349Q709 269 682 203T610 88T503 13T373 -14Q304 -14 243 13T137 88T64
202T37 349Q37 428 64 494T136 609T243 684T373 711ZM373 27Q431 27 477 56Q498 70 518 91T553 147T578 230T587 349Q587 418 578 467T554 550T518 605T477 641Q431 670 373 670Q315 670 269 641Q248 627 228 606T193 550T169 467T160 349Q160 280 169 231T193
147T228 92T269 56Q315 27 373 27Z" />
<glyph unicode="&#xd5;" glyph-name="Otilde" horiz-adv-x="746" d="M527 863Q514 821 487 793T425 764Q406 764 391 768T361 778T333 788T305 793Q289 793 274 781T251 748L221 759Q227 776 236 794T257 827T283 851T315 861Q333 861 348 857T379 847T408 837T439
832Q462 832 475 842T497 874L527 863V863ZM373 711Q442 711 503 684T609 609T682 495T709 349Q709 269 682 203T610 88T503 13T373 -14Q304 -14 243 13T137 88T64 202T37 349Q37 428 64 494T136 609T243 684T373 711ZM373 27Q431 27 477 56Q498 70 518 91T553
147T578 230T587 349Q587 418 578 467T554 550T518 605T477 641Q431 670 373 670Q315 670 269 641Q248 627 228 606T193 550T169 467T160 349Q160 280 169 231T193 147T228 92T269 56Q315 27 373 27Z" />
<glyph unicode="&#xd6;" glyph-name="Odieresis" horiz-adv-x="746" d="M267 750Q244 750 228 765T212 806Q212 832 228 847T267 862Q290 862 306 847T322 806Q322 780 306 765T267 750ZM468 750Q445 750 429 765T413 806Q413 832 429 847T468 862Q491 862 507
847T523 806Q523 780 507 765T468 750ZM373 711Q442 711 503 684T609 609T682 495T709 349Q709 269 682 203T610 88T503 13T373 -14Q304 -14 243 13T137 88T64 202T37 349Q37 428 64 494T136 609T243 684T373 711ZM373 27Q431 27 477 56Q498 70 518 91T553 147T578
230T587 349Q587 418 578 467T554 550T518 605T477 641Q431 670 373 670Q315 670 269 641Q248 627 228 606T193 550T169 467T160 349Q160 280 169 231T193 147T228 92T269 56Q315 27 373 27Z" />
<glyph unicode="&#xd7;" glyph-name="multiply" horiz-adv-x="469" d="M235 275L91 131L61 160L206 305L61 449L91 478L235 334L379 478L408 448L265 305L408 161L379 131L235 275Z" />
<glyph unicode="&#xd8;" glyph-name="Oslash" horiz-adv-x="746" d="M160 349Q160 264 173 210T207 121L507 618Q499 625 492 630T477 641Q431 670 373 670Q315 670 269 641Q248 627 228 606T193 550T169 467T160 349ZM373 27Q431 27 477 56Q498 70 518 91T553
147T578 230T587 349Q587 439 572 494T534 585L233 86Q251 68 269 56Q315 27 373 27ZM373 -14Q326 -14 283 -2T202 34L146 -59L110 -40L169 58Q109 106 73 180T37 349Q37 428 64 494T136 609T243 684T373 711Q418 711 459 700T536 667L593 761L628 741L570 645Q633
597 671 521T709 349Q709 269 682 203T610 88T503 13T373 -14Z" />
<glyph unicode="&#xd9;" glyph-name="Ugrave" horiz-adv-x="752" d="M511 755Q449 766 410 773T336 789Q325 792 312 795T288 806T270 823T263 849Q263 871 276 884T309 897Q333 897 349 889T394 864Q422 847 449 830T521 787L511 755ZM638 234Q638 180 631 143T600
72Q574 33 522 10T386 -13Q345 -13 305 -6T229 17T168 57T128 117Q122 132 119 151T113 190T110 229T109 263V505Q109 529 109 545T107 574T102 596T94 615Q86 632 75 641T46 656Q31 660 7 662V698H325V662Q300 660 287 656Q270 650 259 641T238 615Q233 606 230
597T225 575T223 546T222 506V224Q222 201 225 178T236 128Q245 99 260 80T296 50T342 34T395 29Q524 29 564 96Q579 121 585 152T591 228V527Q591 570 585 591T567 626Q555 640 545 645T520 656Q512 658 499 659T475 662V698H744V662Q718 659 701 654Q687 649
677 643T657 622Q647 609 643 590T638 527V234V234Z" />
<glyph unicode="&#xda;" glyph-name="Uacute" horiz-adv-x="752" d="M292 787Q314 800 331 810T363 830T391 847T419 864Q447 881 463 889T504 897Q524 897 537 884T550 849Q550 833 543 823T525 806T501 796T477 789Q443 781 404 774T302 755L292 787V787ZM638
234Q638 180 631 143T600 72Q574 33 522 10T386 -13Q345 -13 305 -6T229 17T168 57T128 117Q122 132 119 151T113 190T110 229T109 263V505Q109 529 109 545T107 574T102 596T94 615Q86 632 75 641T46 656Q31 660 7 662V698H325V662Q300 660 287 656Q270 650 259
641T238 615Q233 606 230 597T225 575T223 546T222 506V224Q222 201 225 178T236 128Q245 99 260 80T296 50T342 34T395 29Q524 29 564 96Q579 121 585 152T591 228V527Q591 570 585 591T567 626Q555 640 545 645T520 656Q512 658 499 659T475 662V698H744V662Q718
659 701 654Q687 649 677 643T657 622Q647 609 643 590T638 527V234V234Z" />
<glyph unicode="&#xdb;" glyph-name="Ucircumflex" horiz-adv-x="752" d="M523 755L401 818L279 755L260 783L375 888H427L542 783L523 755ZM638 234Q638 180 631 143T600 72Q574 33 522 10T386 -13Q345 -13 305 -6T229 17T168 57T128 117Q122 132 119 151T113
190T110 229T109 263V505Q109 529 109 545T107 574T102 596T94 615Q86 632 75 641T46 656Q31 660 7 662V698H325V662Q300 660 287 656Q270 650 259 641T238 615Q233 606 230 597T225 575T223 546T222 506V224Q222 201 225 178T236 128Q245 99 260 80T296 50T342
34T395 29Q524 29 564 96Q579 121 585 152T591 228V527Q591 570 585 591T567 626Q555 640 545 645T520 656Q512 658 499 659T475 662V698H744V662Q718 659 701 654Q687 649 677 643T657 622Q647 609 643 590T638 527V234V234Z" />
<glyph unicode="&#xdc;" glyph-name="Udieresis" horiz-adv-x="752" d="M303 750Q280 750 264 765T248 806Q248 832 264 847T303 862Q326 862 342 847T358 806Q358 780 342 765T303 750ZM504 750Q481 750 465 765T449 806Q449 832 465 847T504 862Q527 862 543
847T559 806Q559 780 543 765T504 750ZM638 234Q638 180 631 143T600 72Q574 33 522 10T386 -13Q345 -13 305 -6T229 17T168 57T128 117Q122 132 119 151T113 190T110 229T109 263V505Q109 529 109 545T107 574T102 596T94 615Q86 632 75 641T46 656Q31 660 7 662V698H325V662Q300
660 287 656Q270 650 259 641T238 615Q233 606 230 597T225 575T223 546T222 506V224Q222 201 225 178T236 128Q245 99 260 80T296 50T342 34T395 29Q524 29 564 96Q579 121 585 152T591 228V527Q591 570 585 591T567 626Q555 640 545 645T520 656Q512 658 499
659T475 662V698H744V662Q718 659 701 654Q687 649 677 643T657 622Q647 609 643 590T638 527V234V234Z" />
<glyph unicode="&#xdd;" glyph-name="Yacute" horiz-adv-x="646" d="M228 787Q250 800 267 810T299 830T327 847T355 864Q383 881 399 889T440 897Q460 897 473 884T486 849Q486 833 479 823T461 806T437 796T413 789Q379 781 340 774T238 755L228 787V787ZM106
555Q88 586 74 605T47 636T21 653T-8 662V698H299V662Q262 659 245 654Q210 642 213 615T243 542L355 357H361L459 524Q480 558 486 577T492 616Q492 633 486 641T465 655Q457 658 444 659T422 662V698H652V662Q625 659 606 649T571 622T539 578T503 516L375 297V193Q375
170 375 154T377 125T381 102T389 83Q398 66 410 58T438 43Q448 39 456 38T476 36V0H160V36Q172 37 180 38T198 43Q214 48 226 57T247 83Q252 92 255 102T259 124T261 153T262 193V298L106 555Z" />
<glyph unicode="&#xde;" glyph-name="Thorn" horiz-adv-x="599" d="M352 0H35V36Q58 37 73 43Q90 49 101 57T122 83Q126 92 129 102T134 124T136 153T137 193V505Q137 529 137 545T134 574T129 596T122 616Q113 633 102 642T73 656Q58 661 35 662V698H352V662Q329
661 314 656Q297 651 286 642T265 616Q258 601 255 586T251 545H328Q382 545 428 535T507 505T560 452T579 377Q579 318 559 284T501 226Q474 209 428 198T313 187H250Q250 165 250 150T253 122T257 101T265 83Q274 66 286 58T314 43Q328 38 352 36V0ZM250 226H319Q361
226 392 235T444 271Q458 291 464 316T470 372Q470 443 437 475T323 508H279Q262 508 256 501Q254 498 252 493T250 479V226Z" />
<glyph unicode="&#xdf;" glyph-name="germandbls" horiz-adv-x="653" d="M638 142Q638 106 626 78T593 31T543 1T480 -10Q439 -10 413 7T371 49H362L346 2H318L312 183H345Q365 109 398 69T480 28Q522 28 538 48T554 104Q554 121 547 133T525 158T489 182T440
211Q414 226 391 242T349 276T319 317T308 368Q308 396 317 417T341 454T372 485T404 513Q427 533 438 557T450 618Q450 639 445 657T426 690T392 712T339 720Q316 720 293 714T251 691T220 646T208 575V138Q208 122 208 109T212 85Q216 70 222 60T244 42Q250 40
263 38T286 34V0H30V34Q40 35 51 37T68 42Q96 56 103 85Q105 96 105 109T106 138V463H28V505H106V551Q106 611 128 650T185 713Q221 739 262 749T339 759Q436 759 487 723T538 633Q538 603 528 582T502 543T468 511T434 484Q414 466 401 451T388 413Q388 394 392
382T407 359T437 336T487 305Q515 287 542 272T591 240T625 199T638 142Z" />
<glyph unicode="&#xe0;" glyph-name="agrave" horiz-adv-x="500" d="M492 14Q484 9 457 0T399 -10Q377 -10 364 -7T342 3Q331 11 324 25T313 66H302Q297 56 287 43T261 18T222 -2T169 -10Q105 -10 68 22T30 120Q30 142 39 166T68 210Q95 234 123 245T195 269Q243
283 266 295T299 324V413Q299 449 285 464T238 480Q206 480 184 467Q176 461 168 449T156 413Q149 364 106 364Q86 364 73 376T60 410Q60 441 83 464Q102 484 142 501T237 518Q315 518 358 495T401 411V135Q401 115 401 102T403 80T407 66T411 56Q420 37 446 37Q455
37 466 39T483 44L492 14ZM299 282Q291 274 272 264T227 243Q203 232 185 222T155 199Q144 185 136 169T127 124Q127 100 134 84T151 59T175 46T203 42Q238 42 263 60T299 111V282ZM331 568L169 640Q111 666 111 701Q111 723 122 736T154 749Q176 749 193 737T234
704Q257 683 282 658T349 596L331 568Z" />
<glyph unicode="&#xe1;" glyph-name="aacute" horiz-adv-x="500" d="M492 14Q484 9 457 0T399 -10Q377 -10 364 -7T342 3Q331 11 324 25T313 66H302Q297 56 287 43T261 18T222 -2T169 -10Q105 -10 68 22T30 120Q30 142 39 166T68 210Q95 234 123 245T195 269Q243
283 266 295T299 324V413Q299 449 285 464T238 480Q206 480 184 467Q176 461 168 449T156 413Q149 364 106 364Q86 364 73 376T60 410Q60 441 83 464Q102 484 142 501T237 518Q315 518 358 495T401 411V135Q401 115 401 102T403 80T407 66T411 56Q420 37 446 37Q455
37 466 39T483 44L492 14ZM299 282Q291 274 272 264T227 243Q203 232 185 222T155 199Q144 185 136 169T127 124Q127 100 134 84T151 59T175 46T203 42Q238 42 263 60T299 111V282ZM374 596Q415 633 440 658T489 704Q512 725 529 737T569 749Q589 749 600 736T612
701Q612 666 554 640L392 568L374 596V596Z" />
<glyph unicode="&#xe2;" glyph-name="acircumflex" horiz-adv-x="500" d="M492 14Q484 9 457 0T399 -10Q377 -10 364 -7T342 3Q331 11 324 25T313 66H302Q297 56 287 43T261 18T222 -2T169 -10Q105 -10 68 22T30 120Q30 142 39 166T68 210Q95 234 123 245T195
269Q243 283 266 295T299 324V413Q299 449 285 464T238 480Q206 480 184 467Q176 461 168 449T156 413Q149 364 106 364Q86 364 73 376T60 410Q60 441 83 464Q102 484 142 501T237 518Q315 518 358 495T401 411V135Q401 115 401 102T403 80T407 66T411 56Q420 37
446 37Q455 37 466 39T483 44L492 14ZM299 282Q291 274 272 264T227 243Q203 232 185 222T155 199Q144 185 136 169T127 124Q127 100 134 84T151 59T175 46T203 42Q238 42 263 60T299 111V282ZM346 816L234 903L122 816L95 841L210 973H258L373 841L346 816Z" />
<glyph unicode="&#xe3;" glyph-name="atilde" horiz-adv-x="500" d="M492 14Q484 9 457 0T399 -10Q377 -10 364 -7T342 3Q331 11 324 25T313 66H302Q297 56 287 43T261 18T222 -2T169 -10Q105 -10 68 22T30 120Q30 142 39 166T68 210Q95 234 123 245T195 269Q243
283 266 295T299 324V413Q299 449 285 464T238 480Q206 480 184 467Q176 461 168 449T156 413Q149 364 106 364Q86 364 73 376T60 410Q60 441 83 464Q102 484 142 501T237 518Q315 518 358 495T401 411V135Q401 115 401 102T403 80T407 66T411 56Q420 37 446 37Q455
37 466 39T483 44L492 14ZM299 282Q291 274 272 264T227 243Q203 232 185 222T155 199Q144 185 136 169T127 124Q127 100 134 84T151 59T175 46T203 42Q238 42 263 60T299 111V282ZM390 703Q377 661 350 633T288 604Q269 604 254 608T224 618T196 628T168 633Q152
633 137 621T114 588L84 599Q90 616 99 634T120 667T146 691T178 701Q196 701 211 697T242 687T271 677T302 672Q325 672 338 682T360 714L390 703V703Z" />
<glyph unicode="&#xe4;" glyph-name="adieresis" horiz-adv-x="500" d="M492 14Q484 9 457 0T399 -10Q377 -10 364 -7T342 3Q331 11 324 25T313 66H302Q297 56 287 43T261 18T222 -2T169 -10Q105 -10 68 22T30 120Q30 142 39 166T68 210Q95 234 123 245T195 269Q243
283 266 295T299 324V413Q299 449 285 464T238 480Q206 480 184 467Q176 461 168 449T156 413Q149 364 106 364Q86 364 73 376T60 410Q60 441 83 464Q102 484 142 501T237 518Q315 518 358 495T401 411V135Q401 115 401 102T403 80T407 66T411 56Q420 37 446 37Q455
37 466 39T483 44L492 14ZM299 282Q291 274 272 264T227 243Q203 232 185 222T155 199Q144 185 136 169T127 124Q127 100 134 84T151 59T175 46T203 42Q238 42 263 60T299 111V282ZM142 847Q120 847 105 861T89 901Q89 925 104 940T142 955Q164 955 179 940T195
901Q195 876 180 862T142 847ZM325 847Q303 847 288 861T272 901Q272 925 287 940T325 955Q347 955 362 940T378 901Q378 876 363 862T325 847Z" />
<glyph unicode="&#xe5;" glyph-name="aring" horiz-adv-x="500" d="M492 14Q484 9 457 0T399 -10Q377 -10 364 -7T342 3Q331 11 324 25T313 66H302Q297 56 287 43T261 18T222 -2T169 -10Q105 -10 68 22T30 120Q30 142 39 166T68 210Q95 234 123 245T195 269Q243
283 266 295T299 324V413Q299 449 285 464T238 480Q206 480 184 467Q176 461 168 449T156 413Q149 364 106 364Q86 364 73 376T60 410Q60 441 83 464Q102 484 142 501T237 518Q315 518 358 495T401 411V135Q401 115 401 102T403 80T407 66T411 56Q420 37 446 37Q455
37 466 39T483 44L492 14ZM299 282Q291 274 272 264T227 243Q203 232 185 222T155 199Q144 185 136 169T127 124Q127 100 134 84T151 59T175 46T203 42Q238 42 263 60T299 111V282ZM323 655Q323 634 316 617T296 589T267 572T233 566Q216 566 200 572T171 589T151
617T143 655Q143 677 150 693T170 721T199 739T233 745Q268 745 295 722T323 655ZM176 655Q176 626 192 610T233 594Q257 594 273 610T290 655Q290 684 274 700T233 717Q209 717 193 701T176 655Z" />
<glyph unicode="&#xe6;" glyph-name="ae" horiz-adv-x="768" d="M524 -10Q497 -10 473 -4T430 11T395 32T369 53Q355 67 348 77T329 106H323Q314 74 298 52T260 17T215 -2T165 -8Q137 -8 113 0T70 25T41 66T30 122Q30 144 38 168T67 211Q80 223 93 231T122 246T154
258T194 270Q241 283 264 296T298 325V417Q298 452 284 467T240 482Q223 482 209 479T183 468Q174 462 166 449T155 413Q151 388 139 378T103 367Q84 367 72 380T59 413Q59 444 80 465Q100 486 144 502T238 518Q323 518 369 458H377Q387 470 404 481T441 500T483
513T524 518Q580 518 619 500T682 453T717 392T728 328Q728 311 728 295T725 270H399Q399 207 409 157T450 75Q467 57 488 46T543 34Q579 34 605 44T650 70T682 108T704 153L734 139Q710 74 657 32T524 -10ZM628 359Q628 392 622 416T601 457Q588 471 571 478T525
485Q506 485 487 479T451 458Q431 439 419 403T401 307H589Q611 307 619 318T628 359ZM299 280Q291 272 270 262T223 241Q199 230 181 221T151 197Q140 183 134 167T128 127Q128 79 150 61T200 43Q216 43 232 49T261 67T284 93T299 124V280Z" />
<glyph unicode="&#xe7;" glyph-name="ccedilla" horiz-adv-x="508" d="M426 -117Q426 -163 389 -183T289 -203Q259 -203 236 -195T197 -176L215 -146Q229 -156 249 -163T288 -170Q314 -170 332 -160T351 -120Q351 -94 339 -84T309 -74Q285 -74 268 -88L236 -69L257
-9Q223 -7 195 3Q159 16 127 40Q82 74 58 128T34 255Q34 316 54 365T109 448T189 500T284 518Q321 518 348 513T395 499T427 481T449 461Q461 447 466 434T472 408Q472 378 458 366T424 354Q396 354 384 371T363 417Q353 451 337 465T284 480Q264 480 244 474T208
456Q176 431 159 382T141 255Q141 177 160 132T211 60Q226 49 246 42T287 35Q326 35 354 45T401 70T432 106T452 147L487 134Q467 69 414 29Q368 -4 298 -9L283 -52Q292 -47 307 -44T333 -40Q379 -40 402 -60T426 -117Z" />
<glyph unicode="&#xe8;" glyph-name="egrave" horiz-adv-x="523" d="M489 139Q465 74 412 32T279 -10Q227 -10 188 5T119 47Q74 86 54 141T34 254Q34 312 54 360T108 444T186 498T277 518Q333 518 373 500T438 454T474 393T486 329Q486 312 485 296T482 271H145V254Q145
203 155 154T196 73Q213 55 237 45T296 34Q332 34 358 44T403 70T436 108T459 153L489 139ZM203 452Q195 444 187 433T170 405T156 365T147 308H349Q366 308 374 319T383 360Q383 395 378 414T358 450Q345 465 326 472T278 479Q259 479 240 473T203 452ZM362 568L200
640Q142 666 142 701Q142 723 153 736T185 749Q207 749 224 737T265 704Q288 683 313 658T380 596L362 568Z" />
<glyph unicode="&#xe9;" glyph-name="eacute" horiz-adv-x="523" d="M489 139Q465 74 412 32T279 -10Q227 -10 188 5T119 47Q74 86 54 141T34 254Q34 312 54 360T108 444T186 498T277 518Q333 518 373 500T438 454T474 393T486 329Q486 312 485 296T482 271H145V254Q145
203 155 154T196 73Q213 55 237 45T296 34Q332 34 358 44T403 70T436 108T459 153L489 139ZM203 452Q195 444 187 433T170 405T156 365T147 308H349Q366 308 374 319T383 360Q383 395 378 414T358 450Q345 465 326 472T278 479Q259 479 240 473T203 452ZM159 596Q200
633 225 658T274 704Q297 725 314 737T354 749Q374 749 385 736T397 701Q397 666 339 640L177 568L159 596V596Z" />
<glyph unicode="&#xea;" glyph-name="ecircumflex" horiz-adv-x="523" d="M489 139Q465 74 412 32T279 -10Q227 -10 188 5T119 47Q74 86 54 141T34 254Q34 312 54 360T108 444T186 498T277 518Q333 518 373 500T438 454T474 393T486 329Q486 312 485 296T482 271H145V254Q145
203 155 154T196 73Q213 55 237 45T296 34Q332 34 358 44T403 70T436 108T459 153L489 139ZM203 452Q195 444 187 433T170 405T156 365T147 308H349Q366 308 374 319T383 360Q383 395 378 414T358 450Q345 465 326 472T278 479Q259 479 240 473T203 452ZM383 816L271
903L159 816L132 841L247 973H295L410 841L383 816Z" />
<glyph unicode="&#xeb;" glyph-name="edieresis" horiz-adv-x="523" d="M489 139Q465 74 412 32T279 -10Q227 -10 188 5T119 47Q74 86 54 141T34 254Q34 312 54 360T108 444T186 498T277 518Q333 518 373 500T438 454T474 393T486 329Q486 312 485 296T482 271H145V254Q145
203 155 154T196 73Q213 55 237 45T296 34Q332 34 358 44T403 70T436 108T459 153L489 139ZM203 452Q195 444 187 433T170 405T156 365T147 308H349Q366 308 374 319T383 360Q383 395 378 414T358 450Q345 465 326 472T278 479Q259 479 240 473T203 452ZM182 847Q160
847 145 861T129 901Q129 925 144 940T182 955Q204 955 219 940T235 901Q235 876 220 862T182 847ZM365 847Q343 847 328 861T312 901Q312 925 327 940T365 955Q387 955 402 940T418 901Q418 876 403 862T365 847Z" />
<glyph unicode="&#xec;" glyph-name="igrave" horiz-adv-x="302" d="M204 138Q204 122 204 109T208 85Q212 70 219 60T243 42Q249 40 259 38T280 34V0H29V34Q39 35 49 37T65 42Q93 56 100 85Q102 96 102 109T103 138V370Q103 382 103 399T100 424Q94 442 78 452Q58
464 25 471V505H200Q207 505 207 497Q206 476 205 450T204 384V138ZM488 568L326 640Q268 666 268 701Q268 723 279 736T311 749Q333 749 350 737T391 704Q414 683 439 658T506 596L488 568Z" />
<glyph unicode="&#xed;" glyph-name="iacute" horiz-adv-x="302" d="M204 138Q204 122 204 109T208 85Q212 70 219 60T243 42Q249 40 259 38T280 34V0H29V34Q39 35 49 37T65 42Q93 56 100 85Q102 96 102 109T103 138V370Q103 382 103 399T100 424Q94 442 78 452Q58
464 25 471V505H200Q207 505 207 497Q206 476 205 450T204 384V138ZM267 596Q308 633 333 658T382 704Q405 725 422 737T462 749Q482 749 493 736T505 701Q505 666 447 640L285 568L267 596V596Z" />
<glyph unicode="&#xee;" glyph-name="icircumflex" horiz-adv-x="302" d="M204 138Q204 122 204 109T208 85Q212 70 219 60T243 42Q249 40 259 38T280 34V0H29V34Q39 35 49 37T65 42Q93 56 100 85Q102 96 102 109T103 138V370Q103 382 103 399T100 424Q94 442
78 452Q58 464 25 471V505H200Q207 505 207 497Q206 476 205 450T204 384V138ZM493 816L381 903L269 816L242 841L357 973H405L520 841L493 816Z" />
<glyph unicode="&#xef;" glyph-name="idieresis" horiz-adv-x="302" d="M204 138Q204 122 204 109T208 85Q212 70 219 60T243 42Q249 40 259 38T280 34V0H29V34Q39 35 49 37T65 42Q93 56 100 85Q102 96 102 109T103 138V370Q103 382 103 399T100 424Q94 442 78
452Q58 464 25 471V505H200Q207 505 207 497Q206 476 205 450T204 384V138ZM284 847Q262 847 247 861T231 901Q231 925 246 940T284 955Q306 955 321 940T337 901Q337 876 322 862T284 847ZM467 847Q445 847 430 861T414 901Q414 925 429 940T467 955Q489 955 504
940T520 901Q520 876 505 862T467 847Z" />
<glyph unicode="&#xf0;" glyph-name="eth" horiz-adv-x="552" d="M274 -10Q221 -10 176 8T98 61T47 145T28 255Q28 316 48 365T103 448T181 500T274 518Q304 518 332 512T385 482H389Q372 525 351 559T304 622L172 556L152 591L273 651Q246 674 214 693T143 730L163
765Q200 749 241 727T323 676L470 749L489 714L357 648Q391 619 421 583T475 501T511 403T524 286Q524 211 505 155T453 63T373 8T274 -10ZM415 263Q417 329 403 371T364 443Q346 464 322 471T274 479Q253 479 231 472T191 446Q164 418 151 369T138 255Q138 189
151 142T190 65Q208 44 231 37T274 29Q295 29 317 35T359 64Q383 93 398 145T415 263Z" />
<glyph unicode="&#xf1;" glyph-name="ntilde" horiz-adv-x="624" d="M527 138Q527 122 527 109T530 85Q534 70 541 60T565 42Q571 40 581 38T602 34V0H353V34Q363 35 373 37T391 42Q406 50 412 60T423 85Q425 96 425 109T426 138V376Q426 396 421 413T404 442Q386
459 346 459Q314 459 284 447T235 408Q221 389 214 362T206 306V138Q206 122 206 109T210 85Q214 70 220 60T242 42Q248 40 258 38T278 34V0H29V34Q39 35 50 37T67 42Q95 56 102 85Q104 96 104 109T105 138V370Q105 382 105 399T102 424Q96 442 80 452Q69 458 56
462T25 471V505H195Q202 505 202 497L200 423H212Q224 442 239 458T275 486Q322 518 385 518Q443 518 478 493Q501 476 514 449T527 386V138V138ZM465 703Q452 661 425 633T363 604Q344 604 329 608T299 618T271 628T243 633Q227 633 212 621T189 588L159 599Q165
616 174 634T195 667T221 691T253 701Q271 701 286 697T317 687T346 677T377 672Q400 672 413 682T435 714L465 703V703Z" />
<glyph unicode="&#xf2;" glyph-name="ograve" horiz-adv-x="566" d="M34 255Q34 316 54 365T108 448T188 500T283 518Q333 518 378 500T457 448T512 365T532 255Q532 194 512 145T458 62T378 9T283 -10Q233 -10 188 8T109 61T54 145T34 255ZM144 255Q144 177 161
128T210 53Q242 29 283 29Q323 29 355 53Q387 79 404 128T422 255Q422 333 405 382T355 456Q340 468 322 473T283 479Q263 479 244 474T210 456Q178 431 161 382T144 255ZM374 568L212 640Q154 666 154 701Q154 723 165 736T197 749Q219 749 236 737T277 704Q300
683 325 658T392 596L374 568Z" />
<glyph unicode="&#xf3;" glyph-name="oacute" horiz-adv-x="566" d="M34 255Q34 316 54 365T108 448T188 500T283 518Q333 518 378 500T457 448T512 365T532 255Q532 194 512 145T458 62T378 9T283 -10Q233 -10 188 8T109 61T54 145T34 255ZM144 255Q144 177 161
128T210 53Q242 29 283 29Q323 29 355 53Q387 79 404 128T422 255Q422 333 405 382T355 456Q340 468 322 473T283 479Q263 479 244 474T210 456Q178 431 161 382T144 255ZM151 596Q192 633 217 658T266 704Q289 725 306 737T346 749Q366 749 377 736T389 701Q389
666 331 640L169 568L151 596V596Z" />
<glyph unicode="&#xf4;" glyph-name="ocircumflex" horiz-adv-x="566" d="M34 255Q34 316 54 365T108 448T188 500T283 518Q333 518 378 500T457 448T512 365T532 255Q532 194 512 145T458 62T378 9T283 -10Q233 -10 188 8T109 61T54 145T34 255ZM144 255Q144
177 161 128T210 53Q242 29 283 29Q323 29 355 53Q387 79 404 128T422 255Q422 333 405 382T355 456Q340 468 322 473T283 479Q263 479 244 474T210 456Q178 431 161 382T144 255ZM394 816L282 903L170 816L143 841L258 973H306L421 841L394 816Z" />
<glyph unicode="&#xf5;" glyph-name="otilde" horiz-adv-x="566" d="M34 255Q34 316 54 365T108 448T188 500T283 518Q333 518 378 500T457 448T512 365T532 255Q532 194 512 145T458 62T378 9T283 -10Q233 -10 188 8T109 61T54 145T34 255ZM144 255Q144 177 161
128T210 53Q242 29 283 29Q323 29 355 53Q387 79 404 128T422 255Q422 333 405 382T355 456Q340 468 322 473T283 479Q263 479 244 474T210 456Q178 431 161 382T144 255ZM434 703Q421 661 394 633T332 604Q313 604 298 608T268 618T240 628T212 633Q196 633 181
621T158 588L128 599Q134 616 143 634T164 667T190 691T222 701Q240 701 255 697T286 687T315 677T346 672Q369 672 382 682T404 714L434 703V703Z" />
<glyph unicode="&#xf6;" glyph-name="odieresis" horiz-adv-x="566" d="M34 255Q34 316 54 365T108 448T188 500T283 518Q333 518 378 500T457 448T512 365T532 255Q532 194 512 145T458 62T378 9T283 -10Q233 -10 188 8T109 61T54 145T34 255ZM144 255Q144 177
161 128T210 53Q242 29 283 29Q323 29 355 53Q387 79 404 128T422 255Q422 333 405 382T355 456Q340 468 322 473T283 479Q263 479 244 474T210 456Q178 431 161 382T144 255ZM188 847Q166 847 151 861T135 901Q135 925 150 940T188 955Q210 955 225 940T241 901Q241
876 226 862T188 847ZM371 847Q349 847 334 861T318 901Q318 925 333 940T371 955Q393 955 408 940T424 901Q424 876 409 862T371 847Z" />
<glyph unicode="&#xf7;" glyph-name="divide" horiz-adv-x="469" d="M288 438Q288 416 273 401T235 385Q212 385 197 400T182 438Q182 461 197 476T235 491Q258 491 273 476T288 438ZM40 283V325H429V283H40ZM288 170Q288 148 273 133T235 117Q212 117 197 132T182
170Q182 193 197 208T235 223Q258 223 273 208T288 170Z" />
<glyph unicode="&#xf8;" glyph-name="oslash" horiz-adv-x="566" d="M283 -10Q229 -10 178 13L132 -74L96 -57L144 32Q94 66 64 122T34 255Q34 316 54 365T108 448T188 500T283 518Q342 518 392 494L436 576L471 558L426 474Q474 441 503 386T532 255Q532 194
512 145T458 62T378 9T283 -10ZM144 255Q144 149 176 93L366 446Q363 450 355 456Q340 468 322 473T283 479Q263 479 244 474T210 456Q178 431 161 382T144 255ZM283 29Q323 29 355 53Q387 79 404 128T422 255Q422 357 392 411L203 59L210 53Q242 29 283 29Z" />
<glyph unicode="&#xf9;" glyph-name="ugrave" horiz-adv-x="621" d="M516 137Q516 122 516 109T520 85Q524 70 531 59T555 42Q563 39 575 37T597 34V0H432Q423 0 423 11Q423 14 423 25T422 49V81H412Q398 57 387 44T361 19Q342 5 316 -3T255 -12Q220 -12 185 -2T126
38Q111 56 103 79T95 146V373Q95 385 95 402T92 427Q86 445 70 455Q50 468 15 471V505H193Q200 505 200 498Q199 476 198 449T196 378V153Q196 125 200 105T220 69Q235 52 252 46T292 40Q311 40 330 46T367 66Q384 80 396 102T412 155Q414 177 414 192T415 235V373Q415
385 415 402T412 427Q406 445 390 455Q368 468 333 471V505H513Q520 505 520 498Q519 476 518 449T516 378V137V137ZM362 568L200 640Q142 666 142 701Q142 723 153 736T185 749Q207 749 224 737T265 704Q288 683 313 658T380 596L362 568Z" />
<glyph unicode="&#xfa;" glyph-name="uacute" horiz-adv-x="621" d="M516 137Q516 122 516 109T520 85Q524 70 531 59T555 42Q563 39 575 37T597 34V0H432Q423 0 423 11Q423 14 423 25T422 49V81H412Q398 57 387 44T361 19Q342 5 316 -3T255 -12Q220 -12 185 -2T126
38Q111 56 103 79T95 146V373Q95 385 95 402T92 427Q86 445 70 455Q50 468 15 471V505H193Q200 505 200 498Q199 476 198 449T196 378V153Q196 125 200 105T220 69Q235 52 252 46T292 40Q311 40 330 46T367 66Q384 80 396 102T412 155Q414 177 414 192T415 235V373Q415
385 415 402T412 427Q406 445 390 455Q368 468 333 471V505H513Q520 505 520 498Q519 476 518 449T516 378V137V137ZM179 596Q220 633 245 658T294 704Q317 725 334 737T374 749Q394 749 405 736T417 701Q417 666 359 640L197 568L179 596V596Z" />
<glyph unicode="&#xfb;" glyph-name="ucircumflex" horiz-adv-x="621" d="M516 137Q516 122 516 109T520 85Q524 70 531 59T555 42Q563 39 575 37T597 34V0H432Q423 0 423 11Q423 14 423 25T422 49V81H412Q398 57 387 44T361 19Q342 5 316 -3T255 -12Q220 -12
185 -2T126 38Q111 56 103 79T95 146V373Q95 385 95 402T92 427Q86 445 70 455Q50 468 15 471V505H193Q200 505 200 498Q199 476 198 449T196 378V153Q196 125 200 105T220 69Q235 52 252 46T292 40Q311 40 330 46T367 66Q384 80 396 102T412 155Q414 177 414 192T415
235V373Q415 385 415 402T412 427Q406 445 390 455Q368 468 333 471V505H513Q520 505 520 498Q519 476 518 449T516 378V137V137ZM387 816L275 903L163 816L136 841L251 973H299L414 841L387 816Z" />
<glyph unicode="&#xfc;" glyph-name="udieresis" horiz-adv-x="621" d="M516 137Q516 122 516 109T520 85Q524 70 531 59T555 42Q563 39 575 37T597 34V0H432Q423 0 423 11Q423 14 423 25T422 49V81H412Q398 57 387 44T361 19Q342 5 316 -3T255 -12Q220 -12 185
-2T126 38Q111 56 103 79T95 146V373Q95 385 95 402T92 427Q86 445 70 455Q50 468 15 471V505H193Q200 505 200 498Q199 476 198 449T196 378V153Q196 125 200 105T220 69Q235 52 252 46T292 40Q311 40 330 46T367 66Q384 80 396 102T412 155Q414 177 414 192T415
235V373Q415 385 415 402T412 427Q406 445 390 455Q368 468 333 471V505H513Q520 505 520 498Q519 476 518 449T516 378V137V137ZM183 847Q161 847 146 861T130 901Q130 925 145 940T183 955Q205 955 220 940T236 901Q236 876 221 862T183 847ZM366 847Q344 847
329 861T313 901Q313 925 328 940T366 955Q388 955 403 940T419 901Q419 876 404 862T366 847Z" />
<glyph unicode="&#xfd;" glyph-name="yacute" horiz-adv-x="551" d="M274 -50Q265 -71 259 -84T247 -108T235 -126T220 -147Q201 -172 174 -187T104 -202Q68 -202 45 -183T21 -135Q21 -112 35 -97T67 -81Q88 -81 99 -89T122 -110Q132 -121 138 -125Q143 -129 148
-130T161 -131Q172 -131 182 -124T200 -104T216 -77T229 -47Q236 -30 238 -16T241 7Q241 21 237 31T230 50L117 315Q101 351 92 376T77 413Q68 433 62 442T45 459Q36 465 24 467T4 471V505H258V471Q249 470 234 468T210 463Q202 458 196 450T189 425Q189 408 195
390T214 341L300 130H311L399 335Q406 352 411 364T418 385T422 403T423 423Q423 440 416 449T400 463Q391 468 378 469T357 471V505H550V471Q542 470 533 468T514 460Q507 455 501 449T486 432Q478 420 467 397T443 343L274 -50V-50ZM196 596Q237 633 262 658T311
704Q334 725 351 737T391 749Q411 749 422 736T434 701Q434 666 376 640L214 568L196 596V596Z" />
<glyph unicode="&#xfe;" glyph-name="thorn" horiz-adv-x="589" d="M450 253Q450 314 440 356T413 423T374 459T325 470Q296 470 276 462T235 437Q227 430 219 417T204 387T193 350T188 308V193Q188 147 195 118T219 70Q237 50 261 39T310 28Q379 28 414 88T450
253ZM271 -193H5V-161Q15 -160 27 -158T47 -153Q62 -145 69 -135T81 -110Q84 -99 84 -86T85 -58V622Q85 633 84 650T81 675Q75 694 60 704Q49 710 35 714T5 722V756H180Q187 756 187 749V440H197Q223 484 258 500T345 517Q383 517 421 504T489 459T538 377T557
253Q557 184 536 134T480 52T403 4T318 -11Q283 -11 252 0T197 31H188V-58Q188 -73 188 -86T191 -110Q198 -139 226 -153Q232 -155 244 -157T271 -161V-193Z" />
<glyph unicode="&#xff;" glyph-name="ydieresis" horiz-adv-x="551" d="M274 -50Q265 -71 259 -84T247 -108T235 -126T220 -147Q201 -172 174 -187T104 -202Q68 -202 45 -183T21 -135Q21 -112 35 -97T67 -81Q88 -81 99 -89T122 -110Q132 -121 138 -125Q143 -129
148 -130T161 -131Q172 -131 182 -124T200 -104T216 -77T229 -47Q236 -30 238 -16T241 7Q241 21 237 31T230 50L117 315Q101 351 92 376T77 413Q68 433 62 442T45 459Q36 465 24 467T4 471V505H258V471Q249 470 234 468T210 463Q202 458 196 450T189 425Q189 408
195 390T214 341L300 130H311L399 335Q406 352 411 364T418 385T422 403T423 423Q423 440 416 449T400 463Q391 468 378 469T357 471V505H550V471Q542 470 533 468T514 460Q507 455 501 449T486 432Q478 420 467 397T443 343L274 -50V-50ZM200 847Q178 847 163
861T147 901Q147 925 162 940T200 955Q222 955 237 940T253 901Q253 876 238 862T200 847ZM383 847Q361 847 346 861T330 901Q330 925 345 940T383 955Q405 955 420 940T436 901Q436 876 421 862T383 847Z" />
<glyph unicode="&#x131;" glyph-name="dotlessi" horiz-adv-x="302" d="M204 138Q204 122 204 109T208 85Q212 70 219 60T243 42Q249 40 259 38T280 34V0H29V34Q39 35 49 37T65 42Q93 56 100 85Q102 96 102 109T103 138V370Q103 382 103 399T100 424Q94 442 78
452Q58 464 25 471V505H200Q207 505 207 497Q206 476 205 450T204 384V138Z" />
<glyph unicode="&#x141;" glyph-name="Lslash" horiz-adv-x="622" d="M35 36Q59 38 73 43Q90 48 101 57T122 83Q126 92 129 102T134 124T136 153T137 193V278L29 233V275L137 320V505Q137 529 137 545T134 574T129 596T122 616Q113 633 102 641T73 656Q58 661
35 662V698H350V662Q327 661 312 656Q295 650 284 642T263 616Q258 606 256 597T251 575T249 546T248 505V367L437 446V404L248 325V154Q248 117 252 94T270 56Q281 44 299 40T345 36H352Q379 36 399 39T434 50T460 65T483 85Q519 119 538 149T574 214H607L571
0H35V36Z" />
<glyph unicode="&#x142;" glyph-name="lslash" horiz-adv-x="301" d="M203 138Q203 122 203 109T207 85Q211 70 217 60T239 42Q245 40 254 38T274 34V0H31V34Q41 35 49 37T64 42Q92 56 99 85Q101 96 101 109T102 138V277L18 221V272L102 328V626Q102 638 102 655T99
680Q92 700 77 708Q66 715 53 717T22 722V756H198Q205 756 205 748Q205 729 204 694T203 625V396L283 450V399L203 345V138Z" />
<glyph unicode="&#x152;" glyph-name="OE" horiz-adv-x="1022" d="M366 661Q333 661 306 654T254 630Q229 612 211 588T182 529T166 451T160 349Q160 284 165 239T181 161T210 107T253 67Q280 48 307 43T366 37Q412 37 441 49T487 96T510 192T516 349Q516 449
510 510T488 604T442 649T366 661ZM952 0H367Q295 0 235 24T130 95T62 205T37 349Q37 429 61 493T130 603T234 673T367 698H935L966 525H932Q912 561 894 582T849 625Q835 637 806 649T733 661H686Q672 661 659 659T638 645Q630 633 629 620T627 587V380H676Q711
380 732 386T767 406Q787 426 793 446T802 491H834V230H802Q799 255 792 277T765 318Q750 332 730 337T676 343H627V155Q627 118 630 95T648 57Q659 45 679 41T726 37H739Q767 37 786 40T821 51T847 66T872 86Q898 108 917 136T954 196H985L952 0Z" />
<glyph unicode="&#x153;" glyph-name="oe" horiz-adv-x="881" d="M847 139Q823 74 770 32T637 -10Q606 -10 582 -5T540 10T507 32T480 57Q473 65 468 71T457 86H449Q420 41 376 16T273 -10Q223 -10 180 8T104 61T53 145T34 255Q34 316 52 365T103 448T179 500T273
518Q333 518 378 493T453 420H461Q491 466 536 492T635 518Q691 518 729 500T790 454T824 393T834 329Q834 312 833 296T830 271H513V254Q513 228 514 203T518 154T530 110T554 73Q571 55 595 45T654 34Q690 34 716 44T761 70T794 108T817 153L847 139ZM561 452Q553
444 546 433T532 405T522 365T515 308H697Q714 308 722 319T731 360Q731 395 731 414T716 450Q703 465 684 472T636 479Q617 479 598 473T561 452ZM144 255Q144 177 156 128T200 53Q232 29 273 29Q313 29 345 53Q377 79 389 128T402 255Q402 333 390 382T345 456Q330
468 312 473T273 479Q253 479 234 474T200 456Q168 431 156 382T144 255Z" />
<glyph unicode="&#x160;" glyph-name="Scaron" horiz-adv-x="546" d="M287 755H235L120 860L139 888L261 825L383 888L402 860L287 755ZM513 193Q513 143 494 105T443 40T370 0T284 -14Q227 -14 182 7T110 54H100L72 5H47L37 236H71Q86 195 108 157T158 90T218
42T284 24Q353 24 388 58T423 144Q423 179 410 202T374 243T320 276T250 310Q214 328 180 346T118 390T75 448T58 528Q58 568 73 602T116 660T179 697T258 711Q288 711 309 708T345 698T373 683T400 661H409L431 703H462L479 500H445Q429 541 409 575T365 633Q346
651 323 662T258 673Q213 673 182 647T150 572Q150 537 163 514T197 475T245 445T300 418Q341 397 379 378T447 334T495 276T513 193Z" />
<glyph unicode="&#x161;" glyph-name="scaron" horiz-adv-x="436" d="M409 147Q409 106 395 77T356 28T301 0T234 -10Q194 -10 157 9T98 56H86L69 2H40L34 193H70Q82 157 98 127T136 75T182 41T237 28Q279 28 303 45T327 99Q327 122 320 138T297 167T257 191T200
217Q169 230 141 242T92 271T59 314T46 380Q46 409 57 434T90 478T143 507T213 518Q260 518 287 501T324 467H334L347 509H373L381 357H346Q334 389 321 413T291 453Q276 466 258 473T213 480Q174 480 152 461T129 411Q129 393 134 380T152 355T188 332T246 308Q278
295 307 281T359 249T395 206T409 147ZM492 816H444L329 948L356 973L468 886L580 973L607 948L492 816Z" />
<glyph unicode="&#x178;" glyph-name="Ydieresis" horiz-adv-x="646" d="M254 750Q231 750 215 765T199 806Q199 832 215 847T254 862Q277 862 293 847T309 806Q309 780 293 765T254 750ZM455 750Q432 750 416 765T400 806Q400 832 416 847T455 862Q478 862 494
847T510 806Q510 780 494 765T455 750ZM106 555Q88 586 74 605T47 636T21 653T-8 662V698H299V662Q262 659 245 654Q210 642 213 615T243 542L355 357H361L459 524Q480 558 486 577T492 616Q492 633 486 641T465 655Q457 658 444 659T422 662V698H652V662Q625 659
606 649T571 622T539 578T503 516L375 297V193Q375 170 375 154T377 125T381 102T389 83Q398 66 410 58T438 43Q448 39 456 38T476 36V0H160V36Q172 37 180 38T198 43Q214 48 226 57T247 83Q252 92 255 102T259 124T261 153T262 193V298L106 555Z" />
<glyph unicode="&#x17d;" glyph-name="Zcaron" horiz-adv-x="624" d="M351 765H299L184 870L203 898L325 835L447 898L466 870L351 765ZM581 671L177 36H264Q300 36 326 38T373 43T409 53T443 68Q470 82 490 100T524 138T550 177T571 215H608L549 0H37V27L448
662H339Q312 662 291 660T253 654T221 643T192 625Q165 605 141 576T96 505H60L100 698H581V671Z" />
<glyph unicode="&#x17e;" glyph-name="zcaron" horiz-adv-x="493" d="M441 0H30V17L331 466V471H209Q186 471 171 464T140 441Q120 422 107 400T79 349H44L79 505H451V484L157 38V34H269Q310 34 329 44T365 74Q389 102 402 123T427 172H460L441 0ZM293 816H245L130
948L157 973L269 886L381 973L408 948L293 816Z" />
<glyph unicode="&#x2c6;" glyph-name="circumflex" horiz-adv-x="460" d="M342 571L230 658L118 571L91 596L206 728H254L369 596L342 571Z" />
<glyph unicode="&#x2c7;" glyph-name="caron" horiz-adv-x="460" d="M254 571H206L91 703L118 728L230 641L342 728L369 703L254 571Z" />
<glyph unicode="&#x2d8;" glyph-name="breve" horiz-adv-x="460" d="M230 581Q174 581 143 616T106 711L136 719Q143 697 153 684T175 663T200 653T229 650Q245 650 259 652T286 662T307 683T324 719L354 711Q348 652 317 617T230 581Z" />
<glyph unicode="&#x2d9;" glyph-name="dotaccent" horiz-adv-x="460" d="M230 608Q202 608 184 625T166 671Q166 699 184 716T230 734Q258 734 276 717T294 671Q294 643 276 626T230 608Z" />
<glyph unicode="&#x2da;" glyph-name="ring" horiz-adv-x="460" d="M320 655Q320 634 313 617T293 589T264 572T230 566Q213 566 197 572T168 589T148 617T140 655Q140 677 147 693T167 721T196 739T230 745Q265 745 292 722T320 655ZM173 655Q173 626 189 610T230
594Q254 594 270 610T287 655Q287 684 271 700T230 717Q206 717 190 701T173 655Z" />
<glyph unicode="&#x2db;" glyph-name="ogonek" horiz-adv-x="460" d="M314 -215Q275 -217 242 -212T184 -195T145 -165T131 -120Q131 -82 161 -53T248 0H288Q253 -25 236 -51T218 -113Q218 -142 245 -158T314 -177V-215V-215Z" />
<glyph unicode="&#x2dc;" glyph-name="tilde" horiz-adv-x="460" d="M377 703Q364 661 337 633T275 604Q256 604 241 608T211 618T183 628T155 633Q139 633 124 621T101 588L71 599Q77 616 86 634T107 667T133 691T165 701Q183 701 198 697T229 687T258 677T289
672Q312 672 325 682T347 714L377 703V703Z" />
<glyph unicode="&#x2dd;" glyph-name="hungarumlaut" horiz-adv-x="460" d="M210 759Q225 759 234 749T244 725Q244 707 237 693T213 662Q195 643 171 617T107 550L81 566L155 716Q176 759 210 759ZM383 759Q398 759 407 749T417 725Q417 707 410 693T386 662Q368
643 344 617T280 550L254 566L328 716Q349 759 383 759Z" />
</font>
</defs>
</svg>
