<?xml version="1.0" standalone="no"?> <!DOCTYPE svg PUBLIC "-//W3C//DTD SVG 1.0//EN" "http://www.w3.org/TR/2001/REC-SVG-20010904/DTD/svg10.dtd" > <svg xmlns="http://www.w3.org/2000/svg" width="100%" height="100%">
<defs >
<font id="Telesans" horiz-adv-x="555" ><font-face
    font-family="Telesans Text Web"
    units-per-em="1000"
    panose-1="0 0 0 0 0 0 0 0 0 0"
    ascent="800"
    descent="-200"
    alphabetic="0" />
<missing-glyph horiz-adv-x="231" />
<glyph unicode=" " glyph-name="space" horiz-adv-x="231" />
<glyph unicode="!" glyph-name="exclam" horiz-adv-x="325" d="M68 75Q68 113 94 137T162 162Q206 162 231 138T257 75Q257 37 232 13T162 -11Q120 -11 94 13T68 75ZM249 706L233 224H90L74 706H249Z" />
<glyph unicode="&quot;" glyph-name="quotedbl" horiz-adv-x="481" d="M213 735L205 482H76L68 735H213ZM413 735L404 482H276L268 735H413Z" />
<glyph unicode="#" glyph-name="numbersign" horiz-adv-x="744" d="M596 706L567 534H694L675 426H549L525 283H653L634 176H507L478 0H385L414 176H272L243 0H148L177 176H51L69 283H195L219 426H90L108 534H237L266 706H360L331 534H474L503 706H596ZM290 283H432L456
426H313L290 283Z" />
<glyph unicode="$" glyph-name="dollar" horiz-adv-x="581" d="M81 160H96Q115 145 142 132T205 109L237 309Q193 327 160 347T104 391T69 448T57 522Q57 570 76 607T129 668T209 706T311 719H315L330 815L418 814L401 708Q442 699 473 684T527 652L478 557H464Q449
568 429 578T384 597L355 411Q401 392 436 373T494 328T529 272T541 200Q541 97 475 43T273 -11L258 -109H171L187 -3Q140 5 101 22T33 62L81 160ZM404 180Q404 214 383 234T318 275L291 99Q351 99 377 120T404 180ZM194 535Q194 503 213 484T273 445L298 609Q247
608 221 591T194 535Z" />
<glyph unicode="%" glyph-name="percent" horiz-adv-x="879" d="M667 71Q698 71 712 101T727 186Q727 240 713 271T667 303Q635 303 622 272T608 186Q608 132 622 102T667 71ZM667 -12Q627 -12 595 3T541 45T506 108T493 186Q493 228 504 264T538 327T593 369T667
384Q708 384 740 369T795 327T830 264T842 186Q842 144 830 108T795 45T740 3T667 -12ZM37 520Q37 562 49 598T84 660T139 702T212 718Q252 718 284 703T338 661T373 598T385 520Q385 478 374 442T340 379T286 337T212 322Q170 322 138 337T83 378T49 441T37 520ZM271
520Q271 574 257 605T212 636Q181 636 166 605T151 520Q151 466 165 435T212 404Q244 404 257 435T271 520ZM617 706H720V695L261 0H158V11L617 706Z" />
<glyph unicode="&amp;" glyph-name="ampersand" horiz-adv-x="721" d="M196 399Q176 428 158 464T139 546Q139 627 193 672T351 718Q452 718 499 677T546 565Q546 533 534 506T503 457T457 416T402 383L518 243Q529 267 536 300T551 368L659 355Q651 296 637 245T594
152Q626 114 656 80T712 15V0H525Q512 14 499 29T472 60Q440 28 391 8T277 -12Q215 -12 170 2T96 43T52 106T37 187Q37 226 51 257T87 314T139 359T200 393L196 399ZM405 139Q366 185 328 232T255 323Q223 304 202 275T181 207Q181 157 212 128T299 98Q366 98 405
139ZM294 557Q294 530 307 507T337 463Q339 460 342 456T348 449Q384 469 404 494T425 557Q425 591 407 607T359 623Q331 623 313 608T294 557Z" />
<glyph unicode="&apos;" glyph-name="quotesingle" horiz-adv-x="281" d="M213 735L205 482H76L68 735H213Z" />
<glyph unicode="(" glyph-name="parenleft" horiz-adv-x="394" d="M77 304Q77 379 90 445T127 569T181 673T246 760H368V745Q343 707 321 658T281 552T253 432T243 304Q243 239 253 176T280 56T320 -50T368 -137V-152H246Q212 -113 182 -66T128 39T91 162T77 304Z" />
<glyph unicode=")" glyph-name="parenright" horiz-adv-x="394" d="M317 304Q317 229 304 163T267 39T213 -65T148 -152H27V-137Q52 -99 75 -50T115 56T142 176T152 304Q152 369 142 432T115 552T75 658T27 745V760H148Q182 721 212 674T266 569T303 446T317 304Z" />
<glyph unicode="*" glyph-name="asterisk" horiz-adv-x="482" d="M208 451L117 377L96 365L44 454L66 467L175 509L66 550L44 563L96 652L117 640L208 567L190 681V706H293V682L274 566L365 640L386 652L438 563L417 551L308 509L417 467L438 454L386 365L365
377L274 451L293 335V311H190V335L208 451Z" />
<glyph unicode="+" glyph-name="plus" horiz-adv-x="625" d="M247 335V538H378V335H563V213H378V9H247V213H62V335H247Z" />
<glyph unicode="," glyph-name="comma" horiz-adv-x="308" d="M252 162L174 -108H53L93 162H252Z" />
<glyph unicode="-" glyph-name="hyphen" horiz-adv-x="437" d="M60 343H377V215H60V343Z" />
<glyph unicode="." glyph-name="period" horiz-adv-x="327" d="M70 79Q70 119 95 144T164 170Q207 170 232 145T257 79Q257 39 232 14T164 -11Q120 -11 95 14T70 79Z" />
<glyph unicode="/" glyph-name="slash" horiz-adv-x="426" d="M127 -132H-1L267 738H396L127 -132Z" />
<glyph unicode="0" glyph-name="zero" horiz-adv-x="694" d="M350 103Q415 103 444 163T474 352Q474 482 443 542T345 603Q282 603 251 543T220 354Q220 224 251 164T350 103ZM345 718Q419 718 475 692T570 619T627 507T647 363Q647 274 627 205T569 87T475 14T350
-11Q275 -11 219 15T124 88T66 200T47 344Q47 433 67 502T126 620T220 693T345 718Z" />
<glyph unicode="1" glyph-name="one" horiz-adv-x="411" d="M161 554L64 522H49L20 632Q29 635 47 641T89 655T137 672T185 688T225 702T251 712L329 704V0H161V554Z" />
<glyph unicode="2" glyph-name="two" horiz-adv-x="580" d="M222 588Q186 588 156 577T97 545H84L32 644Q80 680 134 699T258 718Q379 718 445 665T512 500Q512 436 484 379T404 268Q370 233 327 200T244 136V126H533L527 0H54L47 117Q99 159 150 199T243 282Q291
331 316 378T341 475Q341 535 311 561T222 588Z" />
<glyph unicode="3" glyph-name="three" horiz-adv-x="581" d="M348 204Q348 253 319 279T214 306H170L164 413H206Q265 413 297 437T329 505Q329 596 230 596Q166 596 110 557H99L46 649Q91 683 150 700T277 718Q508 718 508 539Q508 471 463 430T349 373V365Q385
359 417 346T474 310T513 257T528 183Q528 87 457 38T262 -12Q182 -12 122 6T23 53L74 157H88Q113 136 147 123T224 109Q284 109 316 132T348 204Z" />
<glyph unicode="4" glyph-name="four" horiz-adv-x="650" d="M39 166L29 264L327 706H506V276H618L609 166H507V0H340V166H39ZM340 538H332L164 276H340V538Z" />
<glyph unicode="5" glyph-name="five" horiz-adv-x="588" d="M77 157H90Q120 134 157 121T233 108Q296 108 329 138T362 225Q362 258 353 280T326 314T284 332T231 338Q195 338 162 330T106 308L79 333L101 706H500L495 581H233L225 432Q241 435 261 437T302 440Q352
440 395 430T469 395T518 329T536 225Q536 174 520 131T469 56T383 7T258 -11Q183 -11 126 6T27 52L77 157Z" />
<glyph unicode="6" glyph-name="six" horiz-adv-x="648" d="M51 307Q51 404 73 480T139 609T246 690T390 718Q452 718 499 702T574 665L522 568H509Q490 580 466 590T404 600Q321 600 282 549T230 403H235Q260 424 299 434T379 445Q427 445 468 431T539 390T585
321T602 226Q602 175 585 132T535 57T451 7T335 -11Q268 -11 216 11T127 75T71 175T51 307ZM327 345Q291 345 267 336T223 313V274Q223 189 249 143T335 97Q389 97 412 131T436 223Q436 283 411 314T327 345Z" />
<glyph unicode="7" glyph-name="seven" horiz-adv-x="553" d="M76 0V14L366 581H36L42 706H526L531 581L249 0H76Z" />
<glyph unicode="8" glyph-name="eight" horiz-adv-x="662" d="M454 382Q491 366 519 349T568 310T598 260T609 193Q609 99 539 44T329 -11Q202 -11 129 37T56 174Q56 204 67 228T98 272T145 304T203 326V332Q142 364 109 408T74 523Q74 567 92 603T144 664T225
704T330 718Q387 718 433 708T513 676T564 621T582 542Q582 488 548 447T454 389V382ZM444 180Q444 201 434 216T404 243T353 268T284 296Q247 280 226 255T204 195Q204 145 238 120T329 94Q362 94 384 101T420 120T438 147T444 180ZM227 535Q227 513 237 496T266
465T309 440T363 417Q396 433 416 462T437 526Q437 571 409 591T329 612Q278 612 253 590T227 535Z" />
<glyph unicode="9" glyph-name="nine" horiz-adv-x="646" d="M112 147H125Q142 134 175 121T248 107Q324 107 364 152T417 298H407Q382 278 346 264T270 249Q161 249 104 309T46 478Q46 529 64 573T117 649T204 700T323 718Q389 718 440 696T525 632T578 532T596
400Q596 303 575 227T513 98T410 17T266 -11Q232 -11 201 -7T144 6T96 23T62 44L112 147ZM320 352Q355 352 379 362T423 386Q423 398 423 410T424 436Q424 522 400 565T316 609Q265 609 238 574T211 480Q211 420 237 386T320 352Z" />
<glyph unicode=":" glyph-name="colon" horiz-adv-x="313" d="M319 79Q319 119 344 144T413 170Q456 170 481 145T506 79Q506 39 481 14T413 -11Q369 -11 344 14T319 79ZM63 423Q63 463 88 488T157 514Q200 514 225 489T250 423Q250 383 225 358T157 333Q113 333
88 358T63 423Z" />
<glyph unicode=";" glyph-name="semicolon" horiz-adv-x="314" d="M506 162L428 -108H307L347 162H506ZM63 423Q63 463 88 488T157 514Q200 514 225 489T250 423Q250 383 225 358T157 333Q113 333 88 358T63 423Z" />
<glyph unicode="&lt;" glyph-name="less" horiz-adv-x="564" d="M62 334L472 538H488V405L223 275L488 144V11H472L62 216V334Z" />
<glyph unicode="=" glyph-name="equal" horiz-adv-x="653" d="M577 456V340H76V456H577ZM577 205V90H76V205H577Z" />
<glyph unicode="&gt;" glyph-name="greater" horiz-adv-x="564" d="M478 334L68 538H52V405L317 275L52 144V11H68L478 216V334Z" />
<glyph unicode="?" glyph-name="question" horiz-adv-x="534" d="M172 382Q238 382 275 405T313 486Q313 536 286 562T209 588Q174 588 147 578T96 550H79L25 649Q66 681 120 699T246 718Q308 718 354 702T432 657T479 586T495 495Q495 443 477 404T429 340T358
302T272 289H263V205H132V382H172ZM102 75Q102 113 127 137T195 162Q240 162 265 138T291 75Q291 37 266 13T195 -11Q153 -11 128 13T102 75Z" />
<glyph unicode="@" glyph-name="at" horiz-adv-x="1036" d="M277 223Q277 288 297 341T356 434T451 494T579 516Q632 516 671 508T741 486L682 187Q674 149 689 135T735 121Q772 121 800 136T848 180T876 248T886 336Q886 407 862 463T793 559T686 619T547 640Q461
640 389 613T265 536T184 416T155 259Q155 171 182 102T259 -14T379 -87T536 -112Q621 -112 696 -89T827 -21H841L878 -80Q821 -136 732 -165T537 -194Q426 -194 337 -163T186 -74T90 68T56 258Q56 362 94 447T199 592T356 685T551 718Q650 718 729 691T865 615T951
494T982 336Q982 266 963 211T909 117T823 58T710 37Q650 37 613 53T559 108H548Q522 73 493 57T426 41Q359 41 318 88T277 223ZM474 132Q498 132 518 147T547 191L595 422Q580 428 560 428Q514 428 480 398T425 298Q413 254 413 216Q413 132 474 132Z" />
<glyph unicode="A" glyph-name="A" horiz-adv-x="710" d="M458 161H226L181 0H23V10L255 706H451L687 10V0H501L458 161ZM262 280H425L350 542H340L262 280Z" />
<glyph unicode="B" glyph-name="B" horiz-adv-x="654" d="M67 0V706H350Q469 706 526 661T584 525Q584 492 574 467T545 422T502 391T450 373V363Q486 357 515 345T565 314T597 267T608 199Q608 154 594 118T548 55T469 14T352 0H67ZM239 314V105H322Q379 105
404 131T430 211Q430 314 324 314H239ZM239 599V413H318Q368 413 391 435T414 506Q414 557 391 578T313 599H239Z" />
<glyph unicode="C" glyph-name="C" horiz-adv-x="661" d="M632 73Q597 38 536 13T392 -12Q311 -12 247 14T137 89T68 204T44 354Q44 439 69 506T140 621T252 693T399 718Q438 718 471 712T532 694T583 669T624 641L565 530H550Q525 555 492 571T413 587Q373 587
338 573T278 531T238 461T223 362Q223 240 276 182T417 123Q467 123 500 140T556 178H571L632 73Z" />
<glyph unicode="D" glyph-name="D" horiz-adv-x="717" d="M319 117Q365 117 398 129T452 170T483 245T493 360Q493 481 452 534T318 588H243V117H319ZM69 706H308Q495 706 584 620T673 358Q673 184 588 92T329 0H69V706Z" />
<glyph unicode="E" glyph-name="E" horiz-adv-x="580" d="M462 303H241V122H539L532 0H67V706H535L528 584H241V420H467L462 303Z" />
<glyph unicode="F" glyph-name="F" horiz-adv-x="574" d="M538 706L530 584H241V410H463L458 293H241V0H67V706H538Z" />
<glyph unicode="G" glyph-name="G" horiz-adv-x="707" d="M417 587Q324 587 274 529T224 350Q224 288 238 243T277 169T336 126T411 112Q441 112 466 117T508 129V260H361V376H649V45Q613 25 547 7T394 -12Q313 -12 249 14T139 88T70 203T45 352Q45 438 71 506T145
621T259 693T407 718Q486 718 543 697T639 646L587 535H572Q546 558 508 572T417 587Z" />
<glyph unicode="H" glyph-name="H" horiz-adv-x="728" d="M67 0V706H241V431H486V706H660V0H486V300H241V0H67Z" />
<glyph unicode="I" glyph-name="I" horiz-adv-x="308" d="M67 0V706H241V0H67Z" />
<glyph unicode="J" glyph-name="J" horiz-adv-x="439" d="M202 706H376V177Q376 86 323 38T173 -11Q113 -11 75 0T17 25L55 133H67Q79 125 94 119T129 113Q167 113 184 131T202 190V706Z" />
<glyph unicode="K" glyph-name="K" horiz-adv-x="659" d="M240 706V423H252L466 706H631V695L401 409L643 12V0H456L282 294L240 244V0H67V706H240Z" />
<glyph unicode="L" glyph-name="L" horiz-adv-x="569" d="M243 132H531L524 0H69V706H243V132Z" />
<glyph unicode="M" glyph-name="M" horiz-adv-x="858" d="M290 706L426 245H436L575 706H791V0H647Q647 15 648 55T649 150T650 264T651 377T652 471T652 525H645L496 0H359L208 525H201L205 0H67V706H290Z" />
<glyph unicode="N" glyph-name="N" horiz-adv-x="712" d="M485 0L219 498H212Q212 487 212 449T212 360T213 250T214 141T215 51T216 0H67V706H247L492 256H501Q501 265 501 299T501 379T500 479T499 578T497 660T496 706H645V0H485Z" />
<glyph unicode="O" glyph-name="O" horiz-adv-x="771" d="M387 108Q547 108 547 352Q547 482 505 539T383 597Q302 597 263 538T224 354Q224 223 266 166T387 108ZM383 718Q464 718 527 692T635 617T702 504T726 360Q726 277 703 209T637 91T530 15T388 -12Q307
-12 244 14T136 89T68 202T44 346Q44 429 67 497T134 615T240 691T383 718Z" />
<glyph unicode="P" glyph-name="P" horiz-adv-x="630" d="M313 706Q455 706 523 647T591 476Q591 243 305 243H241V0H67V706H313ZM301 352Q360 352 389 380T418 476Q418 542 389 569T307 597H241V352H301Z" />
<glyph unicode="Q" glyph-name="Q" horiz-adv-x="770" d="M383 719Q463 719 526 693T634 619T701 506T725 360Q725 298 708 246T662 154T592 86T507 45V36Q523 33 549 30T603 23T657 16T702 10L679 -120H663Q555 -95 448 -63T249 11Q204 32 167 64T102 138T60
232T45 346Q45 431 68 499T134 617T240 692T383 719ZM387 109Q468 109 507 167T546 352Q546 482 504 539T383 596Q300 596 262 538T224 354Q224 222 266 166T387 109Z" />
<glyph unicode="R" glyph-name="R" horiz-adv-x="665" d="M607 486Q607 406 571 359T478 291L623 13V0H439L315 260H241V0H67V706H344Q472 706 539 651T607 486ZM241 591V366H313Q371 366 401 394T432 482Q432 541 402 566T318 591H241Z" />
<glyph unicode="S" glyph-name="S" horiz-adv-x="586" d="M83 186H100Q133 154 181 132T281 110Q338 110 361 126T384 178Q384 196 377 209T354 235T310 259T241 286Q190 305 155 328T97 378T64 437T54 509Q54 560 74 599T130 665T214 704T317 718Q390 718 442
696T529 645L470 539H455Q430 564 395 579T319 595Q275 595 247 579T219 529Q219 512 226 499T249 475T289 453T350 428Q404 408 442 387T503 339T538 279T549 202Q549 104 482 46T281 -12Q206 -12 138 12T23 78L83 186Z" />
<glyph unicode="T" glyph-name="T" horiz-adv-x="624" d="M24 574L27 706H597L600 574H399V0H225V574H24Z" />
<glyph unicode="U" glyph-name="U" horiz-adv-x="728" d="M365 110Q393 110 416 116T455 139T479 181T488 247V706H660V263Q660 185 638 133T577 48T484 3T365 -11Q300 -11 246 2T152 48T90 132T68 263V706H242L241 247Q241 170 274 140T365 110Z" />
<glyph unicode="V" glyph-name="V" horiz-adv-x="688" d="M351 194H362L510 706H669V692L442 0H249L19 692V706H202L351 194Z" />
<glyph unicode="W" glyph-name="W" horiz-adv-x="976" d="M672 210H682L791 706H949V695L778 0H605L491 466H483L373 0H200L27 695V706H189L299 210H309L422 706H558L672 210Z" />
<glyph unicode="X" glyph-name="X" horiz-adv-x="688" d="M245 360L36 695V706H226L357 478H366L497 706H654V695L445 359L661 10V0H475L333 239H325L183 0H26V10L245 360Z" />
<glyph unicode="Y" glyph-name="Y" horiz-adv-x="666" d="M16 694V706H194L344 402H354L498 706H649V695L420 269V0H246V269L16 694Z" />
<glyph unicode="Z" glyph-name="Z" horiz-adv-x="626" d="M252 140V131H589Q587 95 585 66Q584 53 584 42T583 21Q582 10 582 0H48L40 124L365 567V575H49L57 706H570L577 583L252 140Z" />
<glyph unicode="[" glyph-name="bracketleft" horiz-adv-x="382" d="M359 760V653H228V-50H359V-152H80V760H359Z" />
<glyph unicode="\" glyph-name="backslash" horiz-adv-x="426" d="M30 738H159L427 -132H299L30 738Z" />
<glyph unicode="]" glyph-name="bracketright" horiz-adv-x="382" d="M303 760V-152H24V-50H154V653H24V760H303Z" />
<glyph unicode="_" glyph-name="underscore" horiz-adv-x="420" d="M25 -43H395V-141H25V-43Z" />
<glyph unicode="`" glyph-name="grave" horiz-adv-x="313" d="M30 746H180L268 597V588H144L30 736V746Z" />
<glyph unicode="a" glyph-name="a" horiz-adv-x="577" d="M53 499Q96 520 152 533T274 546Q380 546 435 508T490 386V120Q490 91 514 91Q528 91 536 96H543L563 15Q546 2 519 -5T460 -12Q360 -12 344 69H335Q321 37 283 13T191 -11Q120 -11 80 25T40 130Q40 164
50 188T78 231T124 261T188 284L324 326V358Q324 399 306 418T235 438Q197 438 164 429T102 406H89L53 499ZM324 248L253 226Q191 208 191 146Q191 111 209 97T250 83Q270 83 290 92T324 115V248Z" />
<glyph unicode="b" glyph-name="b" horiz-adv-x="616" d="M201 753H223V484H232Q255 513 289 529T374 546Q465 546 519 479T573 273Q573 198 554 144T498 56T409 5T290 -12Q221 -12 163 3T62 41V738L201 753ZM228 105Q256 91 293 91Q319 91 340 99T375 126T397
180T405 265Q405 315 399 347T380 399T350 427T308 435Q284 435 263 426T228 403V105Z" />
<glyph unicode="c" glyph-name="c" horiz-adv-x="533" d="M510 57Q478 26 432 8T317 -11Q251 -11 200 9T113 66T60 154T42 269Q42 338 65 389T126 476T216 528T325 546Q383 546 425 534T497 499L453 396H440Q423 411 398 420T343 429Q316 429 292 420T249 391T221
342T210 271Q210 188 245 150T346 112Q380 112 405 123T447 152H462L510 57Z" />
<glyph unicode="d" glyph-name="d" horiz-adv-x="616" d="M530 753H553V0H417L405 62H397Q379 31 342 10T254 -11Q157 -11 100 58T42 268Q42 343 63 396T120 482T201 531T293 546Q326 546 346 542T388 529V738L530 753ZM387 425Q361 444 318 444Q271 444 241 403T210
268Q210 174 237 133T310 91Q336 91 355 101T387 127V425Z" />
<glyph unicode="e" glyph-name="e" horiz-adv-x="576" d="M211 238Q216 166 250 134T352 101Q389 101 416 112T470 143H484L530 58Q500 31 447 10T319 -12Q255 -12 204 7T117 62T62 150T42 269Q42 335 62 387T117 474T198 527T298 546Q422 546 476 468T530 238H211ZM299
451Q221 451 211 314L378 316Q376 384 360 417T299 451Z" />
<glyph unicode="f" glyph-name="f" horiz-adv-x="378" d="M30 430V523L93 534V576Q93 667 144 710T292 753Q340 753 371 745T424 725L388 631H374Q354 646 323 646Q259 646 259 575V534H356V430H258V0H93V430H30Z" />
<glyph unicode="g" glyph-name="g" horiz-adv-x="575" d="M499 358Q499 319 485 285T442 226T372 186T276 171Q259 171 244 172T214 176Q206 163 206 146Q206 127 217 117T254 106H397Q477 106 521 69T565 -40Q565 -83 545 -118T488 -178T396 -216T275 -230Q142
-230 78 -195T13 -99Q13 -56 45 -33T127 -2V7Q101 21 87 42T73 96Q73 131 92 155T144 191V200Q97 225 74 266T50 358Q50 397 64 431T106 490T177 531T276 546Q325 546 363 534T430 499H440Q448 516 462 532T493 560T528 580T562 588L561 471Q541 471 516 465T474
449Q499 408 499 358ZM200 -17Q176 -23 161 -39T146 -79Q146 -113 180 -128T276 -143Q348 -143 388 -125T429 -69Q429 -17 368 -17H200ZM351 357Q351 411 332 437T276 463Q199 463 199 357Q199 253 276 253Q312 253 331 278T351 357Z" />
<glyph unicode="h" glyph-name="h" horiz-adv-x="612" d="M197 753H220V460H228Q255 495 300 520T403 546Q484 546 518 507T552 394V0H386V350Q386 385 373 401T325 418Q299 418 274 407T228 375L227 0H62V738L197 753Z" />
<glyph unicode="i" glyph-name="i" horiz-adv-x="295" d="M211 540H230V0H66V528L211 540ZM59 669Q59 705 83 727T148 749Q189 749 213 727T237 669Q237 633 213 612T148 590Q107 590 83 611T59 669Z" />
<glyph unicode="j" glyph-name="j" horiz-adv-x="293" d="M57 669Q57 705 81 727T147 749Q188 749 212 727T236 669Q236 633 212 612T147 590Q105 590 81 611T57 669ZM229 -46Q229 -138 179 -183T32 -228Q-6 -228 -39 -222T-90 -207L-65 -102H-50Q-39 -107 -28
-109T0 -112Q38 -112 51 -94T65 -40V528L210 540H229V-46Z" />
<glyph unicode="k" glyph-name="k" horiz-adv-x="566" d="M203 753H227V332H235L401 534H548V521L379 327L554 12L555 0H382L266 228L227 183V0H62V738L203 753Z" />
<glyph unicode="l" glyph-name="l" horiz-adv-x="292" d="M229 0H63V738L204 753H229V0Z" />
<glyph unicode="m" glyph-name="m" horiz-adv-x="914" d="M688 351Q688 388 677 403T631 418Q605 418 583 407T541 376V0H375V351Q375 388 364 403T318 418Q292 418 269 407T228 375V0H62V525L187 540H210L216 460H224Q250 494 293 520T394 546Q454 546 486 524T532
460H539Q565 494 607 520T707 546Q787 546 820 507T854 394V0H688V351V351Z" />
<glyph unicode="n" glyph-name="n" horiz-adv-x="612" d="M187 540H210L216 460H224Q237 477 255 492T297 520T347 539T403 546Q484 546 518 506T552 393V0H387V350Q387 385 373 401T324 418Q298 418 274 407T228 375V0H62V526L187 540Z" />
<glyph unicode="o" glyph-name="o" horiz-adv-x="612" d="M42 266Q42 332 61 384T114 472T197 527T305 546Q363 546 411 529T495 478T550 391T570 269Q570 202 551 150T498 62T414 7T305 -12Q248 -12 200 5T117 56T62 143T42 266ZM402 269Q402 318 396 351T377
405T346 435T305 444Q259 444 235 403T210 265Q210 216 216 183T235 129T265 99T305 90Q352 90 377 130T402 269Z" />
<glyph unicode="p" glyph-name="p" horiz-adv-x="614" d="M187 540H210L216 472H224Q243 501 280 523T371 546Q466 546 519 480T572 272Q572 196 554 142T503 54T426 4T331 -12Q299 -12 274 -6T226 11V-220H62V525L187 540ZM227 112Q259 91 297 91Q321 91 341
99T375 127T397 181T405 267Q405 315 399 347T380 398T350 424T308 432Q284 432 264 423T227 399V112Z" />
<glyph unicode="q" glyph-name="q" horiz-adv-x="612" d="M331 546Q393 546 447 538T550 514V-220H387V28L383 29Q369 12 340 1T268 -11Q218 -11 177 5T105 55T59 140T42 261Q42 334 64 387T124 476T216 529T331 546ZM385 429Q371 434 357 437T325 440Q301 440
280 431T244 401T219 348T210 269Q210 222 217 189T237 136T269 106T310 96Q336 96 354 105T385 125V429Z" />
<glyph unicode="r" glyph-name="r" horiz-adv-x="420" d="M223 454Q239 493 276 518T357 544Q374 544 385 542T406 537L386 390H372Q364 394 353 396T328 399Q297 399 271 385T228 349V0H62V525L187 540H210L216 454H223Z" />
<glyph unicode="s" glyph-name="s" horiz-adv-x="504" d="M400 403H385Q368 420 334 432T264 445Q199 445 199 401Q199 388 204 379T223 363T255 348T304 332Q344 320 374 306T425 272T456 228T466 166Q466 80 414 34T251 -12Q183 -12 128 8T37 55L85 147H99Q124
124 163 107T249 89Q287 89 303 99T320 134Q320 148 315 158T295 176T257 193T197 213Q125 235 92 275T58 378Q58 421 74 452T119 505T186 536T269 546Q332 546 375 531T446 493L400 403Z" />
<glyph unicode="t" glyph-name="t" horiz-adv-x="420" d="M237 683H262V534H379V430H262V157Q262 104 312 104Q342 104 360 117H372L399 24Q376 9 341 -1T255 -12Q176 -12 136 24T96 139V430H22V520L98 534L107 666L237 683Z" />
<glyph unicode="u" glyph-name="u" horiz-adv-x="611" d="M549 0H403L395 67H387Q363 34 327 11T231 -12Q146 -12 103 29T60 156V526L204 540H226V180Q226 138 242 121T295 103Q324 103 345 112T384 139V526L525 540H548L549 0Z" />
<glyph unicode="v" glyph-name="v" horiz-adv-x="568" d="M303 159L416 534H552V521L374 0H190L17 522V534H181L294 159H303Z" />
<glyph unicode="w" glyph-name="w" horiz-adv-x="819" d="M568 182L649 534H797V522L662 0H500L414 342H407L320 0H157L22 522V534H174L256 182H263L345 534H478L560 182H568Z" />
<glyph unicode="x" glyph-name="x" horiz-adv-x="559" d="M294 367H301L393 534H530V521L370 271L534 13V0H369L269 169H260L164 0H25V13L188 263L28 522V534H198L294 367Z" />
<glyph unicode="y" glyph-name="y" horiz-adv-x="554" d="M116 -117Q144 -117 158 -104T185 -59L205 -5L20 522V534H189L264 266L285 169H293L316 266L396 534H535V522L344 -43Q328 -90 311 -125T269 -182T213 -216T135 -227Q107 -227 80 -223T31 -211L55 -105H66Q77
-110 89 -113T116 -117Z" />
<glyph unicode="z" glyph-name="z" horiz-adv-x="515" d="M468 534L472 433L234 115V107H477L473 0H41L37 97L278 418V426H46L54 534H468Z" />
<glyph unicode="{" glyph-name="braceleft" horiz-adv-x="420" d="M301 20Q301 -20 316 -38T378 -57H396V-152H353Q294 -152 255 -138T194 -101T162 -47T153 17V171Q153 254 83 254H48V355H83Q153 355 153 439V591Q153 624 162 654T193 708T255 746T353 760H396V665H378Q331
665 316 647T301 589V435Q301 378 268 346T184 308V301Q235 296 268 264T301 174V20Z" />
<glyph unicode="|" glyph-name="bar" horiz-adv-x="280" d="M193 -132H87V738H193V-132Z" />
<glyph unicode="}" glyph-name="braceright" horiz-adv-x="420" d="M119 174Q119 231 152 263T236 301V308Q185 313 152 345T119 435V589Q119 628 104 646T42 665H24V760H67Q126 760 165 746T226 709T258 655T267 591V437Q267 353 338 353H372V256H338Q267 256
267 172V17Q267 -16 258 -46T227 -100T165 -138T67 -152H24V-57H42Q88 -57 103 -39T119 20V174Z" />
<glyph unicode="&#xa0;" glyph-name="uni00A0" horiz-adv-x="231" />
<glyph unicode="&#xa1;" glyph-name="exclamdown" horiz-adv-x="325" d="M68 497Q68 535 94 559T162 584Q206 584 231 560T257 497Q257 459 232 435T162 410Q120 410 94 434T68 497ZM234 341L250 -135H74L90 341H234Z" />
<glyph unicode="&#xa2;" glyph-name="cent" horiz-adv-x="537" d="M407 641L395 541Q428 535 454 525T501 499L457 396H444Q420 415 382 423L346 112Q379 113 406 124T451 152H465L513 57Q483 28 439 10T332 -11L321 -108H240L251 -5Q149 14 95 87T40 269Q40 335
62 386T121 471T209 525T314 546L325 641H407ZM199 271Q199 216 217 181T267 129L300 425Q257 415 228 378T199 271Z" />
<glyph unicode="&#xa3;" glyph-name="sterling" horiz-adv-x="585" d="M255 297Q256 285 256 274T257 252Q257 227 254 208T245 174T231 147T213 123H539L532 0H68L41 106Q56 123 66 138T83 172T93 212T96 264Q96 288 94 314T89 368T84 423T81 474Q81 525 97 569T147
647T230 699T348 718Q418 718 465 701T547 652L486 558H474Q451 578 427 589T364 600Q297 600 270 565T242 472Q242 458 242 443T244 412H431L427 297H255Z" />
<glyph unicode="&#xa5;" glyph-name="yen" horiz-adv-x="690" d="M207 380L38 694V706H211L358 401H362L507 706H653V694L483 380H623V295H429V222H623V137H429V0H260V137H71V222H260V295H71V380H207Z" />
<glyph unicode="&#xa7;" glyph-name="section" horiz-adv-x="629" d="M124 -27H138Q167 -51 208 -64T302 -78Q353 -78 378 -64T404 -24Q404 -10 398 1T377 21T336 40T270 60Q205 76 163 96T97 142T64 197T54 258Q54 289 63 313T87 357T122 389T163 410Q126 434
108 466T89 546Q89 588 106 620T156 675T234 708T333 719Q407 719 455 701T544 651L492 563H479Q450 585 417 597T335 610Q282 610 260 594T238 552Q238 541 242 531T258 511T294 491T358 471Q421 456 462 437T529 394T565 339T576 272Q576 243 567 220T544 177T511
145T473 123Q514 100 536 68T558 -13Q558 -91 498 -139T310 -188Q229 -188 168 -169T68 -117L124 -27ZM272 362Q234 354 214 333T194 280Q194 262 200 248T223 222T265 200T332 177Q339 175 345 173T359 169Q394 177 413 198T433 251Q433 269 428 282T408 308T368
331T303 353L272 362Z" />
<glyph unicode="&#xa8;" glyph-name="dieresis" horiz-adv-x="446" d="M323 734Q352 734 373 715T394 664Q394 632 373 613T323 594Q293 594 272 613T251 664Q251 696 272 715T323 734ZM123 734Q153 734 174 715T195 664Q195 632 174 613T123 594Q94 594 73 613T52
664Q52 696 73 715T123 734Z" />
<glyph unicode="&#xa9;" glyph-name="copyright" horiz-adv-x="826" d="M219 354Q219 406 236 445T281 511T348 550T429 564Q474 564 505 555T559 529L521 445H511Q500 455 481 462T440 470Q398 470 370 441T341 354Q341 302 369 273T445 243Q472 243 491 251T520
269H530L568 192Q548 173 512 159T424 144Q376 144 338 160T273 204T233 271T219 354ZM49 354Q49 431 76 498T151 614T266 691T414 719Q495 719 562 691T677 614T752 498T779 354Q779 276 753 209T678 93T562 15T414 -13Q333 -13 266 15T151 92T76 209T49 354ZM701
354Q701 418 680 472T622 567T531 631T414 654Q349 654 296 631T205 568T146 473T125 354Q125 291 146 236T205 141T296 77T414 53Q478 53 531 76T621 140T680 236T701 354Z" />
<glyph unicode="&#xaa;" glyph-name="ordfeminine" horiz-adv-x="468" d="M270 352Q256 335 229 317T158 298Q104 298 72 325T40 405Q40 432 48 451T71 483T109 506T159 525L259 555V576Q259 605 244 619T190 634Q159 634 134 627T88 609H77L49 683Q81 699 125
709T220 719Q302 719 343 690T385 596L386 399Q386 386 390 382T404 377Q410 377 415 378T422 380H428L445 318Q431 308 408 302T359 296Q321 296 302 312T276 352H270ZM259 494L207 478Q179 469 167 457T155 421Q155 394 170 384T204 373Q222 373 236 380T259
396V494Z" />
<glyph unicode="&#xab;" glyph-name="guillemotleft" horiz-adv-x="572" d="M277 256V285L401 464H525V449L420 271L525 91V76H401L277 256ZM47 285L171 464H296V449L191 271L296 91V76H171L47 256V285Z" />
<glyph unicode="&#xae;" glyph-name="registered" horiz-adv-x="521" d="M41 500Q41 546 57 586T102 655T171 702T261 719Q310 719 350 702T420 656T465 586T481 500Q481 453 465 413T420 342T351 295T261 278Q212 278 172 295T102 342T57 412T41 500ZM433 500Q433
538 421 570T386 627T332 665T261 679Q223 679 191 665T136 627T101 571T88 500Q88 461 100 428T136 371T191 334T261 320Q300 320 331 333T385 371T420 428T433 500ZM253 618Q357 618 357 534Q357 510 347 494T319 468L362 387V378H298L260 456H230V378H169V618H253ZM256
502Q293 502 293 537Q293 571 254 571H230V502H256Z" />
<glyph unicode="&#xaf;" glyph-name="macron" horiz-adv-x="399" d="M344 713V610H55V713H344Z" />
<glyph unicode="&#xb0;" glyph-name="degree" horiz-adv-x="409" d="M45 564Q45 599 57 628T91 678T142 710T204 722Q238 722 267 711T317 678T351 628T364 564Q364 529 352 500T318 450T267 418T204 406Q171 406 142 417T92 450T58 500T45 564ZM272 564Q272 600
252 619T204 638Q178 638 158 619T137 564Q137 528 157 509T204 490Q231 490 251 509T272 564Z" />
<glyph unicode="&#xb4;" glyph-name="acute" horiz-adv-x="313" d="M171 588H47V597L135 746H285V736L171 588Z" />
<glyph unicode="&#xb6;" glyph-name="paragraph" horiz-adv-x="703" d="M38 476Q38 531 57 573T109 645T190 690T295 706H628V-179H518V604H418V-179H308V260H295Q236 260 189 275T108 319T56 388T38 476Z" />
<glyph unicode="&#xb7;" glyph-name="periodcentered" horiz-adv-x="317" d="M65 307Q65 348 90 373T159 399Q202 399 227 374T252 307Q252 267 227 242T159 216Q115 216 90 241T65 307Z" />
<glyph unicode="&#xb8;" glyph-name="cedilla" horiz-adv-x="307" d="M53 -161H62Q71 -166 83 -169T107 -173Q154 -173 154 -142Q154 -125 141 -116T97 -107Q86 -107 76 -109L71 -104L133 32L199 14L171 -48Q216 -53 241 -80T266 -143Q266 -190 232 -217T138 -245Q65
-245 26 -215L53 -161Z" />
<glyph unicode="&#xba;" glyph-name="ordmasculine" horiz-adv-x="486" d="M42 507Q42 609 96 664T243 719Q286 719 323 706T387 667T429 602T445 509Q445 408 390 353T243 297Q199 297 163 310T99 349T57 414T42 507ZM316 509Q316 578 296 606T243 634Q209 634
190 605T171 506Q171 436 190 409T243 381Q278 381 297 411T316 509Z" />
<glyph unicode="&#xbb;" glyph-name="guillemotright" horiz-adv-x="572" d="M46 76V91L151 271L46 449V464H171L295 285V256L171 76H46ZM400 76H276V91L381 271L276 449V464H401L525 285V256L400 76Z" />
<glyph unicode="&#xbc;" glyph-name="onequarter" horiz-adv-x="900" d="M60 575H51L34 659L190 709L249 703V272H124V592L60 575ZM480 94L472 165L642 434H788V172H857L851 94H788V0H669V94H480ZM669 329H660L562 172H669V329ZM593 706H701V697L249 0H141V9L593 706Z" />
<glyph unicode="&#xbd;" glyph-name="onehalf" horiz-adv-x="932" d="M53 575H44L27 659L183 709L242 703V272H117V592L53 575ZM566 87Q617 124 651 153T707 205T737 247T746 284Q746 313 730 329T680 346Q655 346 635 339T602 321H593L555 392Q619 441 709 441Q788
441 832 408T876 306Q876 277 869 254T842 206T791 156T711 97V92H891L885 0H569L566 87V87ZM586 706H694V697L242 0H134V9L586 706Z" />
<glyph unicode="&#xbe;" glyph-name="threequarters" horiz-adv-x="991" d="M67 382H76Q93 369 114 362T163 355Q199 355 215 367T232 405Q232 428 213 441T151 454H127V532H153Q188 532 207 544T226 577Q226 600 212 612T165 624Q146 624 125 618T92 600H83L50
668Q79 690 119 701T204 713Q277 713 317 684T357 600Q357 559 330 534T252 500V495Q305 490 336 463T368 386Q368 329 323 297T194 264Q140 264 98 277T33 308L67 382ZM571 94L563 165L733 434H879V172H948L942 94H879V0H760V94H571ZM760 329H751L653 172H760V329ZM683
706H791V697L339 0H231V9L683 706Z" />
<glyph unicode="&#xbf;" glyph-name="questiondown" horiz-adv-x="535" d="M40 74Q40 126 58 165T106 229T176 268T262 281H271V365H402V188H362Q296 188 259 166T221 85Q221 35 248 9T325 -17Q361 -17 388 -7T439 21H455L510 -78Q468 -110 415 -128T291 -147Q167
-147 104 -87T40 74ZM244 496Q244 534 269 558T339 583Q381 583 406 559T432 496Q432 459 407 434T339 409Q295 409 270 434T244 496Z" />
<glyph unicode="&#xc0;" glyph-name="Agrave" horiz-adv-x="710" d="M458 161H226L181 0H23V10L255 706H451L687 10V0H501L458 161ZM262 280H425L350 542H340L262 280ZM189 911H349L431 773V764H300L189 902V911Z" />
<glyph unicode="&#xc1;" glyph-name="Aacute" horiz-adv-x="710" d="M458 161H226L181 0H23V10L255 706H451L687 10V0H501L458 161ZM262 280H425L350 542H340L262 280ZM408 764H277V773L359 911H519V902L408 764Z" />
<glyph unicode="&#xc2;" glyph-name="Acircumflex" horiz-adv-x="710" d="M458 161H226L181 0H23V10L255 706H451L687 10V0H501L458 161ZM262 280H425L350 542H340L262 280ZM280 908H420L529 774V764H411L350 832L290 764H171V774L280 908Z" />
<glyph unicode="&#xc3;" glyph-name="Atilde" horiz-adv-x="710" d="M458 161H226L181 0H23V10L255 706H451L687 10V0H501L458 161ZM262 280H425L350 542H340L262 280ZM296 808Q282 808 274 799T264 767H183Q182 772 182 777T182 785Q182 851 210 882T284 913Q308
913 325 906T356 890T382 874T407 867Q421 867 427 875T434 908H517Q518 901 518 896T518 890Q518 825 493 794T423 762Q398 762 380 769T346 785T319 801T296 808Z" />
<glyph unicode="&#xc4;" glyph-name="Adieresis" horiz-adv-x="710" d="M458 161H226L181 0H23V10L255 706H451L687 10V0H501L458 161ZM262 280H425L350 542H340L262 280ZM178 1090Q178 1122 199 1142T251 1162Q281 1162 302 1142T323 1090Q323 1058 302 1039T251
1019Q220 1019 199 1038T178 1090ZM378 1090Q378 1122 399 1142T451 1162Q480 1162 501 1142T523 1090Q523 1058 502 1039T451 1019Q420 1019 399 1038T378 1090Z" />
<glyph unicode="&#xc5;" glyph-name="Aring" horiz-adv-x="710" d="M458 161H226L181 0H23V10L255 706H451L687 10V0H501L458 161ZM262 280H425L350 542H340L262 280ZM233 851Q233 895 265 922T350 950Q403 950 435 923T467 851Q467 808 435 780T350 752Q297 752
265 780T233 851ZM392 851Q392 868 380 879T350 890Q331 890 320 879T309 851Q309 834 320 824T350 813Q368 813 380 823T392 851Z" />
<glyph unicode="&#xc6;" glyph-name="AE" horiz-adv-x="934" d="M316 706H889L881 584H605V420H821L816 303H605V122H893L886 0H431V167H235L162 0H5V10L316 706ZM288 286H431V585H420L288 286Z" />
<glyph unicode="&#xc7;" glyph-name="Ccedilla" horiz-adv-x="661" d="M273 -161H282Q290 -166 302 -170T329 -175Q377 -175 377 -142Q377 -126 365 -117T322 -107Q318 -107 311 -107T299 -109L294 -104L356 33L423 14L393 -50Q438 -55 464 -81T490 -144Q490 -191
455 -219T359 -248Q321 -248 293 -240T245 -217L273 -161ZM632 73Q597 38 536 13T392 -12Q311 -12 247 14T137 89T68 204T44 354Q44 439 69 506T140 621T252 693T399 718Q438 718 471 712T532 694T583 669T624 641L565 530H550Q525 555 492 571T413 587Q373 587
338 573T278 531T238 461T223 362Q223 240 276 182T417 123Q467 123 500 140T556 178H571L632 73Z" />
<glyph unicode="&#xc8;" glyph-name="Egrave" horiz-adv-x="580" d="M141 912H301L383 774V765H252L141 903V912ZM462 303H241V122H539L532 0H67V706H535L528 584H241V420H467L462 303Z" />
<glyph unicode="&#xc9;" glyph-name="Eacute" horiz-adv-x="580" d="M360 765H229V774L311 912H471V903L360 765ZM462 303H241V122H539L532 0H67V706H535L528 584H241V420H467L462 303Z" />
<glyph unicode="&#xca;" glyph-name="Ecircumflex" horiz-adv-x="580" d="M232 909H372L481 775V765H363L302 833L242 765H123V775L232 909ZM462 303H241V122H539L532 0H67V706H535L528 584H241V420H467L462 303Z" />
<glyph unicode="&#xcb;" glyph-name="Edieresis" horiz-adv-x="580" d="M462 303H241V122H539L532 0H67V706H535L528 584H241V420H467L462 303ZM130 835Q130 867 151 887T203 907Q233 907 254 887T275 835Q275 803 254 784T203 764Q172 764 151 783T130 835ZM330
835Q330 867 351 887T403 907Q432 907 453 887T475 835Q475 803 454 784T403 764Q372 764 351 783T330 835Z" />
<glyph unicode="&#xcc;" glyph-name="Igrave" horiz-adv-x="308" d="M67 0V706H241V0H67ZM249 912H409L491 774V765H360L249 903V912Z" />
<glyph unicode="&#xcd;" glyph-name="Iacute" horiz-adv-x="308" d="M67 0V706H241V0H67ZM212 765H81V774L163 912H323V903L212 765Z" />
<glyph unicode="&#xce;" glyph-name="Icircumflex" horiz-adv-x="308" d="M67 0V706H241V0H67ZM340 909H480L589 775V765H471L410 833L350 765H231V775L340 909Z" />
<glyph unicode="&#xcf;" glyph-name="Idieresis" horiz-adv-x="308" d="M67 0V706H241V0H67ZM238 835Q238 867 259 887T311 907Q341 907 362 887T383 835Q383 803 362 784T311 764Q280 764 259 783T238 835ZM438 835Q438 867 459 887T511 907Q540 907 561 887T583
835Q583 803 562 784T511 764Q480 764 459 783T438 835Z" />
<glyph unicode="&#xd0;" glyph-name="Eth" horiz-adv-x="743" d="M97 299H22V411H97V706H335Q522 706 610 620T699 358Q699 185 614 93T356 0H97V299ZM345 117Q391 117 424 129T479 170T510 245T520 360Q520 481 479 534T344 588H268V411H402V299H268V117H345Z" />
<glyph unicode="&#xd1;" glyph-name="Ntilde" horiz-adv-x="712" d="M302 809Q288 809 280 800T270 768H189Q188 773 188 778T188 786Q188 852 216 883T290 914Q314 914 331 907T362 891T388 875T413 868Q427 868 433 876T440 909H523Q524 902 524 897T524 891Q524
826 499 795T429 763Q404 763 386 770T352 786T325 802T302 809ZM485 0L219 498H212Q212 487 212 449T212 360T213 250T214 141T215 51T216 0H67V706H247L492 256H501Q501 265 501 299T501 379T500 479T499 578T497 660T496 706H645V0H485Z" />
<glyph unicode="&#xd2;" glyph-name="Ograve" horiz-adv-x="771" d="M222 912H382L464 774V765H333L222 903V912ZM387 108Q547 108 547 352Q547 482 505 539T383 597Q302 597 263 538T224 354Q224 223 266 166T387 108ZM383 718Q464 718 527 692T635 617T702 504T726
360Q726 277 703 209T637 91T530 15T388 -12Q307 -12 244 14T136 89T68 202T44 346Q44 429 67 497T134 615T240 691T383 718Z" />
<glyph unicode="&#xd3;" glyph-name="Oacute" horiz-adv-x="771" d="M442 765H311V774L393 912H553V903L442 765ZM387 108Q547 108 547 352Q547 482 505 539T383 597Q302 597 263 538T224 354Q224 223 266 166T387 108ZM383 718Q464 718 527 692T635 617T702 504T726
360Q726 277 703 209T637 91T530 15T388 -12Q307 -12 244 14T136 89T68 202T44 346Q44 429 67 497T134 615T240 691T383 718Z" />
<glyph unicode="&#xd4;" glyph-name="Ocircumflex" horiz-adv-x="771" d="M313 909H453L562 775V765H444L383 833L323 765H204V775L313 909ZM387 108Q547 108 547 352Q547 482 505 539T383 597Q302 597 263 538T224 354Q224 223 266 166T387 108ZM383 718Q464
718 527 692T635 617T702 504T726 360Q726 277 703 209T637 91T530 15T388 -12Q307 -12 244 14T136 89T68 202T44 346Q44 429 67 497T134 615T240 691T383 718Z" />
<glyph unicode="&#xd5;" glyph-name="Otilde" horiz-adv-x="771" d="M329 809Q315 809 307 800T297 768H216Q215 773 215 778T215 786Q215 852 243 883T317 914Q341 914 358 907T389 891T415 875T440 868Q454 868 460 876T467 909H550Q551 902 551 897T551 891Q551
826 526 795T456 763Q431 763 413 770T379 786T352 802T329 809ZM387 108Q547 108 547 352Q547 482 505 539T383 597Q302 597 263 538T224 354Q224 223 266 166T387 108ZM383 718Q464 718 527 692T635 617T702 504T726 360Q726 277 703 209T637 91T530 15T388 -12Q307
-12 244 14T136 89T68 202T44 346Q44 429 67 497T134 615T240 691T383 718Z" />
<glyph unicode="&#xd6;" glyph-name="Odieresis" horiz-adv-x="771" d="M211 835Q211 867 232 887T284 907Q314 907 335 887T356 835Q356 803 335 784T284 764Q253 764 232 783T211 835ZM411 835Q411 867 432 887T484 907Q513 907 534 887T556 835Q556 803 535
784T484 764Q453 764 432 783T411 835ZM387 108Q547 108 547 352Q547 482 505 539T383 597Q302 597 263 538T224 354Q224 223 266 166T387 108ZM383 718Q464 718 527 692T635 617T702 504T726 360Q726 277 703 209T637 91T530 15T388 -12Q307 -12 244 14T136 89T68
202T44 346Q44 429 67 497T134 615T240 691T383 718Z" />
<glyph unicode="&#xd7;" glyph-name="multiply" horiz-adv-x="593" d="M144 522L296 362L449 521L538 436L382 273L536 112L447 27L296 183L144 24L55 110L211 273L55 436L144 522Z" />
<glyph unicode="&#xd8;" glyph-name="Oslash" horiz-adv-x="765" d="M120 114Q84 161 65 220T45 349Q45 431 68 499T134 616T240 691T383 718Q437 718 485 704T572 663L608 706H727V692L647 594Q683 547 703 487T723 358Q723 276 701 208T635 92T528 16T385 -11Q329
-11 281 3T193 45L157 0H37V13L120 114ZM548 352Q548 416 537 465L275 147Q315 106 386 106Q471 106 509 165T548 352ZM220 355Q220 289 230 245L490 561Q452 600 383 600Q298 600 259 540T220 355Z" />
<glyph unicode="&#xd9;" glyph-name="Ugrave" horiz-adv-x="728" d="M203 912H363L445 774V765H314L203 903V912ZM365 110Q393 110 416 116T455 139T479 181T488 247V706H660V263Q660 185 638 133T577 48T484 3T365 -11Q300 -11 246 2T152 48T90 132T68 263V706H242L241
247Q241 170 274 140T365 110Z" />
<glyph unicode="&#xda;" glyph-name="Uacute" horiz-adv-x="728" d="M423 765H292V774L374 912H534V903L423 765ZM365 110Q393 110 416 116T455 139T479 181T488 247V706H660V263Q660 185 638 133T577 48T484 3T365 -11Q300 -11 246 2T152 48T90 132T68 263V706H242L241
247Q241 170 274 140T365 110Z" />
<glyph unicode="&#xdb;" glyph-name="Ucircumflex" horiz-adv-x="728" d="M294 909H434L543 775V765H425L364 833L304 765H185V775L294 909ZM365 110Q393 110 416 116T455 139T479 181T488 247V706H660V263Q660 185 638 133T577 48T484 3T365 -11Q300 -11 246
2T152 48T90 132T68 263V706H242L241 247Q241 170 274 140T365 110Z" />
<glyph unicode="&#xdc;" glyph-name="Udieresis" horiz-adv-x="728" d="M365 110Q393 110 416 116T455 139T479 181T488 247V706H660V263Q660 185 638 133T577 48T484 3T365 -11Q300 -11 246 2T152 48T90 132T68 263V706H242L241 247Q241 170 274 140T365 110ZM192
835Q192 867 213 887T265 907Q295 907 316 887T337 835Q337 803 316 784T265 764Q234 764 213 783T192 835ZM392 835Q392 867 413 887T465 907Q494 907 515 887T537 835Q537 803 516 784T465 764Q434 764 413 783T392 835Z" />
<glyph unicode="&#xdd;" glyph-name="Yacute" horiz-adv-x="669" d="M16 694V706H194L344 402H354L498 706H649V695L420 269V0H246V269L16 694ZM395 765H264V774L346 912H506V903L395 765Z" />
<glyph unicode="&#xde;" glyph-name="Thorn" horiz-adv-x="627" d="M241 706V577H318Q461 577 525 520T590 357Q590 244 524 189T312 133H241V0H67V706H241ZM241 456V248H303Q362 248 389 272T417 353Q417 409 390 432T309 456H241Z" />
<glyph unicode="&#xdf;" glyph-name="germandbls" horiz-adv-x="668" d="M293 124H307Q324 107 348 99T397 90Q468 90 468 140Q468 154 464 165T449 187T420 210T376 238Q334 264 317 293T300 360Q300 398 319 427T360 479Q379 500 392 523T406 572Q406 610 385
628T327 646Q275 646 251 616T226 531V0H60V521Q60 579 80 623T138 695T225 738T335 753Q395 753 440 741T514 706T558 655T573 591Q573 546 553 515T508 461Q488 443 469 423T450 383Q450 370 455 361T468 344T489 329T515 313Q549 292 572 273T609 234T630 191T636
144Q636 66 585 28T441 -11Q390 -11 342 0T263 36L293 124Z" />
<glyph unicode="&#xe0;" glyph-name="agrave" horiz-adv-x="577" d="M53 499Q96 520 152 533T274 546Q380 546 435 508T490 386V120Q490 91 514 91Q528 91 536 96H543L563 15Q546 2 519 -5T460 -12Q360 -12 344 69H335Q321 37 283 13T191 -11Q120 -11 80 25T40
130Q40 164 50 188T78 231T124 261T188 284L324 326V358Q324 399 306 418T235 438Q197 438 164 429T102 406H89L53 499ZM324 248L253 226Q191 208 191 146Q191 111 209 97T250 83Q270 83 290 92T324 115V248ZM122 746H272L360 597V588H236L122 736V746Z" />
<glyph unicode="&#xe1;" glyph-name="aacute" horiz-adv-x="577" d="M53 499Q96 520 152 533T274 546Q380 546 435 508T490 386V120Q490 91 514 91Q528 91 536 96H543L563 15Q546 2 519 -5T460 -12Q360 -12 344 69H335Q321 37 283 13T191 -11Q120 -11 80 25T40
130Q40 164 50 188T78 231T124 261T188 284L324 326V358Q324 399 306 418T235 438Q197 438 164 429T102 406H89L53 499ZM324 248L253 226Q191 208 191 146Q191 111 209 97T250 83Q270 83 290 92T324 115V248ZM328 588H204V597L292 746H442V736L328 588Z" />
<glyph unicode="&#xe2;" glyph-name="acircumflex" horiz-adv-x="577" d="M53 499Q96 520 152 533T274 546Q380 546 435 508T490 386V120Q490 91 514 91Q528 91 536 96H543L563 15Q546 2 519 -5T460 -12Q360 -12 344 69H335Q321 37 283 13T191 -11Q120 -11 80
25T40 130Q40 164 50 188T78 231T124 261T188 284L324 326V358Q324 399 306 418T235 438Q197 438 164 429T102 406H89L53 499ZM324 248L253 226Q191 208 191 146Q191 111 209 97T250 83Q270 83 290 92T324 115V248ZM445 590H332L278 660L225 590H113V601L216 743H342L445
601V590Z" />
<glyph unicode="&#xe3;" glyph-name="atilde" horiz-adv-x="577" d="M53 499Q96 520 152 533T274 546Q380 546 435 508T490 386V120Q490 91 514 91Q528 91 536 96H543L563 15Q546 2 519 -5T460 -12Q360 -12 344 69H335Q321 37 283 13T191 -11Q120 -11 80 25T40
130Q40 164 50 188T78 231T124 261T188 284L324 326V358Q324 399 306 418T235 438Q197 438 164 429T102 406H89L53 499ZM324 248L253 226Q191 208 191 146Q191 111 209 97T250 83Q270 83 290 92T324 115V248ZM228 642Q199 642 193 597H117V615Q117 680 145 711T216
742Q239 742 255 735T284 718T308 701T333 693Q345 693 354 702T364 737H442Q442 733 442 730T443 725V719Q443 654 420 623T354 592Q329 592 311 600T279 617T252 634T228 642Z" />
<glyph unicode="&#xe4;" glyph-name="adieresis" horiz-adv-x="577" d="M53 499Q96 520 152 533T274 546Q380 546 435 508T490 386V120Q490 91 514 91Q528 91 536 96H543L563 15Q546 2 519 -5T460 -12Q360 -12 344 69H335Q321 37 283 13T191 -11Q120 -11 80 25T40
130Q40 164 50 188T78 231T124 261T188 284L324 326V358Q324 399 306 418T235 438Q197 438 164 429T102 406H89L53 499ZM324 248L253 226Q191 208 191 146Q191 111 209 97T250 83Q270 83 290 92T324 115V248ZM380 734Q409 734 430 715T451 664Q451 632 430 613T380
594Q350 594 329 613T308 664Q308 696 329 715T380 734ZM180 734Q210 734 231 715T252 664Q252 632 231 613T180 594Q151 594 130 613T109 664Q109 696 130 715T180 734Z" />
<glyph unicode="&#xe5;" glyph-name="aring" horiz-adv-x="577" d="M53 499Q96 520 152 533T274 546Q380 546 435 508T490 386V120Q490 91 514 91Q528 91 536 96H543L563 15Q546 2 519 -5T460 -12Q360 -12 344 69H335Q321 37 283 13T191 -11Q120 -11 80 25T40
130Q40 164 50 188T78 231T124 261T188 284L324 326V358Q324 399 306 418T235 438Q197 438 164 429T102 406H89L53 499ZM324 248L253 226Q191 208 191 146Q191 111 209 97T250 83Q270 83 290 92T324 115V248ZM163 680Q163 725 195 754T279 783Q331 783 364 754T397
680Q397 635 364 607T279 579Q228 579 196 607T163 680ZM323 680Q323 700 311 712T279 725Q259 725 247 713T235 680Q235 660 247 649T279 637Q299 637 311 648T323 680Z" />
<glyph unicode="&#xe6;" glyph-name="ae" horiz-adv-x="837" d="M791 57Q761 31 710 10T579 -12Q510 -12 460 9T376 73H370Q345 36 303 13T202 -11Q126 -11 83 28T39 132Q39 166 49 191T79 233T125 263T184 285Q195 288 215 293T256 302T295 311T323 316V356Q323
398 304 418T231 438Q193 438 160 429T100 404H87L52 499Q143 546 258 546Q315 546 354 531T417 490Q474 545 562 545Q623 545 666 526T735 468T774 372T786 238H475Q481 173 512 137T611 100Q650 100 679 110T733 143H744L791 57ZM563 450Q519 450 499 418T475
314L639 317Q638 384 623 417T563 450ZM252 85Q276 85 300 96T343 129Q332 153 326 181T318 241Q297 239 274 233T234 219Q210 208 200 192T189 152Q189 114 208 100T252 85Z" />
<glyph unicode="&#xe7;" glyph-name="ccedilla" horiz-adv-x="533" d="M510 57Q478 26 432 8T317 -11Q251 -11 200 9T113 66T60 154T42 269Q42 338 65 389T126 476T216 528T325 546Q383 546 425 534T497 499L453 396H440Q423 411 398 420T343 429Q316 429 292
420T249 391T221 342T210 271Q210 188 245 150T346 112Q380 112 405 123T447 152H462L510 57ZM192 -161H201Q210 -166 222 -169T246 -173Q293 -173 293 -142Q293 -125 280 -116T236 -107Q225 -107 215 -109L210 -104L272 32L338 14L310 -48Q355 -53 380 -80T405
-143Q405 -190 371 -217T277 -245Q204 -245 165 -215L192 -161Z" />
<glyph unicode="&#xe8;" glyph-name="egrave" horiz-adv-x="576" d="M211 238Q216 166 250 134T352 101Q389 101 416 112T470 143H484L530 58Q500 31 447 10T319 -12Q255 -12 204 7T117 62T62 150T42 269Q42 335 62 387T117 474T198 527T298 546Q422 546 476 468T530
238H211ZM299 451Q221 451 211 314L378 316Q376 384 360 417T299 451ZM145 746H295L383 597V588H259L145 736V746Z" />
<glyph unicode="&#xe9;" glyph-name="eacute" horiz-adv-x="576" d="M351 588H227V597L315 746H465V736L351 588ZM211 238Q216 166 250 134T352 101Q389 101 416 112T470 143H484L530 58Q500 31 447 10T319 -12Q255 -12 204 7T117 62T62 150T42 269Q42 335 62
387T117 474T198 527T298 546Q422 546 476 468T530 238H211ZM299 451Q221 451 211 314L378 316Q376 384 360 417T299 451Z" />
<glyph unicode="&#xea;" glyph-name="ecircumflex" horiz-adv-x="576" d="M468 590H355L301 660L248 590H136V601L239 743H365L468 601V590ZM211 238Q216 166 250 134T352 101Q389 101 416 112T470 143H484L530 58Q500 31 447 10T319 -12Q255 -12 204 7T117 62T62
150T42 269Q42 335 62 387T117 474T198 527T298 546Q422 546 476 468T530 238H211ZM299 451Q221 451 211 314L378 316Q376 384 360 417T299 451Z" />
<glyph unicode="&#xeb;" glyph-name="edieresis" horiz-adv-x="576" d="M403 734Q432 734 453 715T474 664Q474 632 453 613T403 594Q373 594 352 613T331 664Q331 696 352 715T403 734ZM203 734Q233 734 254 715T275 664Q275 632 254 613T203 594Q174 594 153
613T132 664Q132 696 153 715T203 734ZM211 238Q216 166 250 134T352 101Q389 101 416 112T470 143H484L530 58Q500 31 447 10T319 -12Q255 -12 204 7T117 62T62 150T42 269Q42 335 62 387T117 474T198 527T298 546Q422 546 476 468T530 238H211ZM299 451Q221 451
211 314L378 316Q376 384 360 417T299 451Z" />
<glyph unicode="&#xec;" glyph-name="igrave" horiz-adv-x="294" d="M211 540H230V0H65V528L211 540ZM247 746H397L485 597V588H361L247 736V746Z" />
<glyph unicode="&#xed;" glyph-name="iacute" horiz-adv-x="294" d="M197 588H73V597L161 746H311V736L197 588ZM211 540H230V0H65V528L211 540Z" />
<glyph unicode="&#xee;" glyph-name="icircumflex" horiz-adv-x="294" d="M570 590H457L403 660L350 590H238V601L341 743H467L570 601V590ZM211 540H230V0H65V528L211 540Z" />
<glyph unicode="&#xef;" glyph-name="idieresis" horiz-adv-x="294" d="M504 734Q533 734 554 715T575 664Q575 632 554 613T504 594Q474 594 453 613T432 664Q432 696 453 715T504 734ZM304 734Q334 734 355 715T376 664Q376 632 355 613T304 594Q275 594 254
613T233 664Q233 696 254 715T304 734ZM211 540H230V0H65V528L211 540Z" />
<glyph unicode="&#xf0;" glyph-name="eth" horiz-adv-x="614" d="M246 655Q224 677 200 695T150 730V740L277 753H294Q335 728 371 696L468 729H478L500 665L427 641Q488 572 528 481T569 280Q569 137 502 63T311 -12Q248 -12 198 7T114 61T61 145T43 256Q43 318
59 367T105 451T175 503T264 521Q291 521 311 515T350 499H357Q331 553 297 598L154 551H145L124 614L246 655ZM404 271Q404 304 401 334T391 394Q376 408 357 417T313 427Q263 427 234 383T205 257Q205 175 229 133T307 90Q360 90 382 135T404 271Z" />
<glyph unicode="&#xf1;" glyph-name="ntilde" horiz-adv-x="612" d="M187 540H210L216 460H224Q237 477 255 492T297 520T347 539T403 546Q484 546 518 506T552 393V0H387V350Q387 385 373 401T324 418Q298 418 274 407T228 375V0H62V526L187 540ZM258 642Q229
642 223 597H147V615Q147 680 175 711T246 742Q269 742 285 735T314 718T338 701T363 693Q375 693 384 702T394 737H472Q472 733 472 730T473 725V719Q473 654 450 623T384 592Q359 592 341 600T309 617T282 634T258 642Z" />
<glyph unicode="&#xf2;" glyph-name="ograve" horiz-adv-x="612" d="M42 266Q42 332 61 384T114 472T197 527T305 546Q363 546 411 529T495 478T550 391T570 269Q570 202 551 150T498 62T414 7T305 -12Q248 -12 200 5T117 56T62 143T42 266ZM402 269Q402 318 396
351T377 405T346 435T305 444Q259 444 235 403T210 265Q210 216 216 183T235 129T265 99T305 90Q352 90 377 130T402 269ZM149 746H299L387 597V588H263L149 736V746Z" />
<glyph unicode="&#xf3;" glyph-name="oacute" horiz-adv-x="612" d="M355 588H231V597L319 746H469V736L355 588ZM42 266Q42 332 61 384T114 472T197 527T305 546Q363 546 411 529T495 478T550 391T570 269Q570 202 551 150T498 62T414 7T305 -12Q248 -12 200
5T117 56T62 143T42 266ZM402 269Q402 318 396 351T377 405T346 435T305 444Q259 444 235 403T210 265Q210 216 216 183T235 129T265 99T305 90Q352 90 377 130T402 269Z" />
<glyph unicode="&#xf4;" glyph-name="ocircumflex" horiz-adv-x="612" d="M472 590H359L305 660L252 590H140V601L243 743H369L472 601V590ZM42 266Q42 332 61 384T114 472T197 527T305 546Q363 546 411 529T495 478T550 391T570 269Q570 202 551 150T498 62T414
7T305 -12Q248 -12 200 5T117 56T62 143T42 266ZM402 269Q402 318 396 351T377 405T346 435T305 444Q259 444 235 403T210 265Q210 216 216 183T235 129T265 99T305 90Q352 90 377 130T402 269Z" />
<glyph unicode="&#xf5;" glyph-name="otilde" horiz-adv-x="612" d="M42 266Q42 332 61 384T114 472T197 527T305 546Q363 546 411 529T495 478T550 391T570 269Q570 202 551 150T498 62T414 7T305 -12Q248 -12 200 5T117 56T62 143T42 266ZM402 269Q402 318 396
351T377 405T346 435T305 444Q259 444 235 403T210 265Q210 216 216 183T235 129T265 99T305 90Q352 90 377 130T402 269ZM256 642Q227 642 221 597H145V615Q145 680 173 711T244 742Q267 742 283 735T312 718T336 701T361 693Q373 693 382 702T392 737H470Q470
733 470 730T471 725V719Q471 654 448 623T382 592Q357 592 339 600T307 617T280 634T256 642Z" />
<glyph unicode="&#xf6;" glyph-name="odieresis" horiz-adv-x="612" d="M407 734Q436 734 457 715T478 664Q478 632 457 613T407 594Q377 594 356 613T335 664Q335 696 356 715T407 734ZM207 734Q237 734 258 715T279 664Q279 632 258 613T207 594Q178 594 157
613T136 664Q136 696 157 715T207 734ZM42 266Q42 332 61 384T114 472T197 527T305 546Q363 546 411 529T495 478T550 391T570 269Q570 202 551 150T498 62T414 7T305 -12Q248 -12 200 5T117 56T62 143T42 266ZM402 269Q402 318 396 351T377 405T346 435T305 444Q259
444 235 403T210 265Q210 216 216 183T235 129T265 99T305 90Q352 90 377 130T402 269Z" />
<glyph unicode="&#xf7;" glyph-name="divide" horiz-adv-x="625" d="M228 81Q228 117 251 140T311 163Q348 163 371 140T394 81Q394 45 371 22T311 -1Q274 -1 251 22T228 81ZM228 507Q228 543 251 566T311 590Q348 590 371 567T394 507Q394 471 371 448T311 425Q274
425 251 448T228 507ZM563 356V233H62V356H563Z" />
<glyph unicode="&#xf8;" glyph-name="oslash" horiz-adv-x="610" d="M46 265Q46 331 64 383T117 471T199 526T306 545Q351 545 390 534T461 500L491 534H585V525L516 447Q540 413 553 369T567 269Q567 202 549 150T496 62T414 7T306 -12Q261 -12 222 -1T150 33L120
0H26V9L95 88Q72 122 59 166T46 265ZM408 269Q408 301 405 327L230 125Q244 103 263 95T306 87Q355 87 381 129T408 269ZM204 264Q204 247 204 233T206 206L381 408Q367 429 348 437T306 446Q258 446 231 404T204 264Z" />
<glyph unicode="&#xf9;" glyph-name="ugrave" horiz-adv-x="611" d="M549 0H403L395 67H387Q363 34 327 11T231 -12Q146 -12 103 29T60 156V526L204 540H226V180Q226 138 242 121T295 103Q324 103 345 112T384 139V526L525 540H548L549 0ZM150 746H300L388 597V588H264L150
736V746Z" />
<glyph unicode="&#xfa;" glyph-name="uacute" horiz-adv-x="611" d="M355 588H231V597L319 746H469V736L355 588ZM549 0H403L395 67H387Q363 34 327 11T231 -12Q146 -12 103 29T60 156V526L204 540H226V180Q226 138 242 121T295 103Q324 103 345 112T384 139V526L525
540H548L549 0Z" />
<glyph unicode="&#xfb;" glyph-name="ucircumflex" horiz-adv-x="611" d="M472 590H359L305 660L252 590H140V601L243 743H369L472 601V590ZM549 0H403L395 67H387Q363 34 327 11T231 -12Q146 -12 103 29T60 156V526L204 540H226V180Q226 138 242 121T295 103Q324
103 345 112T384 139V526L525 540H548L549 0Z" />
<glyph unicode="&#xfc;" glyph-name="udieresis" horiz-adv-x="611" d="M407 734Q436 734 457 715T478 664Q478 632 457 613T407 594Q377 594 356 613T335 664Q335 696 356 715T407 734ZM207 734Q237 734 258 715T279 664Q279 632 258 613T207 594Q178 594 157
613T136 664Q136 696 157 715T207 734ZM549 0H403L395 67H387Q363 34 327 11T231 -12Q146 -12 103 29T60 156V526L204 540H226V180Q226 138 242 121T295 103Q324 103 345 112T384 139V526L525 540H548L549 0Z" />
<glyph unicode="&#xfd;" glyph-name="yacute" horiz-adv-x="554" d="M116 -117Q144 -117 158 -104T185 -59L205 -5L20 522V534H189L264 266L285 169H293L316 266L396 534H535V522L344 -43Q328 -90 311 -125T269 -182T213 -216T135 -227Q107 -227 80 -223T31 -211L55
-105H66Q77 -110 89 -113T116 -117ZM331 588H207V597L295 746H445V736L331 588Z" />
<glyph unicode="&#xfe;" glyph-name="thorn" horiz-adv-x="614" d="M209 754H227V489H232Q256 513 291 529T371 545Q466 545 519 479T572 272Q572 196 554 142T503 54T426 4T331 -12Q298 -12 272 -5T227 14V-220H62V741L209 754ZM228 115Q240 104 259 97T299 90Q321
90 340 98T374 126T396 181T404 267Q404 315 398 347T380 397T351 424T310 432Q286 432 265 423T228 399V115Z" />
<glyph unicode="&#xff;" glyph-name="ydieresis" horiz-adv-x="554" d="M116 -117Q144 -117 158 -104T185 -59L205 -5L20 522V534H189L264 266L285 169H293L316 266L396 534H535V522L344 -43Q328 -90 311 -125T269 -182T213 -216T135 -227Q107 -227 80 -223T31
-211L55 -105H66Q77 -110 89 -113T116 -117ZM383 734Q412 734 433 715T454 664Q454 632 433 613T383 594Q353 594 332 613T311 664Q311 696 332 715T383 734ZM183 734Q213 734 234 715T255 664Q255 632 234 613T183 594Q154 594 133 613T112 664Q112 696 133 715T183
734Z" />
<glyph unicode="&#x131;" glyph-name="dotlessi" horiz-adv-x="294" d="M211 540H230V0H65V528L211 540Z" />
<glyph unicode="&#x141;" glyph-name="Lslash" horiz-adv-x="600" d="M101 346V706H273V418L449 493H461V375L273 295V132H562L555 0H101V223L32 194H21V312L101 346Z" />
<glyph unicode="&#x142;" glyph-name="lslash" horiz-adv-x="318" d="M214 753H239V483L296 516H306V411L239 373V0H75V280L21 250H12V355L75 390V738L214 753Z" />
<glyph unicode="&#x152;" glyph-name="OE" horiz-adv-x="983" d="M44 344Q44 426 67 492T135 606T245 680T394 706H939L931 586H646V419H870L865 304H646V120H943L935 0H395Q312 0 247 25T137 97T68 206T44 344ZM224 352Q224 290 238 246T278 174T339 132T418
118H479V587H416Q325 587 275 529T224 352Z" />
<glyph unicode="&#x153;" glyph-name="oe" horiz-adv-x="915" d="M868 57Q839 31 790 10T665 -12Q601 -12 556 7T478 64Q415 -12 298 -12Q243 -12 196 5T115 56T61 143T41 266Q41 332 59 384T111 472T192 526T298 545Q411 545 477 470Q538 545 642 545Q762 545
814 467T867 238H551Q556 172 589 137T692 101Q732 101 760 111T812 143H825L868 57ZM397 269Q397 318 391 351T372 404T342 434T302 443Q257 443 233 403T209 264Q209 215 215 182T233 128T262 99T302 90Q350 90 373 130T397 269ZM639 451Q595 451 575 418T552
314L717 317Q715 384 700 417T639 451Z" />
<glyph unicode="&#x160;" glyph-name="Scaron" horiz-adv-x="586" d="M117 909H236L296 840L356 909H475V898L366 764H226L117 898V909ZM83 186H100Q133 154 181 132T281 110Q338 110 361 126T384 178Q384 196 377 209T354 235T310 259T241 286Q190 305 155 328T97
378T64 437T54 509Q54 560 74 599T130 665T214 704T317 718Q390 718 442 696T529 645L470 539H455Q430 564 395 579T319 595Q275 595 247 579T219 529Q219 512 226 499T249 475T289 453T350 428Q404 408 442 387T503 339T538 279T549 202Q549 104 482 46T281 -12Q206
-12 138 12T23 78L83 186Z" />
<glyph unicode="&#x161;" glyph-name="scaron" horiz-adv-x="504" d="M321 590H195L92 733V743H205L258 672L311 743H424V733L321 590ZM400 403H385Q368 420 334 432T264 445Q199 445 199 401Q199 388 204 379T223 363T255 348T304 332Q344 320 374 306T425 272T456
228T466 166Q466 80 414 34T251 -12Q183 -12 128 8T37 55L85 147H99Q124 124 163 107T249 89Q287 89 303 99T320 134Q320 148 315 158T295 176T257 193T197 213Q125 235 92 275T58 378Q58 421 74 452T119 505T186 536T269 546Q332 546 375 531T446 493L400 403Z"
/>
<glyph unicode="&#x178;" glyph-name="Ydieresis" horiz-adv-x="669" d="M16 694V706H194L344 402H354L498 706H649V695L420 269V0H246V269L16 694ZM164 835Q164 867 185 887T237 907Q267 907 288 887T309 835Q309 803 288 784T237 764Q206 764 185 783T164 835ZM364
835Q364 867 385 887T437 907Q466 907 487 887T509 835Q509 803 488 784T437 764Q406 764 385 783T364 835Z" />
<glyph unicode="&#x17d;" glyph-name="Zcaron" horiz-adv-x="626" d="M137 909H256L316 840L376 909H495V898L386 764H246L137 898V909ZM252 140V131H589Q587 95 585 66Q584 53 584 42T583 21Q582 10 582 0H48L40 124L365 567V575H49L57 706H570L577 583L252 140Z" />
<glyph unicode="&#x17e;" glyph-name="zcaron" horiz-adv-x="515" d="M323 591H197L94 734V744H207L260 673L313 744H426V734L323 591ZM468 534L472 433L234 115V107H477L473 0H41L37 97L278 418V426H46L54 534H468Z" />
<glyph unicode="&#x192;" glyph-name="florin" horiz-adv-x="508" d="M169 408L190 539Q204 630 257 674T395 718Q434 718 460 711T504 695L479 603H467Q451 613 425 613Q365 613 353 540L332 408H453V307H316L264 -28Q256 -73 238 -103T194 -153T133 -181T59
-190Q22 -190 -8 -183T-55 -166L-28 -75H-15Q-6 -80 6 -82T32 -85Q61 -85 79 -71T103 -20L154 307H50V408H169Z" />
<glyph unicode="&#x2c6;" glyph-name="circumflex" horiz-adv-x="376" d="M354 590H241L187 660L134 590H22V601L125 743H251L354 601V590Z" />
<glyph unicode="&#x2c7;" glyph-name="caron" horiz-adv-x="374" d="M250 590H124L21 733V743H134L187 672L240 743H353V733L250 590Z" />
<glyph unicode="&#x2d8;" glyph-name="breve" horiz-adv-x="389" d="M133 743Q135 708 152 693T196 677Q220 677 237 692T257 743H353Q353 670 311 629T195 587Q122 587 80 628T37 743H133Z" />
<glyph unicode="&#x2d9;" glyph-name="dotaccent" horiz-adv-x="286" d="M54 665Q54 701 77 723T143 745Q184 745 208 723T232 665Q232 629 209 608T143 586Q101 586 78 607T54 665Z" />
<glyph unicode="&#x2da;" glyph-name="ring" horiz-adv-x="295" d="M31 680Q31 725 63 754T147 783Q199 783 232 754T265 680Q265 635 232 607T147 579Q96 579 64 607T31 680ZM191 680Q191 700 179 712T147 725Q127 725 115 713T103 680Q103 660 115 649T147 637Q167
637 179 648T191 680Z" />
<glyph unicode="&#x2db;" glyph-name="ogonek" horiz-adv-x="324" d="M54 -119Q54 -98 62 -78T91 -40T145 -4T226 27L261 0Q205 -26 184 -47T163 -93Q163 -134 208 -134Q232 -134 246 -127H255L270 -193Q257 -204 231 -210T178 -216Q121 -216 88 -189T54 -119Z" />
<glyph unicode="&#x2dc;" glyph-name="tilde" horiz-adv-x="430" d="M163 642Q134 642 128 597H52V615Q52 680 80 711T151 742Q174 742 190 735T219 718T243 701T268 693Q280 693 289 702T299 737H377Q377 733 377 730T378 725V719Q378 654 355 623T289 592Q264
592 246 600T214 617T187 634T163 642Z" />
<glyph unicode="&#x2dd;" glyph-name="hungarumlaut" horiz-adv-x="423" d="M87 753H206V743L152 588H49V600L87 753ZM269 753H390V743L325 588H222V600L269 753Z" />
</font>
</defs>
</svg>
